<?xml version="1.0" encoding="UTF-8" standalone="no"?>
<svg width="335.492mm" height="125.589mm"
 viewBox="0 0 951 356"
 xmlns="http://www.w3.org/2000/svg" xmlns:xlink="http://www.w3.org/1999/xlink"  version="1.2" baseProfile="tiny">
<defs>
</defs>
<g fill="none" stroke="black" stroke-width="1" fill-rule="evenodd" stroke-linecap="square" stroke-linejoin="bevel" >

<g fill="#ffffff" fill-opacity="1" stroke="none" transform="matrix(1,0,0,1,0,0)"
font-family="MS Shell Dlg 2" font-size="7.8" font-weight="400" font-style="normal" 
>
<rect x="0" y="0" width="951" height="356"/>
</g>

<g fill="none" stroke="#000000" stroke-opacity="1" stroke-width="1" stroke-linecap="square" stroke-linejoin="bevel" transform="matrix(1,0,0,1,0,0)"
font-family="MS Shell Dlg 2" font-size="7.8" font-weight="400" font-style="normal" 
>
</g>

<g fill="none" stroke="#000000" stroke-opacity="1" stroke-width="1" stroke-linecap="square" stroke-linejoin="bevel" transform="matrix(1,0,0,1,0,0)"
font-family="MS Shell Dlg 2" font-size="7.8" font-weight="400" font-style="normal" 
>
</g>

<g fill="none" stroke="#000000" stroke-opacity="1" stroke-width="1" stroke-linecap="square" stroke-linejoin="bevel" transform="matrix(1,0,0,1,0,0)"
font-family="MS Shell Dlg 2" font-size="7.8" font-weight="400" font-style="normal" 
>
</g>

<g fill="none" stroke="#000000" stroke-opacity="1" stroke-width="1" stroke-linecap="square" stroke-linejoin="bevel" transform="matrix(1,0,0,1,0,0)"
font-family="MS Shell Dlg 2" font-size="7.8" font-weight="400" font-style="normal" 
>
</g>

<g fill="#ffffff" fill-opacity="1" stroke="none" transform="matrix(1,0,0,1,0,0)"
font-family="MS Shell Dlg 2" font-size="7.8" font-weight="400" font-style="normal" 
>
<rect x="50" y="15" width="886" height="303"/>
</g>

<g fill="none" stroke="#000000" stroke-opacity="1" stroke-width="1" stroke-linecap="square" stroke-linejoin="bevel" transform="matrix(1,0,0,1,0,0)"
font-family="MS Shell Dlg 2" font-size="7.8" font-weight="400" font-style="normal" 
>
</g>

<g fill="none" stroke="#000000" stroke-opacity="1" stroke-width="1" stroke-linecap="square" stroke-linejoin="bevel" transform="matrix(1,0,0,1,0,0)"
font-family="MS Shell Dlg 2" font-size="7.8" font-weight="400" font-style="normal" 
>
</g>

<g fill="none" stroke="#c8c8c8" stroke-opacity="1" stroke-dasharray="1,2" stroke-dashoffset="0" stroke-width="1" stroke-linecap="square" stroke-linejoin="bevel" transform="matrix(1,0,0,1,0,0)"
font-family="MS Shell Dlg 2" font-size="7.8" font-weight="400" font-style="normal" 
>
<polyline fill="none" vector-effect="non-scaling-stroke" points="50,317 50,15 " />
<polyline fill="none" vector-effect="non-scaling-stroke" points="227.2,317 227.2,15 " />
<polyline fill="none" vector-effect="non-scaling-stroke" points="404.4,317 404.4,15 " />
<polyline fill="none" vector-effect="non-scaling-stroke" points="581.6,317 581.6,15 " />
<polyline fill="none" vector-effect="non-scaling-stroke" points="758.8,317 758.8,15 " />
<polyline fill="none" vector-effect="non-scaling-stroke" points="936,317 936,15 " />
</g>

<g fill="none" stroke="#000000" stroke-opacity="1" stroke-width="1" stroke-linecap="square" stroke-linejoin="bevel" transform="matrix(1,0,0,1,0,0)"
font-family="MS Shell Dlg 2" font-size="7.8" font-weight="400" font-style="normal" 
>
</g>

<g fill="none" stroke="#000000" stroke-opacity="1" stroke-width="1" stroke-linecap="square" stroke-linejoin="bevel" transform="matrix(1,0,0,1,0,0)"
font-family="MS Shell Dlg 2" font-size="7.8" font-weight="400" font-style="normal" 
>
</g>

<g fill="none" stroke="#c8c8c8" stroke-opacity="1" stroke-width="1" stroke-linecap="square" stroke-linejoin="bevel" transform="matrix(1,0,0,1,0,0)"
font-family="MS Shell Dlg 2" font-size="7.8" font-weight="400" font-style="normal" 
>
<polyline fill="none" vector-effect="non-scaling-stroke" points="50,150.95 935,150.95 " />
</g>

<g fill="none" stroke="#c8c8c8" stroke-opacity="1" stroke-dasharray="1,2" stroke-dashoffset="0" stroke-width="1" stroke-linecap="square" stroke-linejoin="bevel" transform="matrix(1,0,0,1,0,0)"
font-family="MS Shell Dlg 2" font-size="7.8" font-weight="400" font-style="normal" 
>
<polyline fill="none" vector-effect="non-scaling-stroke" points="50,290.755 935,290.755 " />
<polyline fill="none" vector-effect="non-scaling-stroke" points="50,220.852 935,220.852 " />
<polyline fill="none" vector-effect="non-scaling-stroke" points="50,81.0472 935,81.0472 " />
</g>

<g fill="none" stroke="#000000" stroke-opacity="1" stroke-width="1" stroke-linecap="square" stroke-linejoin="bevel" transform="matrix(1,0,0,1,0,0)"
font-family="MS Shell Dlg 2" font-size="7.8" font-weight="400" font-style="normal" 
>
</g>

<g fill="none" stroke="#000000" stroke-opacity="1" stroke-width="1" stroke-linecap="square" stroke-linejoin="bevel" transform="matrix(1,0,0,1,0,0)"
font-family="MS Shell Dlg 2" font-size="7.8" font-weight="400" font-style="normal" 
>
</g>

<g fill="none" stroke="#000000" stroke-opacity="1" stroke-width="3" stroke-linecap="square" stroke-linejoin="bevel" transform="matrix(1,0,0,1,0,0)"
font-family="MS Shell Dlg 2" font-size="7.8" font-weight="400" font-style="normal" 
>
<polyline fill="none" vector-effect="none" points="50,111.583 52.215,108.882 54.43,119.224 56.645,100.681 58.86,85.1382 61.075,80.1219 63.29,72.7494 65.505,45.9909 67.72,26.8405 69.935,13.8782 72.15,28.5991 74.365,48.8396 76.58,64.3185 78.795,58.6391 81.01,89.4092 83.225,107.837 85.44,108.439 87.655,100.158 89.87,120.731 92.085,150.927 94.3,155.308 96.515,165.453 98.73,162.236 100.945,155.971 103.16,136.474 105.375,139.353 107.59,139.958 109.805,146.162 112.02,169.341 114.235,185.477 116.45,194.325 118.665,202.101 120.88,189.634 123.095,204.09 125.31,192.852 127.525,170.019 129.74,163.512 131.955,183.536 134.17,183.262 136.385,202.423 138.6,185.477 140.815,198.853 143.03,205.675 145.245,215.373 147.46,199.194 149.675,190.734 151.89,198.001 154.105,201.743 156.32,216.098 158.535,222.923 160.75,224.764 162.965,194.022 165.18,195.623 167.395,196.077 169.61,198.562 171.825,185.808 174.04,189.138 176.255,198.351 178.47,188.715 180.685,211.611 182.9,221.685 185.115,230.642 187.33,221.436 189.545,209.456 191.76,195.535 193.975,194.698 196.19,183.341 198.405,188.711 200.62,199.859 202.835,194.374 205.05,203.368 207.265,178.412 209.48,141.424 211.695,124.581 213.91,125.351 216.125,121.104 218.34,127.817 220.555,127.189 222.77,143.169 224.985,143.067 227.2,142.098 229.415,173.806 231.63,199.297 233.845,206.987 236.06,215.715 238.275,178.364 240.49,169.832 242.705,164.782 244.92,159.037 247.135,180.339 249.35,196.643 251.565,186.948 253.78,190.999 255.995,202.906 258.21,206.079 260.425,177.242 262.64,154.706 264.855,161.128 267.07,161.16 269.285,161.973 271.5,152.445 273.715,145.462 275.93,106.762 278.145,111.701 280.36,88.6724 282.575,102.011 284.79,97.5466 287.005,102.349 289.22,120.751 291.435,95.5444 293.65,90.461 295.865,106.409 298.08,103.867 300.295,110.354 302.51,117.143 304.725,113.546 306.94,128.791 309.155,132.083 311.37,124.097 313.585,124.23 315.8,139.696 318.015,128.402 320.23,140.415 322.445,165.085 324.66,152.412 326.875,162.273 329.09,175.802 331.305,169.237 333.52,152.267 335.735,132.918 337.95,153.389 340.165,143.511 342.38,127.476 344.595,142.196 346.81,161.942 349.025,143.936 351.24,126.851 353.455,130.909 355.67,158.524 357.885,160.518 360.1,164.6 362.315,192.825 364.53,177.189 366.745,181.101 368.96,186.141 371.175,212.076 373.39,218.763 375.605,218.859 377.82,238.379 380.035,228.769 382.25,226.369 384.465,220.664 386.68,217.508 388.895,211.915 391.11,199.988 393.325,217.357 395.54,198.628 397.755,193.086 399.97,178.098 402.185,171.338 404.4,177.566 406.615,171.228 408.83,194.401 411.045,201.696 413.26,185.334 415.475,166.441 417.69,160.334 419.905,144.797 422.12,135.169 424.335,142.354 426.55,125.996 428.765,98.7425 430.98,88.3789 433.195,92.7613 435.41,103.27 437.625,121.58 439.84,93.4392 442.055,83.2434 444.27,95.316 446.485,110.082 448.7,110.278 450.915,94.3347 453.13,72.1959 455.345,53.5066 457.56,66.9992 459.775,37.7408 461.99,60.8884 464.205,63.5259 466.42,70.5928 468.635,86.8242 470.85,107.696 473.065,126.121 475.28,83.2115 477.495,90.8006 479.71,111.629 481.925,102.137 484.14,107.167 486.355,106.329 488.57,105.717 490.785,94.9622 493,93.8609 495.215,77.0914 497.43,94.407 499.645,118.458 501.86,108.697 504.075,112.412 506.29,108.148 508.505,93.1382 510.72,82.5526 512.935,96.3708 515.15,81.5762 517.365,89.2608 519.58,94.7107 521.795,115.382 524.01,122.474 526.225,130.358 528.44,134.908 530.655,124.959 532.87,104.221 535.085,74.738 537.3,88.0546 539.515,108.498 541.73,97.6082 543.945,97.4232 546.16,100.333 548.375,106.251 550.59,104.642 552.805,113.857 555.02,123.39 557.235,127.211 559.45,122.11 561.665,121.82 563.88,128.481 566.095,140.252 568.31,169.177 570.525,152.279 572.74,127.858 574.955,126.957 577.17,127.009 579.385,114.417 581.6,123.025 583.815,161.217 586.03,148.04 588.245,162.496 590.46,151.011 592.675,150.811 594.89,174.19 597.105,160.64 599.32,168.239 601.535,180.214 603.75,155.866 605.965,152.157 608.18,198.316 610.395,202.32 612.61,191.359 614.825,172.931 617.04,180.886 619.255,177.635 621.47,169.313 623.685,164.901 625.9,143.692 628.115,125.668 630.33,145.193 632.545,189.987 634.76,199.491 636.975,197.887 639.19,187.193 641.405,190.868 643.62,192.587 645.835,188.742 648.05,192.107 650.265,196.582 652.48,209.87 654.695,191.745 656.91,210.325 659.125,231.276 661.34,239.391 663.555,214.23 665.77,198.792 667.985,199.446 670.2,201.121 672.415,198.889 674.63,193.253 676.845,197.349 679.06,211.942 681.275,208.01 683.49,211.053 685.705,222.933 687.92,225.984 690.135,188.122 692.35,203.902 694.565,180.771 696.78,192.579 698.995,182.149 701.21,197.445 703.425,193.981 705.64,210.725 707.855,220.914 710.07,205.963 712.285,201.505 714.5,213.583 716.715,193.042 718.93,180.324 721.145,191.426 723.36,153.755 725.575,149.028 727.79,145.329 730.005,150.166 732.22,168.62 734.435,185.972 736.65,170.486 738.865,175.299 741.08,181.121 743.295,213.125 745.51,223.138 747.725,213.687 749.94,215.931 752.155,209.755 754.37,210.506 756.585,207.589 758.8,221.741 761.015,231.193 763.23,243.571 765.445,268.297 767.66,277.544 769.875,258.992 772.09,273.924 774.305,291.868 776.52,298.296 778.735,317.274 780.95,294.456 783.165,285.173 785.38,289.084 787.595,273.856 789.81,284.491 792.025,264.457 794.24,265.289 796.455,273.624 798.67,247.019 800.885,226.515 803.1,232.301 805.315,259.656 807.53,291.155 809.745,293.022 811.96,288.184 814.175,266.178 816.39,279.576 818.605,265.675 820.82,274.324 823.035,242.069 825.25,238.235 827.465,268.261 829.68,282.52 831.895,275.538 834.11,274.916 836.325,267.521 838.54,245.504 840.755,269.967 842.97,281.221 845.185,253.427 847.4,262.725 849.615,266.361 851.83,289.507 854.045,283.396 856.26,274.446 858.475,281.168 860.69,270.309 862.905,274.279 865.12,255.726 867.335,260.024 869.55,230.229 871.765,221.677 873.98,216.463 876.195,193.648 878.41,196.05 880.625,193.456 882.84,190.688 885.055,169.738 887.27,175.512 889.485,166.089 891.7,177.761 893.915,160.469 896.13,164.008 898.345,175.056 900.56,183.194 902.775,202.879 904.99,215.764 907.205,213.831 909.42,184.996 911.635,165.63 913.85,144.001 916.065,146.25 918.28,169.06 920.495,169.365 922.71,165.697 924.925,153.954 927.14,156.397 929.355,178.041 931.57,187.467 933.785,192.503 936,199.076 " />
</g>

<g fill="none" stroke="#000000" stroke-opacity="1" stroke-width="1" stroke-linecap="square" stroke-linejoin="bevel" transform="matrix(1,0,0,1,0,0)"
font-family="MS Shell Dlg 2" font-size="7.8" font-weight="400" font-style="normal" 
>
</g>

<g fill="none" stroke="#000000" stroke-opacity="1" stroke-width="1" stroke-linecap="square" stroke-linejoin="bevel" transform="matrix(1,0,0,1,0,0)"
font-family="MS Shell Dlg 2" font-size="7.8" font-weight="400" font-style="normal" 
>
</g>

<g fill="none" stroke="#ff5500" stroke-opacity="1" stroke-dasharray="3,6" stroke-dashoffset="0" stroke-width="3" stroke-linecap="square" stroke-linejoin="bevel" transform="matrix(1,0,0,1,0,0)"
font-family="MS Shell Dlg 2" font-size="7.8" font-weight="400" font-style="normal" 
>
<polyline fill="none" vector-effect="none" points="50,111.64 52.215,108.94 54.43,119.274 56.645,100.744 58.86,85.2119 61.075,80.1986 63.29,72.8311 65.505,46.0916 67.72,26.9541 69.935,14 72.15,28.7085 74.365,48.933 76.58,64.3995 78.795,58.7229 81.01,89.4687 83.225,107.883 85.44,108.483 87.655,100.207 89.87,120.763 92.085,150.937 94.3,155.314 96.515,165.451 98.73,162.236 100.945,155.976 103.16,136.492 105.375,139.367 107.59,139.971 109.805,146.168 112.02,169.328 114.235,185.452 116.45,194.294 118.665,202.065 120.88,189.606 123.095,204.052 125.31,192.823 127.525,170.006 129.74,163.5 131.955,183.509 134.17,183.234 136.385,202.381 138.6,185.448 140.815,198.812 143.03,205.629 145.245,215.321 147.46,199.155 149.675,190.699 151.89,197.96 154.105,201.698 156.32,216.043 158.535,222.863 160.75,224.706 162.965,193.986 165.18,195.584 167.395,196.037 169.61,198.52 171.825,185.776 174.04,189.1 176.255,198.308 178.47,188.676 180.685,211.555 182.9,221.623 185.115,230.575 187.33,221.379 189.545,209.408 191.76,195.498 193.975,194.66 196.19,183.312 198.405,188.675 200.62,199.818 202.835,194.337 205.05,203.327 207.265,178.394 209.48,141.432 211.695,124.596 213.91,125.363 216.125,121.116 218.34,127.822 220.555,127.191 222.77,143.158 224.985,143.056 227.2,142.084 229.415,173.764 231.63,199.241 233.845,206.927 236.06,215.656 238.275,178.336 240.49,169.805 242.705,164.759 244.92,159.014 247.135,180.298 249.35,196.593 251.565,186.908 253.78,190.955 255.995,202.856 258.21,206.031 260.425,177.221 262.64,154.697 264.855,161.113 267.07,161.145 269.285,161.96 271.5,152.439 273.715,145.467 275.93,106.792 278.145,111.724 280.36,88.7096 282.575,102.031 284.79,97.5719 287.005,102.363 289.22,120.756 291.435,95.5691 293.65,90.4819 295.865,106.415 298.08,103.876 300.295,110.354 302.51,117.139 304.725,113.541 306.94,128.774 309.155,132.065 311.37,124.086 313.585,124.213 315.8,139.668 318.015,128.383 320.23,140.38 322.445,165.036 324.66,152.375 326.875,162.225 329.09,175.75 331.305,169.193 333.52,152.24 335.735,132.898 337.95,153.351 340.165,143.486 342.38,127.456 344.595,142.159 346.81,161.894 349.025,143.907 351.24,126.828 353.455,130.874 355.67,158.465 357.885,160.462 360.1,164.534 362.315,192.744 364.53,177.122 366.745,181.027 368.96,186.061 371.175,211.975 373.39,218.667 375.605,218.76 377.82,238.273 380.035,228.677 382.25,226.28 384.465,220.584 386.68,217.431 388.895,211.847 391.11,199.926 393.325,217.285 395.54,198.577 397.755,193.037 399.97,178.064 402.185,171.301 404.4,177.527 406.615,171.188 408.83,194.344 411.045,201.645 413.26,185.303 415.475,166.425 417.69,160.323 419.905,144.799 422.12,135.173 424.335,142.354 426.55,126.015 428.765,98.7781 430.98,88.412 433.195,92.7842 435.41,103.28 437.625,121.583 439.84,93.4695 442.055,83.2681 444.27,95.3281 446.485,110.083 448.7,110.289 450.915,94.3592 453.13,72.2396 455.345,53.549 457.56,67.0315 459.775,37.7869 461.99,60.9022 464.205,63.5405 466.42,70.5911 468.635,86.8099 470.85,107.662 473.065,126.091 475.28,83.2169 477.495,90.7822 479.71,111.602 481.925,102.118 484.14,107.143 486.355,106.307 488.57,105.697 490.785,94.9502 493,93.8476 495.215,77.0858 497.43,94.3725 499.645,118.415 501.86,108.665 504.075,112.378 506.29,108.12 508.505,93.1238 510.72,82.5342 512.935,96.3414 515.15,81.5554 517.365,89.2243 519.58,94.6658 521.795,115.318 524.01,122.412 526.225,130.289 528.44,134.847 530.655,124.911 532.87,104.194 535.085,74.7203 537.3,88.0085 539.515,108.441 541.73,97.5613 543.945,97.3692 546.16,100.273 548.375,106.184 550.59,104.575 552.805,113.776 555.02,123.303 557.235,127.123 559.45,122.028 561.665,121.73 563.88,128.384 566.095,140.138 568.31,169.053 570.525,152.186 572.74,127.777 574.955,126.869 577.17,126.919 579.385,114.332 581.6,122.911 583.815,161.082 586.03,147.922 588.245,162.362 590.46,150.897 592.675,150.679 594.89,174.05 597.105,160.512 599.32,168.099 601.535,180.072 603.75,155.75 605.965,152.017 608.18,198.144 610.395,202.164 612.61,191.221 614.825,172.803 617.04,180.748 619.255,177.506 621.47,169.189 623.685,164.783 625.9,143.588 628.115,125.558 630.33,145.042 632.545,189.802 634.76,199.317 636.975,197.721 639.19,187.038 641.405,190.702 643.62,192.428 645.835,188.579 648.05,191.943 650.265,196.406 652.48,209.696 654.695,191.58 656.91,210.135 659.125,231.077 661.34,239.207 663.555,214.076 665.77,198.642 667.985,199.289 670.2,200.963 672.415,198.732 674.63,193.099 676.845,197.18 679.06,211.768 681.275,207.841 683.49,210.882 685.705,222.751 687.92,225.826 690.135,187.984 692.35,203.749 694.565,180.636 696.78,192.423 698.995,182.001 701.21,197.275 703.425,193.82 705.64,210.54 707.855,220.742 710.07,205.805 712.285,201.348 714.5,213.419 716.715,192.912 718.93,180.183 721.145,191.291 723.36,153.645 725.575,148.902 727.79,145.194 730.005,150.01 732.22,168.438 734.435,185.787 736.65,170.313 738.865,175.109 741.08,180.915 743.295,212.889 745.51,222.916 747.725,213.472 749.94,215.718 752.155,209.542 754.37,210.29 756.585,207.365 758.8,221.497 761.015,230.941 763.23,243.304 765.445,268.014 767.66,277.276 769.875,258.739 772.09,273.647 774.305,291.589 776.52,298.017 778.735,317 780.95,294.223 783.165,284.936 785.38,288.858 787.595,273.637 789.81,284.271 792.025,264.259 794.24,265.078 796.455,273.42 798.67,246.845 800.885,226.334 803.1,232.094 805.315,259.411 807.53,290.904 809.745,292.787 811.96,287.973 814.175,265.978 816.39,279.367 818.605,265.482 820.82,274.129 823.035,241.908 825.25,238.04 827.465,268.04 829.68,282.303 831.895,275.341 834.11,274.719 836.325,267.345 838.54,245.33 840.755,269.758 842.97,281.033 845.185,253.258 847.4,262.536 849.615,266.17 851.83,289.301 854.045,283.224 856.26,274.273 858.475,281.005 860.69,270.157 862.905,274.137 865.12,255.604 867.335,259.906 869.55,230.148 871.765,221.583 873.98,216.387 876.195,193.575 878.41,195.968 880.625,193.371 882.84,190.612 885.055,169.667 887.27,175.427 889.485,166.003 891.7,177.66 893.915,160.384 896.13,163.893 898.345,174.932 900.56,183.052 902.775,202.727 904.99,215.616 907.205,213.713 909.42,184.909 911.635,165.551 913.85,143.922 916.065,146.136 918.28,168.926 920.495,169.237 922.71,165.571 924.925,153.829 927.14,156.246 929.355,177.865 931.57,187.29 933.785,192.321 936,198.893 " />
</g>

<g fill="none" stroke="#000000" stroke-opacity="1" stroke-width="1" stroke-linecap="square" stroke-linejoin="bevel" transform="matrix(1,0,0,1,0,0)"
font-family="MS Shell Dlg 2" font-size="7.8" font-weight="400" font-style="normal" 
>
</g>

<g fill="none" stroke="#000000" stroke-opacity="1" stroke-width="1" stroke-linecap="square" stroke-linejoin="bevel" transform="matrix(1,0,0,1,0,0)"
font-family="MS Shell Dlg 2" font-size="7.8" font-weight="400" font-style="normal" 
>
</g>

<g fill="none" stroke="#000000" stroke-opacity="1" stroke-width="1" stroke-linecap="square" stroke-linejoin="bevel" transform="matrix(1,0,0,1,0,0)"
font-family="MS Shell Dlg 2" font-size="7.8" font-weight="400" font-style="normal" 
>
<polyline fill="none" vector-effect="non-scaling-stroke" points="50,317 936,317 " />
<polyline fill="none" vector-effect="non-scaling-stroke" points="50,317 50,312 " />
<polyline fill="none" vector-effect="non-scaling-stroke" points="227.2,317 227.2,312 " />
<polyline fill="none" vector-effect="non-scaling-stroke" points="404.4,317 404.4,312 " />
<polyline fill="none" vector-effect="non-scaling-stroke" points="581.6,317 581.6,312 " />
<polyline fill="none" vector-effect="non-scaling-stroke" points="758.8,317 758.8,312 " />
<polyline fill="none" vector-effect="non-scaling-stroke" points="936,317 936,312 " />
<polyline fill="none" vector-effect="non-scaling-stroke" points="94.3,317 94.3,315 " />
<polyline fill="none" vector-effect="non-scaling-stroke" points="138.6,317 138.6,315 " />
<polyline fill="none" vector-effect="non-scaling-stroke" points="182.9,317 182.9,315 " />
<polyline fill="none" vector-effect="non-scaling-stroke" points="271.5,317 271.5,315 " />
<polyline fill="none" vector-effect="non-scaling-stroke" points="315.8,317 315.8,315 " />
<polyline fill="none" vector-effect="non-scaling-stroke" points="360.1,317 360.1,315 " />
<polyline fill="none" vector-effect="non-scaling-stroke" points="448.7,317 448.7,315 " />
<polyline fill="none" vector-effect="non-scaling-stroke" points="493,317 493,315 " />
<polyline fill="none" vector-effect="non-scaling-stroke" points="537.3,317 537.3,315 " />
<polyline fill="none" vector-effect="non-scaling-stroke" points="625.9,317 625.9,315 " />
<polyline fill="none" vector-effect="non-scaling-stroke" points="670.2,317 670.2,315 " />
<polyline fill="none" vector-effect="non-scaling-stroke" points="714.5,317 714.5,315 " />
<polyline fill="none" vector-effect="non-scaling-stroke" points="803.1,317 803.1,315 " />
<polyline fill="none" vector-effect="non-scaling-stroke" points="847.4,317 847.4,315 " />
<polyline fill="none" vector-effect="non-scaling-stroke" points="891.7,317 891.7,315 " />
</g>

<g fill="#000000" fill-opacity="1" stroke="#000000" stroke-opacity="1" stroke-width="1" stroke-linecap="square" stroke-linejoin="bevel" transform="matrix(1,0,0,1,47,320)"
font-family="MS Shell Dlg 2" font-size="7.85" font-weight="400" font-style="normal" 
>
<text fill="#000000" fill-opacity="1" stroke="none" xml:space="preserve" x="0.8125" y="8" font-family="MS Shell Dlg 2" font-size="7.85" font-weight="400" font-style="normal" 
 >0</text>
</g>

<g fill="#000000" fill-opacity="1" stroke="#000000" stroke-opacity="1" stroke-width="1" stroke-linecap="square" stroke-linejoin="bevel" transform="matrix(1,0,0,1,222.2,320)"
font-family="MS Shell Dlg 2" font-size="7.85" font-weight="400" font-style="normal" 
>
<text fill="#000000" fill-opacity="1" stroke="none" xml:space="preserve" x="0.640625" y="8" font-family="MS Shell Dlg 2" font-size="7.85" font-weight="400" font-style="normal" 
 >20</text>
</g>

<g fill="#000000" fill-opacity="1" stroke="#000000" stroke-opacity="1" stroke-width="1" stroke-linecap="square" stroke-linejoin="bevel" transform="matrix(1,0,0,1,399.4,320)"
font-family="MS Shell Dlg 2" font-size="7.85" font-weight="400" font-style="normal" 
>
<text fill="#000000" fill-opacity="1" stroke="none" xml:space="preserve" x="0.640625" y="8" font-family="MS Shell Dlg 2" font-size="7.85" font-weight="400" font-style="normal" 
 >40</text>
</g>

<g fill="#000000" fill-opacity="1" stroke="#000000" stroke-opacity="1" stroke-width="1" stroke-linecap="square" stroke-linejoin="bevel" transform="matrix(1,0,0,1,576.6,320)"
font-family="MS Shell Dlg 2" font-size="7.85" font-weight="400" font-style="normal" 
>
<text fill="#000000" fill-opacity="1" stroke="none" xml:space="preserve" x="0.640625" y="8" font-family="MS Shell Dlg 2" font-size="7.85" font-weight="400" font-style="normal" 
 >60</text>
</g>

<g fill="#000000" fill-opacity="1" stroke="#000000" stroke-opacity="1" stroke-width="1" stroke-linecap="square" stroke-linejoin="bevel" transform="matrix(1,0,0,1,753.8,320)"
font-family="MS Shell Dlg 2" font-size="7.85" font-weight="400" font-style="normal" 
>
<text fill="#000000" fill-opacity="1" stroke="none" xml:space="preserve" x="0.640625" y="8" font-family="MS Shell Dlg 2" font-size="7.85" font-weight="400" font-style="normal" 
 >80</text>
</g>

<g fill="#000000" fill-opacity="1" stroke="#000000" stroke-opacity="1" stroke-width="1" stroke-linecap="square" stroke-linejoin="bevel" transform="matrix(1,0,0,1,929,320)"
font-family="MS Shell Dlg 2" font-size="7.85" font-weight="400" font-style="normal" 
>
<text fill="#000000" fill-opacity="1" stroke="none" xml:space="preserve" x="0.453125" y="8" font-family="MS Shell Dlg 2" font-size="7.85" font-weight="400" font-style="normal" 
 >100</text>
</g>

<g fill="#000000" fill-opacity="1" stroke="#000000" stroke-opacity="1" stroke-width="1" stroke-linecap="square" stroke-linejoin="bevel" transform="matrix(1,0,0,1,0,0)"
font-family="MS Shell Dlg 2" font-size="7.8" font-weight="400" font-style="normal" 
>
<text fill="#000000" fill-opacity="1" stroke="none" xml:space="preserve" x="473.5" y="341.172" font-family="MS Shell Dlg 2" font-size="7.8" font-weight="400" font-style="normal" 
 >X Axis Title</text>
</g>

<g fill="none" stroke="#000000" stroke-opacity="1" stroke-width="1" stroke-linecap="square" stroke-linejoin="bevel" transform="matrix(1,0,0,1,0,0)"
font-family="MS Shell Dlg 2" font-size="7.8" font-weight="400" font-style="normal" 
>
</g>

<g fill="none" stroke="#000000" stroke-opacity="1" stroke-width="1" stroke-linecap="square" stroke-linejoin="bevel" transform="matrix(1,0,0,1,0,0)"
font-family="MS Shell Dlg 2" font-size="7.8" font-weight="400" font-style="normal" 
>
</g>

<g fill="none" stroke="#000000" stroke-opacity="1" stroke-width="1" stroke-linecap="square" stroke-linejoin="bevel" transform="matrix(1,0,0,1,0,0)"
font-family="MS Shell Dlg 2" font-size="7.8" font-weight="400" font-style="normal" 
>
<polyline fill="none" vector-effect="non-scaling-stroke" points="50,317 50,14 " />
<polyline fill="none" vector-effect="non-scaling-stroke" points="50,290.755 55,290.755 " />
<polyline fill="none" vector-effect="non-scaling-stroke" points="50,220.852 55,220.852 " />
<polyline fill="none" vector-effect="non-scaling-stroke" points="50,150.95 55,150.95 " />
<polyline fill="none" vector-effect="non-scaling-stroke" points="50,81.0472 55,81.0472 " />
<polyline fill="none" vector-effect="non-scaling-stroke" points="50,304.735 52,304.735 " />
<polyline fill="none" vector-effect="non-scaling-stroke" points="50,276.774 52,276.774 " />
<polyline fill="none" vector-effect="non-scaling-stroke" points="50,262.794 52,262.794 " />
<polyline fill="none" vector-effect="non-scaling-stroke" points="50,248.813 52,248.813 " />
<polyline fill="none" vector-effect="non-scaling-stroke" points="50,234.833 52,234.833 " />
<polyline fill="none" vector-effect="non-scaling-stroke" points="50,206.872 52,206.872 " />
<polyline fill="none" vector-effect="non-scaling-stroke" points="50,192.891 52,192.891 " />
<polyline fill="none" vector-effect="non-scaling-stroke" points="50,178.911 52,178.911 " />
<polyline fill="none" vector-effect="non-scaling-stroke" points="50,164.93 52,164.93 " />
<polyline fill="none" vector-effect="non-scaling-stroke" points="50,136.969 52,136.969 " />
<polyline fill="none" vector-effect="non-scaling-stroke" points="50,122.989 52,122.989 " />
<polyline fill="none" vector-effect="non-scaling-stroke" points="50,109.008 52,109.008 " />
<polyline fill="none" vector-effect="non-scaling-stroke" points="50,95.0277 52,95.0277 " />
<polyline fill="none" vector-effect="non-scaling-stroke" points="50,67.0667 52,67.0667 " />
<polyline fill="none" vector-effect="non-scaling-stroke" points="50,53.0862 52,53.0862 " />
<polyline fill="none" vector-effect="non-scaling-stroke" points="50,39.1057 52,39.1057 " />
<polyline fill="none" vector-effect="non-scaling-stroke" points="50,25.1251 52,25.1251 " />
</g>

<g fill="#000000" fill-opacity="1" stroke="#000000" stroke-opacity="1" stroke-width="1" stroke-linecap="square" stroke-linejoin="bevel" transform="matrix(1,0,0,1,33,285.755)"
font-family="MS Shell Dlg 2" font-size="7.85" font-weight="400" font-style="normal" 
>
<text fill="#000000" fill-opacity="1" stroke="none" xml:space="preserve" x="0.1875" y="8" font-family="MS Shell Dlg 2" font-size="7.85" font-weight="400" font-style="normal" 
 >-10</text>
</g>

<g fill="#000000" fill-opacity="1" stroke="#000000" stroke-opacity="1" stroke-width="1" stroke-linecap="square" stroke-linejoin="bevel" transform="matrix(1,0,0,1,37,215.852)"
font-family="MS Shell Dlg 2" font-size="7.85" font-weight="400" font-style="normal" 
>
<text fill="#000000" fill-opacity="1" stroke="none" xml:space="preserve" x="0.359375" y="8" font-family="MS Shell Dlg 2" font-size="7.85" font-weight="400" font-style="normal" 
 >-5</text>
</g>

<g fill="#000000" fill-opacity="1" stroke="#000000" stroke-opacity="1" stroke-width="1" stroke-linecap="square" stroke-linejoin="bevel" transform="matrix(1,0,0,1,39,145.95)"
font-family="MS Shell Dlg 2" font-size="7.85" font-weight="400" font-style="normal" 
>
<text fill="#000000" fill-opacity="1" stroke="none" xml:space="preserve" x="0.8125" y="8" font-family="MS Shell Dlg 2" font-size="7.85" font-weight="400" font-style="normal" 
 >0</text>
</g>

<g fill="#000000" fill-opacity="1" stroke="#000000" stroke-opacity="1" stroke-width="1" stroke-linecap="square" stroke-linejoin="bevel" transform="matrix(1,0,0,1,39,76.0472)"
font-family="MS Shell Dlg 2" font-size="7.85" font-weight="400" font-style="normal" 
>
<text fill="#000000" fill-opacity="1" stroke="none" xml:space="preserve" x="0.8125" y="8" font-family="MS Shell Dlg 2" font-size="7.85" font-weight="400" font-style="normal" 
 >5</text>
</g>

<g fill="#000000" fill-opacity="1" stroke="#000000" stroke-opacity="1" stroke-width="1" stroke-linecap="square" stroke-linejoin="bevel" transform="matrix(0,-1,1,0,13,317)"
font-family="MS Shell Dlg 2" font-size="7.8" font-weight="400" font-style="normal" 
>
<text fill="#000000" fill-opacity="1" stroke="none" xml:space="preserve" x="132.016" y="8.17188" font-family="MS Shell Dlg 2" font-size="7.8" font-weight="400" font-style="normal" 
 >Y Axis Title</text>
</g>

<g fill="none" stroke="#000000" stroke-opacity="1" stroke-width="1" stroke-linecap="square" stroke-linejoin="bevel" transform="matrix(1,0,0,1,0,0)"
font-family="MS Shell Dlg 2" font-size="7.8" font-weight="400" font-style="normal" 
>
</g>

<g fill="none" stroke="#000000" stroke-opacity="1" stroke-width="1" stroke-linecap="square" stroke-linejoin="bevel" transform="matrix(1,0,0,1,0,0)"
font-family="MS Shell Dlg 2" font-size="7.8" font-weight="400" font-style="normal" 
>
</g>

<g fill="#ffffff" fill-opacity="1" stroke="#ffffff" stroke-opacity="1" stroke-width="1" stroke-linecap="square" stroke-linejoin="bevel" transform="matrix(1,0,0,1,0,0)"
font-family="MS Shell Dlg 2" font-size="7.8" font-weight="400" font-style="normal" 
>
<rect vector-effect="non-scaling-stroke" x="674" y="50" width="179" height="36"/>
</g>

<g fill="none" stroke="#000000" stroke-opacity="1" stroke-width="1" stroke-linecap="square" stroke-linejoin="bevel" transform="matrix(1,0,0,1,0,0)"
font-family="MS Shell Dlg 2" font-size="7.8" font-weight="400" font-style="normal" 
>
</g>

<g fill="none" stroke="#000000" stroke-opacity="1" stroke-width="1" stroke-linecap="square" stroke-linejoin="bevel" transform="matrix(1,0,0,1,0,0)"
font-family="MS Shell Dlg 2" font-size="7.8" font-weight="400" font-style="normal" 
>
</g>

<g fill="none" stroke="#000000" stroke-opacity="1" stroke-width="1" stroke-linecap="square" stroke-linejoin="bevel" transform="matrix(1,0,0,1,0,0)"
font-family="MS Shell Dlg 2" font-size="7.8" font-weight="400" font-style="normal" 
>
<text fill="#000000" fill-opacity="1" stroke="none" xml:space="preserve" x="720" y="63" font-family="MS Shell Dlg 2" font-size="7.8" font-weight="400" font-style="normal" 
 >LabRPS</text>
</g>

<g fill="none" stroke="#000000" stroke-opacity="1" stroke-width="1" stroke-linecap="square" stroke-linejoin="bevel" transform="matrix(1,0,0,1,0,0)"
font-family="MS Shell Dlg 2" font-size="7.8" font-weight="400" font-style="normal" 
>
</g>

<g fill="none" stroke="#000000" stroke-opacity="1" stroke-width="3" stroke-linecap="square" stroke-linejoin="bevel" transform="matrix(1,0,0,1,0,0)"
font-family="MS Shell Dlg 2" font-size="7.8" font-weight="400" font-style="normal" 
>
<polyline fill="none" vector-effect="none" points="681,64 718,64 " />
</g>

<g fill="none" stroke="#000000" stroke-opacity="1" stroke-width="3" stroke-linecap="square" stroke-linejoin="bevel" transform="matrix(1,0,0,1,0,0)"
font-family="MS Shell Dlg 2" font-size="7.8" font-weight="400" font-style="normal" 
>
</g>

<g fill="none" stroke="#000000" stroke-opacity="1" stroke-width="3" stroke-linecap="square" stroke-linejoin="bevel" transform="matrix(1,0,0,1,0,0)"
font-family="MS Shell Dlg 2" font-size="7.8" font-weight="400" font-style="normal" 
>
</g>

<g fill="none" stroke="#000000" stroke-opacity="1" stroke-width="1" stroke-linecap="square" stroke-linejoin="bevel" transform="matrix(1,0,0,1,0,0)"
font-family="MS Shell Dlg 2" font-size="7.8" font-weight="400" font-style="normal" 
>
</g>

<g fill="none" stroke="#000000" stroke-opacity="1" stroke-width="1" stroke-linecap="square" stroke-linejoin="bevel" transform="matrix(1,0,0,1,0,0)"
font-family="MS Shell Dlg 2" font-size="7.8" font-weight="400" font-style="normal" 
>
</g>

<g fill="none" stroke="#000000" stroke-opacity="1" stroke-width="1" stroke-linecap="square" stroke-linejoin="bevel" transform="matrix(1,0,0,1,0,0)"
font-family="MS Shell Dlg 2" font-size="7.8" font-weight="400" font-style="normal" 
>
</g>

<g fill="none" stroke="#000000" stroke-opacity="1" stroke-width="1" stroke-linecap="square" stroke-linejoin="bevel" transform="matrix(1,0,0,1,0,0)"
font-family="MS Shell Dlg 2" font-size="7.8" font-weight="400" font-style="normal" 
>
<text fill="#000000" fill-opacity="1" stroke="none" xml:space="preserve" x="807" y="63" font-family="MS Shell Dlg 2" font-size="7.8" font-weight="400" font-style="normal" 
 >MatLab</text>
</g>

<g fill="none" stroke="#000000" stroke-opacity="1" stroke-width="1" stroke-linecap="square" stroke-linejoin="bevel" transform="matrix(1,0,0,1,0,0)"
font-family="MS Shell Dlg 2" font-size="7.8" font-weight="400" font-style="normal" 
>
</g>

<g fill="none" stroke="#ff5500" stroke-opacity="1" stroke-dasharray="3,6" stroke-dashoffset="0" stroke-width="3" stroke-linecap="square" stroke-linejoin="bevel" transform="matrix(1,0,0,1,0,0)"
font-family="MS Shell Dlg 2" font-size="7.8" font-weight="400" font-style="normal" 
>
<polyline fill="none" vector-effect="none" points="768,64 805,64 " />
</g>

<g fill="none" stroke="#ff5500" stroke-opacity="1" stroke-dasharray="3,6" stroke-dashoffset="0" stroke-width="3" stroke-linecap="square" stroke-linejoin="bevel" transform="matrix(1,0,0,1,0,0)"
font-family="MS Shell Dlg 2" font-size="7.8" font-weight="400" font-style="normal" 
>
</g>

<g fill="none" stroke="#ff5500" stroke-opacity="1" stroke-dasharray="3,6" stroke-dashoffset="0" stroke-width="3" stroke-linecap="square" stroke-linejoin="bevel" transform="matrix(1,0,0,1,0,0)"
font-family="MS Shell Dlg 2" font-size="7.8" font-weight="400" font-style="normal" 
>
</g>

<g fill="none" stroke="#000000" stroke-opacity="1" stroke-width="1" stroke-linecap="square" stroke-linejoin="bevel" transform="matrix(1,0,0,1,0,0)"
font-family="MS Shell Dlg 2" font-size="7.8" font-weight="400" font-style="normal" 
>
</g>

<g fill="none" stroke="#000000" stroke-opacity="1" stroke-width="1" stroke-linecap="square" stroke-linejoin="bevel" transform="matrix(1,0,0,1,0,0)"
font-family="MS Shell Dlg 2" font-size="7.8" font-weight="400" font-style="normal" 
>
</g>

<g fill="none" stroke="#000000" stroke-opacity="1" stroke-width="1" stroke-linecap="square" stroke-linejoin="bevel" transform="matrix(1,0,0,1,0,0)"
font-family="MS Shell Dlg 2" font-size="7.8" font-weight="400" font-style="normal" 
>
</g>

<g fill="none" stroke="#000000" stroke-opacity="1" stroke-width="1" stroke-linecap="square" stroke-linejoin="bevel" transform="matrix(1,0,0,1,0,0)"
font-family="MS Shell Dlg 2" font-size="7.8" font-weight="400" font-style="normal" 
>
</g>
</g>
</svg>
