<?xml version="1.0" encoding="UTF-8" standalone="no"?>
<svg width="347.839mm" height="138.289mm"
 viewBox="0 0 986 392"
 xmlns="http://www.w3.org/2000/svg" xmlns:xlink="http://www.w3.org/1999/xlink"  version="1.2" baseProfile="tiny">
<defs>
</defs>
<g fill="none" stroke="black" stroke-width="1" fill-rule="evenodd" stroke-linecap="square" stroke-linejoin="bevel" >

<g fill="#ffffff" fill-opacity="1" stroke="none" transform="matrix(1,0,0,1,0,0)"
font-family="MS Shell Dlg 2" font-size="7.8" font-weight="400" font-style="normal" 
>
<rect x="0" y="0" width="986" height="392"/>
</g>

<g fill="none" stroke="#000000" stroke-opacity="1" stroke-width="1" stroke-linecap="square" stroke-linejoin="bevel" transform="matrix(1,0,0,1,0,0)"
font-family="MS Shell Dlg 2" font-size="7.8" font-weight="400" font-style="normal" 
>
</g>

<g fill="none" stroke="#000000" stroke-opacity="1" stroke-width="1" stroke-linecap="square" stroke-linejoin="bevel" transform="matrix(1,0,0,1,0,0)"
font-family="MS Shell Dlg 2" font-size="7.8" font-weight="400" font-style="normal" 
>
</g>

<g fill="none" stroke="#000000" stroke-opacity="1" stroke-width="1" stroke-linecap="square" stroke-linejoin="bevel" transform="matrix(1,0,0,1,0,0)"
font-family="MS Shell Dlg 2" font-size="7.8" font-weight="400" font-style="normal" 
>
</g>

<g fill="none" stroke="#000000" stroke-opacity="1" stroke-width="1" stroke-linecap="square" stroke-linejoin="bevel" transform="matrix(1,0,0,1,0,0)"
font-family="MS Shell Dlg 2" font-size="7.8" font-weight="400" font-style="normal" 
>
</g>

<g fill="#ffffff" fill-opacity="1" stroke="none" transform="matrix(1,0,0,1,0,0)"
font-family="MS Shell Dlg 2" font-size="7.8" font-weight="400" font-style="normal" 
>
<rect x="52" y="21" width="906" height="333"/>
</g>

<g fill="none" stroke="#000000" stroke-opacity="1" stroke-width="1" stroke-linecap="square" stroke-linejoin="bevel" transform="matrix(1,0,0,1,0,0)"
font-family="MS Shell Dlg 2" font-size="7.8" font-weight="400" font-style="normal" 
>
</g>

<g fill="none" stroke="#000000" stroke-opacity="1" stroke-width="1" stroke-linecap="square" stroke-linejoin="bevel" transform="matrix(1,0,0,1,0,0)"
font-family="MS Shell Dlg 2" font-size="7.8" font-weight="400" font-style="normal" 
>
</g>

<g fill="none" stroke="#c8c8c8" stroke-opacity="1" stroke-dasharray="1,2" stroke-dashoffset="0" stroke-width="1" stroke-linecap="square" stroke-linejoin="bevel" transform="matrix(1,0,0,1,0,0)"
font-family="MS Shell Dlg 2" font-size="7.8" font-weight="400" font-style="normal" 
>
<polyline fill="none" vector-effect="non-scaling-stroke" points="52,353 52,21 " />
<polyline fill="none" vector-effect="non-scaling-stroke" points="175.804,353 175.804,21 " />
<polyline fill="none" vector-effect="non-scaling-stroke" points="299.609,353 299.609,21 " />
<polyline fill="none" vector-effect="non-scaling-stroke" points="423.413,353 423.413,21 " />
<polyline fill="none" vector-effect="non-scaling-stroke" points="547.217,353 547.217,21 " />
<polyline fill="none" vector-effect="non-scaling-stroke" points="671.022,353 671.022,21 " />
<polyline fill="none" vector-effect="non-scaling-stroke" points="794.826,353 794.826,21 " />
<polyline fill="none" vector-effect="non-scaling-stroke" points="918.63,353 918.63,21 " />
</g>

<g fill="none" stroke="#000000" stroke-opacity="1" stroke-width="1" stroke-linecap="square" stroke-linejoin="bevel" transform="matrix(1,0,0,1,0,0)"
font-family="MS Shell Dlg 2" font-size="7.8" font-weight="400" font-style="normal" 
>
</g>

<g fill="none" stroke="#000000" stroke-opacity="1" stroke-width="1" stroke-linecap="square" stroke-linejoin="bevel" transform="matrix(1,0,0,1,0,0)"
font-family="MS Shell Dlg 2" font-size="7.8" font-weight="400" font-style="normal" 
>
</g>

<g fill="none" stroke="#c8c8c8" stroke-opacity="1" stroke-width="1" stroke-linecap="square" stroke-linejoin="bevel" transform="matrix(1,0,0,1,0,0)"
font-family="MS Shell Dlg 2" font-size="7.8" font-weight="400" font-style="normal" 
>
<polyline fill="none" vector-effect="non-scaling-stroke" points="52,189.394 957,189.394 " />
</g>

<g fill="none" stroke="#c8c8c8" stroke-opacity="1" stroke-dasharray="1,2" stroke-dashoffset="0" stroke-width="1" stroke-linecap="square" stroke-linejoin="bevel" transform="matrix(1,0,0,1,0,0)"
font-family="MS Shell Dlg 2" font-size="7.8" font-weight="400" font-style="normal" 
>
<polyline fill="none" vector-effect="non-scaling-stroke" points="52,309.208 957,309.208 " />
<polyline fill="none" vector-effect="non-scaling-stroke" points="52,249.301 957,249.301 " />
<polyline fill="none" vector-effect="non-scaling-stroke" points="52,129.487 957,129.487 " />
<polyline fill="none" vector-effect="non-scaling-stroke" points="52,69.5793 957,69.5793 " />
</g>

<g fill="none" stroke="#000000" stroke-opacity="1" stroke-width="1" stroke-linecap="square" stroke-linejoin="bevel" transform="matrix(1,0,0,1,0,0)"
font-family="MS Shell Dlg 2" font-size="7.8" font-weight="400" font-style="normal" 
>
</g>

<g fill="none" stroke="#000000" stroke-opacity="1" stroke-width="1" stroke-linecap="square" stroke-linejoin="bevel" transform="matrix(1,0,0,1,0,0)"
font-family="MS Shell Dlg 2" font-size="7.8" font-weight="400" font-style="normal" 
>
</g>

<g fill="none" stroke="#0055ff" stroke-opacity="1" stroke-width="1" stroke-linecap="square" stroke-linejoin="bevel" transform="matrix(1,0,0,1,0,0)"
font-family="MS Shell Dlg 2" font-size="7.8" font-weight="400" font-style="normal" 
>
<polyline fill="none" vector-effect="non-scaling-stroke" points="52,189.075 52.2476,188.438 52.4952,187.178 52.7428,186.573 52.9904,186.345 53.238,185.927 53.4857,186.411 53.7333,188.025 53.9809,188.972 54.2285,188.993 54.4761,189.112 54.7237,189.478 54.9713,190.187 55.2189,190.997 55.4665,191.758 55.7141,192.358 55.9617,191.425 56.2093,187.561 56.457,182.663 56.7046,179.793 56.9522,179.104 57.1998,178.093 57.4474,174.365 57.695,172.082 57.9426,176.064 58.1902,184.535 58.4378,194.357 58.6854,200.995 58.933,205.429 59.1807,211.676 59.4283,215.986 59.6759,218.915 59.9235,224.069 60.1711,220.955 60.4187,198.898 60.6663,170.728 60.9139,153.911 61.1615,149.779 61.4091,155.065 61.6567,163.985 61.9043,166.787 62.152,160.927 62.3996,158.703 62.6472,173.753 62.8948,195.442 63.1424,213.707 63.39,230.215 63.6376,238.908 63.8852,239.607 64.1328,227.24 64.3804,206.646 64.628,195.623 64.8756,187.836 65.1233,175.834 65.3709,166.772 65.6185,167.339 65.8661,175.92 66.1137,182.825 66.3613,183.771 66.6089,179.343 66.8565,178.866 67.1041,189.285 67.3517,196.859 67.5993,198.843 67.847,196.398 68.0946,181.45 68.3422,171.672 68.5898,186.087 68.8374,202.731 69.085,202.916 69.3326,198.579 69.5802,188.715 69.8278,174.382 70.0754,169.451 70.323,176.701 70.5706,188.462 70.8183,194.731 71.0659,194.048 71.3135,175.752 71.5611,150.208 71.8087,150.733 72.0563,169.437 72.3039,185.112 72.5515,201.234 72.7991,218.356 73.0467,225.302 73.2943,226.538 73.542,231.561 73.7896,236.384 74.0372,239.658 74.2848,241.32 74.5324,237.876 74.78,225.479 75.0276,204.461 75.2752,180.278 75.5228,156.862 75.7704,142.62 76.018,141.214 76.2656,150.553 76.5133,173.347 76.7609,206.718 77.0085,239.775 77.2561,253.604 77.5037,256.44 77.7513,267.095 77.9989,251.375 78.2465,193.577 78.4941,141.722 78.7417,111.997 78.9893,94.4492 79.2369,96.2518 79.4846,96.8485 79.7322,83.7054 79.9798,75.0326 80.2274,75.0224 80.475,77.1042 80.7226,82.3503 80.9702,103.81 81.2178,135.401 81.4654,161.866 81.713,191.816 81.9606,215.578 82.2083,245.941 82.4559,308.941 82.7035,336.901 82.9511,315.226 83.1987,311.34 83.4463,296.096 83.6939,254.043 83.9415,237.105 84.1891,242.926 84.4367,241.906 84.6843,225.831 84.9319,203.12 85.1796,181.316 85.4272,154.51 85.6748,128.069 85.9224,102.172 86.17,81.3331 86.4176,84.9077 86.6652,87.679 86.9128,76.8628 87.1604,76.8328 87.408,92.1631 87.6556,115.35 87.9033,137.435 88.1509,162.018 88.3985,191.021 88.6461,211.482 88.8937,227.089 89.1413,252.518 89.3889,281.55 89.6365,307.24 89.8841,332.671 90.1317,347.06 90.3793,344.955 90.6269,329.533 90.8746,295.882 91.1222,257.605 91.3698,220.915 91.6174,177.082 91.865,145.282 92.1126,119.084 92.3602,73.5397 92.6078,30.9552 92.8554,20 93.103,38.9295 93.3506,69.0227 93.5983,90.8961 93.8459,104 94.0935,119.812 94.3411,130.809 94.5887,155.515 94.8363,224.598 95.0839,295.464 95.3315,332.551 95.5791,348.156 95.8267,351.752 96.0743,353 96.3219,350.136 96.5696,321.163 96.8172,257.399 97.0648,186.857 97.3124,120.256 97.56,65.4618 97.8076,50.1903 98.0552,60.0079 98.3028,69.5739 98.5504,80.8766 98.798,111.127 99.0456,163.491 99.2932,209.909 99.5409,245.315 99.7885,284.66 100.036,311.393 100.284,313.954 100.531,308.24 100.779,290.79 101.027,250.756 101.274,206.864 101.522,175.165 101.769,148.54 102.017,130.126 102.265,128.737 102.512,145.611 102.76,170.12 103.007,181.95 103.255,175.61 103.503,138.78 103.75,83.8378 103.998,58.4203 104.245,61.2066 104.493,133.595 104.741,271.812 104.988,324.478 105.236,302.608 105.483,282.006 105.731,235.585 105.979,212.337 106.226,241.311 106.474,272.247 106.722,282.928 106.969,277.658 107.217,264.885 107.464,222.275 107.712,155.497 107.96,132.732 108.207,137 108.455,122.479 108.702,116.201 108.95,125.597 109.198,136.437 109.445,158.081 109.693,197.216 109.94,215.849 110.188,191.802 110.436,169.806 110.683,174.451 110.931,188.535 111.178,195.875 111.426,195.437 111.674,193.944 111.921,194.808 112.169,202.18 112.417,217.612 112.664,244.567 112.912,266.089 113.159,248.192 113.407,195.352 113.655,154.851 113.902,154.796 114.15,163.474 114.397,152.148 114.645,136.83 114.893,133.277 115.14,146.203 115.388,177.012 115.635,229.466 115.883,277.548 116.131,278.793 116.378,237.369 116.626,160.731 116.873,94.1838 117.121,88.5543 117.369,97.0671 117.616,111.221 117.864,165.756 118.112,202.164 118.359,194.919 118.607,204.66 118.854,225.844 119.102,232.916 119.35,242.144 119.597,248.692 119.845,243.042 120.092,235.406 120.34,230.271 120.588,219.999 120.835,198.072 121.083,159.873 121.33,103.949 121.578,55.9683 121.826,51.3327 122.073,102.036 122.321,189.376 122.568,256.331 122.816,278.049 123.064,269.26 123.311,235.831 123.559,201.787 123.807,187.093 124.054,184.302 124.302,177.367 124.549,161.437 124.797,146.965 125.045,138.966 125.292,144.891 125.54,161.597 125.787,173.318 126.035,175.035 126.283,164.131 126.53,164.932 126.778,198.918 127.025,230.393 127.273,242.111 127.521,245.858 127.768,227.749 128.016,193.096 128.263,161.581 128.511,145.629 128.759,152.043 129.006,163.553 129.254,171.018 129.502,179.249 129.749,180.878 129.997,179.059 130.244,187.06 130.492,197.149 130.74,199.955 130.987,196.71 131.235,189.626 131.482,184.154 131.73,185.411 131.978,193.525 132.225,200.836 132.473,206.016 132.72,211.849 132.968,215.594 133.216,219.1 133.463,224.042 133.711,229.191 133.958,229.746 134.206,221.844 134.454,213.885 134.701,206.82 134.949,192.773 135.197,178.363 135.444,169.322 135.692,159.035 135.939,155.856 136.187,170.812 136.435,182.24 136.682,170.141 136.93,145.996 137.177,129.037 137.425,137.435 137.673,168.56 137.92,196.947 138.168,228.865 138.415,261.463 138.663,268.879 138.911,265.088 139.158,259.656 139.406,238.83 139.653,204.322 139.901,179.342 140.149,179.047 140.396,191.27 140.644,195.976 140.892,179.129 141.139,150.494 141.387,133.889 141.634,139.192 141.882,156.893 142.13,187.21 142.377,232.328 142.625,253.445 142.872,245.433 143.12,236.187 143.368,221.516 143.615,203.749 143.863,187.569 144.11,171.351 144.358,156.772 144.606,146.516 144.853,142.058 145.101,131.688 145.348,115.956 145.596,104.642 145.844,97.6662 146.091,114.909 146.339,161.835 146.586,207.84 146.834,240.046 147.082,252.583 147.329,238.682 147.577,217.926 147.825,212.074 148.072,214.251 148.32,211.903 148.567,208.365 148.815,203.064 149.063,193.088 149.31,182.525 149.558,179.549 149.805,186.203 150.053,184.503 150.301,168.883 150.548,157.915 150.796,163.432 151.043,185.922 151.291,220.632 151.539,249.263 151.786,254.243 152.034,230.669 152.281,186.6 152.529,166.688 152.777,184.849 153.024,199.201 153.272,199.088 153.52,189.955 153.767,173.25 154.015,161.148 154.262,162.181 154.51,177.268 154.758,190.696 155.005,198.752 155.253,212.925 155.5,222.375 155.748,214.904 155.996,204.031 156.243,199.851 156.491,193.707 156.738,195.243 156.986,210.298 157.234,217.413 157.481,216.461 157.729,215.672 157.976,210.399 158.224,199.931 158.472,183.894 158.719,171.56 158.967,166.786 159.215,167.377 159.462,178.579 159.71,192.538 159.957,194.438 160.205,181.424 160.453,168.147 160.7,166.36 160.948,178.451 161.195,198.739 161.443,210.697 161.691,213.294 161.938,214.298 162.186,213.288 162.433,215.901 162.681,225.731 162.929,234.874 163.176,234.843 163.424,223.102 163.671,207.954 163.919,193.025 164.167,176.85 164.414,165.393 164.662,159.415 164.91,154.566 165.157,153.023 165.405,156.483 165.652,159.544 165.9,161.132 166.148,164.174 166.395,169.581 166.643,176.068 166.89,180.422 167.138,181.183 167.386,176.358 167.633,169.62 167.881,166.584 168.128,168.817 168.376,177.661 168.624,186.185 168.871,188.611 169.119,192.054 169.366,202.046 169.614,212.371 169.862,212.512 170.109,199.362 170.357,185.491 170.605,176.791 170.852,167.888 171.1,167.968 171.347,176.374 171.595,180.607 171.843,181.35 172.09,178.347 172.338,176.901 172.585,183.738 172.833,191.155 173.081,193.146 173.328,188.631 173.576,183.458 173.823,188.705 174.071,198.929 174.319,205.664 174.566,213.637 174.814,222.82 175.061,230.957 175.309,238.421 175.557,239.798 175.804,227.945 176.052,203.678 176.3,181.457 176.547,174.516 176.795,172.132 177.042,165.938 177.29,165.848 177.538,167.147 177.785,165.243 178.033,168.535 178.28,174.564 178.528,182.911 178.776,198.377 179.023,211.782 179.271,211.966 179.518,204.092 179.766,199.58 180.014,197.043 180.261,195.919 180.509,200.162 180.756,199.784 181.004,192.258 181.252,186.374 181.499,185.414 181.747,189.864 181.995,194.061 182.242,197.587 182.49,199.587 182.737,194.421 182.985,188.675 183.233,189.468 183.48,194.972 183.728,199.88 183.975,198.953 184.223,189.341 184.471,177.475 184.718,168.386 184.966,156.476 185.213,146.893 185.461,144.629 185.709,139.879 185.956,135.692 186.204,143.101 186.451,153.791 186.699,164.243 186.947,181.677 187.194,195.015 187.442,202.745 187.69,216.563 187.937,228.424 188.185,235.165 188.432,242.584 188.68,237.165 188.928,217.27 189.175,197.573 189.423,174.766 189.67,156.817 189.918,153.539 190.166,156.251 190.413,162.466 190.661,169.223 190.908,174.172 191.156,175.149 191.404,171.653 191.651,174.606 191.899,185.469 192.146,195.717 192.394,205.982 192.642,217.644 192.889,227.032 193.137,225.124 193.385,213.915 193.632,208.281 193.88,208.547 194.127,207.295 194.375,198.033 194.623,185.006 194.87,176.057 195.118,164.988 195.365,152.545 195.613,144.617 195.861,139.594 196.108,142.889 196.356,155.648 196.603,171.506 196.851,192.177 197.099,208.302 197.346,212.333 197.594,215.836 197.841,220.104 198.089,218.797 198.337,215.99 198.584,214.731 198.832,209.666 199.08,200.12 199.327,184.295 199.575,164.534 199.822,156.186 200.07,152.4 200.318,149.564 200.565,160.127 200.813,171.975 201.06,175.063 201.308,173.061 201.556,174.684 201.803,185.955 202.051,196.993 202.298,206.129 202.546,218.545 202.794,225.521 203.041,218.592 203.289,207.403 203.536,198.624 203.784,186.567 204.032,177.501 204.279,181.707 204.527,191.123 204.775,191.938 205.022,185.703 205.27,180.616 205.517,177.268 205.765,174.464 206.013,175.966 206.26,180.29 206.508,182.16 206.755,181.271 207.003,178.74 207.251,177.558 207.498,182.159 207.746,190.974 207.993,197.845 208.241,202.851 208.489,207.466 208.736,211.866 208.984,212.427 209.231,203.772 209.479,193.485 209.727,192.916 209.974,200.024 210.222,205.647 210.47,204.923 210.717,192.43 210.965,171.457 211.212,159.03 211.46,159.13 211.708,164.141 211.955,171.253 212.203,177.103 212.45,178.088 212.698,174.132 212.946,172.084 213.193,176.405 213.441,181.173 213.688,184.716 213.936,190.879 214.184,197.779 214.431,204.419 214.679,209.827 214.926,205.858 215.174,195.76 215.422,187.808 215.669,182.239 215.917,186.48 216.165,196.177 216.412,197.212 216.66,191.545 216.907,185.332 217.155,181.728 217.403,184.242 217.65,192.974 217.898,202.025 218.145,209.242 218.393,212.909 218.641,213.049 218.888,213.48 219.136,208.776 219.383,199.654 219.631,192.513 219.879,184.562 220.126,177.449 220.374,178.177 220.621,184.055 220.869,187.464 221.117,186.673 221.364,183.227 221.612,180.2 221.86,181.709 222.107,187.603 222.355,193.996 222.602,198.712 222.85,195.745 223.098,186.292 223.345,179.696 223.593,175.144 223.84,176.449 224.088,183.633 224.336,186.911 224.583,189.428 224.831,190.173 225.078,183.834 225.326,180.009 225.574,183.441 225.821,186.638 226.069,185.177 226.316,181.491 226.564,178.433 226.812,178.029 227.059,185.103 227.307,197.143 227.555,207.433 227.802,216.165 228.05,216.567 228.297,205.767 228.545,195.466 228.793,186.99 229.04,178.469 229.288,177.492 229.535,183.81 229.783,189.37 230.031,193.189 230.278,195.262 230.526,194.615 230.773,194.638 231.021,193.304 231.269,189.01 231.516,185.679 231.764,185.353 232.011,187.688 232.259,189.748 232.507,191.716 232.754,195.498 233.002,199.168 233.25,202.863 233.497,207.182 233.745,206.962 233.992,201.408 234.24,195.507 234.488,192.459 234.735,191.51 234.983,186.199 235.23,177.233 235.478,166.541 235.726,160.69 235.973,168.095 236.221,174.913 236.468,176.862 236.716,182.909 236.964,194.48 237.211,210.863 237.459,221.792 237.706,226.504 237.954,230.93 238.202,224.868 238.449,209.902 238.697,199.122 238.945,191.875 239.192,184.702 239.44,178.495 239.687,172.882 239.935,170.143 240.183,174.714 240.43,180.66 240.678,177.346 240.925,166.361 241.173,161.049 241.421,173.368 241.668,190.369 241.916,195.945 242.163,198.039 242.411,198.071 242.659,195.684 242.906,195.036 243.154,192.862 243.401,189.88 243.649,187.999 243.897,185.143 244.144,179.363 244.392,172.639 244.64,166.201 244.887,161.249 245.135,165.653 245.382,176.494 245.63,183.271 245.878,187.699 246.125,193.353 246.373,201.754 246.62,210.188 246.868,214.117 247.116,212.573 247.363,207.179 247.611,203.44 247.858,196.833 248.106,186.639 248.354,183.21 248.601,181.187 248.849,174.974 249.096,173.778 249.344,179.281 249.592,183.01 249.839,186.167 250.087,197.481 250.335,211.269 250.582,215.249 250.83,211.414 251.077,205.741 251.325,199.61 251.573,190.675 251.82,178.053 252.068,165.819 252.315,156.631 252.563,159.885 252.811,178.007 253.058,192.64 253.306,199.707 253.553,203.595 253.801,198.224 254.049,190.781 254.296,192.337 254.544,200.918 254.791,207.774 255.039,212.142 255.287,215.868 255.534,210.541 255.782,200.042 256.03,194.676 256.277,188.452 256.525,183.847 256.772,189.5 257.02,193.586 257.268,186.534 257.515,177.466 257.763,171.567 258.01,168.7 258.258,172.096 258.506,175.674 258.753,176.188 259.001,181.274 259.248,191.805 259.496,204.233 259.744,213.344 259.991,215.033 260.239,211.196 260.486,204.281 260.734,196.238 260.982,184.63 261.229,170.983 261.477,165.648 261.725,167.97 261.972,165.171 262.22,156.776 262.467,150.267 262.715,147.547 262.963,153.244 263.21,169.388 263.458,192.525 263.705,211.988 263.953,221.83 264.201,230.182 264.448,230.451 264.696,220.583 264.943,215.123 265.191,210.108 265.439,202.103 265.686,198.197 265.934,193.738 266.181,183.3 266.429,172.35 266.677,163.881 266.924,156.458 267.172,149.863 267.42,146.769 267.667,155.281 267.915,172.643 268.162,189.97 268.41,207.853 268.658,221.177 268.905,221.583 269.153,219.296 269.4,224.887 269.648,223.743 269.896,210.614 270.143,200.292 270.391,191.313 270.638,179.87 270.886,174.538 271.134,176.703 271.381,181.496 271.629,185.671 271.876,189.873 272.124,193.521 272.372,193.014 272.619,191.303 272.867,191.894 273.115,192.929 273.362,193.156 273.61,190.632 273.857,185.003 274.105,179.763 274.353,175.426 274.6,176.755 274.848,185.817 275.095,192.477 275.343,195.885 275.591,196.537 275.838,190.682 276.086,185.384 276.333,181.83 276.581,176.997 276.829,175.72 277.076,176.784 277.324,175.848 277.571,176.141 277.819,179.418 278.067,182.467 278.314,186.333 278.562,191.318 278.81,190.493 279.057,185.095 279.305,183.703 279.552,187.561 279.8,192.839 280.048,197.964 280.295,201.936 280.543,200.744 280.79,199.842 281.038,204.783 281.286,209.123 281.533,208.612 281.781,201.574 282.028,191.967 282.276,184.334 282.524,176.131 282.771,170.186 283.019,167.069 283.266,162.059 283.514,161.357 283.762,168.083 284.009,173.317 284.257,178.416 284.505,188.632 284.752,194.594 285,192.666 285.247,197.205 285.495,209.408 285.743,217.399 285.99,225.474 286.238,232.575 286.485,223.735 286.733,208.03 286.981,200.796 287.228,192.743 287.476,182.54 287.723,178.295 287.971,174.394 288.219,167.899 288.466,165.153 288.714,169.12 288.961,174.378 289.209,177.244 289.457,181.643 289.704,188.519 289.952,195.293 290.2,202.343 290.447,210.533 290.695,220.68 290.942,223.293 291.19,206.851 291.438,188.543 291.685,183.152 291.933,181.353 292.18,176.204 292.428,167.289 292.676,158.888 292.923,153.183 293.171,154.514 293.418,162.839 293.666,174.409 293.914,192.851 294.161,207.57 294.409,217.556 294.656,233.087 294.904,236.009 295.152,217.556 295.399,191.303 295.647,169.667 295.895,165.476 296.142,171.174 296.39,174.148 296.637,175.721 296.885,175.054 297.133,172.382 297.38,171.487 297.628,176.737 297.875,187.122 298.123,194.823 298.371,201.352 298.618,205.338 298.866,197.44 299.113,184.065 299.361,179.572 299.609,188.214 299.856,198.269 300.104,203.079 300.351,211.541 300.599,218.169 300.847,211.005 301.094,200.542 301.342,193.978 301.59,181.422 301.837,168.052 302.085,164.417 302.332,161.946 302.58,156.011 302.828,157.852 303.075,167.437 303.323,174.582 303.57,185.803 303.818,199.828 304.066,203.821 304.313,207.952 304.561,218.418 304.808,226.724 305.056,234.248 305.304,234.281 305.551,220.799 305.799,209.14 306.046,202.165 306.294,191.456 306.542,182.081 306.789,176.827 307.037,170.686 307.285,163.092 307.532,160.636 307.78,166.319 308.027,172.42 308.275,174.988 308.523,175.456 308.77,176.283 309.018,183.016 309.265,191.949 309.513,198.489 309.761,207.16 310.008,217.432 310.256,221.095 310.503,217.499 310.751,217.215 310.999,221.646 311.246,219.632 311.494,206.585 311.741,188.193 311.989,170.623 312.237,160.368 312.484,155.749 312.732,153.231 312.98,158.202 313.227,164.98 313.475,169.253 313.722,175.096 313.97,179.229 314.218,181.477 314.465,185.376 314.713,189.886 314.96,193.734 315.208,198.003 315.456,201.106 315.703,198.934 315.951,194.409 316.198,191.803 316.446,188.953 316.694,187.443 316.941,188.709 317.189,188.414 317.436,185.422 317.684,181.905 317.932,179.7 318.179,181.575 318.427,186.232 318.675,189.364 318.922,191.817 319.17,191.348 319.417,186.393 319.665,182.886 319.913,183.854 320.16,188.895 320.408,194.171 320.655,197.919 320.903,202.446 321.151,204.018 321.398,201.663 321.646,200.64 321.893,200.196 322.141,196.783 322.389,189.333 322.636,182.335 322.884,179.003 323.131,176.668 323.379,179.658 323.627,187.118 323.874,191.933 324.122,197.388 324.369,205.167 324.617,209.458 324.865,207.91 325.112,205.434 325.36,206.003 325.608,209.044 325.855,212.302 326.103,214.726 326.35,215.452 326.598,210.979 326.846,204.13 327.093,197.553 327.341,189.165 327.588,185.577 327.836,186.341 328.084,180.219 328.331,171.044 328.579,167.241 328.826,163.897 329.074,158.487 329.322,160.09 329.569,169.813 329.817,179.777 330.064,190.35 330.312,200.922 330.56,209.38 330.807,212.702 331.055,207.194 331.303,202.869 331.55,206.428 331.798,206.318 332.045,194.959 332.293,181.734 332.541,170.904 332.788,163.919 333.036,166.46 333.283,168.486 333.531,164.107 333.779,162.628 334.026,167.817 334.274,175.017 334.521,181.506 334.769,190.401 335.017,195.121 335.264,191.115 335.512,190.462 335.759,194.441 336.007,193.225 336.255,188.279 336.502,184.969 336.75,183.019 336.998,182.379 337.245,182.312 337.493,182.426 337.74,186.257 337.988,192.114 338.236,197.054 338.483,201.24 338.731,200.431 338.978,196.514 339.226,195.172 339.474,193.527 339.721,190.496 339.969,188.084 340.216,186.257 340.464,185.642 340.712,185.545 340.959,184.846 341.207,184.131 341.454,184.308 341.702,186.604 341.95,190.092 342.197,192.202 342.445,192.106 342.693,190.962 342.94,191.628 343.188,194.844 343.435,197.853 343.683,199.484 343.931,201.383 344.178,203.599 344.426,203.321 344.673,200.907 344.921,199.432 345.169,196.266 345.416,191.565 345.664,191.585 345.911,191.975 346.159,186.714 346.407,181.146 346.654,177.016 346.902,175.373 347.149,180.704 347.397,186.975 347.645,191.117 347.892,197.586 348.14,203.69 348.388,207.034 348.635,206.225 348.883,201.461 349.13,199.245 349.378,198.635 349.626,194.675 349.873,189.949 350.121,185.276 350.368,178.665 350.616,176.873 350.864,182.004 351.111,185.242 351.359,183.997 351.606,179.772 351.854,174.962 352.102,172.275 352.349,175.475 352.597,183.619 352.844,189.487 353.092,194.783 353.34,197.506 353.587,192.714 353.835,188.526 354.083,189.547 354.33,192.057 354.578,193.478 354.825,191.286 355.073,185.868 355.321,181.14 355.568,177.593 355.816,177.831 356.063,182.719 356.311,187.79 356.559,193.307 356.806,195.923 357.054,194.903 357.301,196.26 357.549,197.036 357.797,193.983 358.044,190.816 358.292,189.314 358.539,188.409 358.787,187.351 359.035,185.471 359.282,182.268 359.53,178.869 359.778,175.818 360.025,172.283 360.273,171.944 360.52,176.688 360.768,180.695 361.016,183.409 361.263,187.78 361.511,192.276 361.758,196.715 362.006,198.663 362.254,194.939 362.501,190.437 362.749,190.289 362.996,193.696 363.244,196.706 363.492,198.319 363.739,201.301 363.987,202.813 364.234,199.001 364.482,194.377 364.73,191.495 364.977,187.616 365.225,183.68 365.473,180.792 365.72,177.173 365.968,174.287 366.215,177.642 366.463,184.812 366.711,193.399 366.958,205.679 367.206,214.021 367.453,214.711 367.701,209.887 367.949,202.843 368.196,198.358 368.444,193.642 368.691,188.714 368.939,186.285 369.187,184.042 369.434,181.929 369.682,180.657 369.929,178.765 370.177,178.448 370.425,181.994 370.672,185.37 370.92,185.149 371.168,184.901 371.415,188.494 371.663,193.059 371.91,196.75 372.158,197.532 372.406,191.247 372.653,184.154 372.901,180.638 373.148,175.858 373.396,169.403 373.644,168.029 373.891,174.052 374.139,179.352 374.386,183.267 374.634,190.732 374.882,196.036 375.129,197.137 375.377,201.295 375.624,207.478 375.872,212.14 376.12,211.775 376.367,203.129 376.615,192.474 376.863,181.679 377.11,174.176 377.358,172.122 377.605,170.624 377.853,173.137 378.101,177.553 378.348,179.727 378.596,183.177 378.843,188.974 379.091,195.861 379.339,202.042 379.586,208.255 379.834,211.635 380.081,206.779 380.329,200.366 380.577,197.883 380.824,197.007 381.072,197.799 381.319,197.91 381.567,197.041 381.815,196.33 382.062,192.65 382.31,187.45 382.558,183.763 382.805,179.398 383.053,175.354 383.3,177.238 383.548,182.364 383.796,184.954 384.043,188.205 384.291,193.395 384.538,198.32 384.786,204.18 385.034,211.108 385.281,214.704 385.529,211.649 385.776,207.69 386.024,205.519 386.272,200.039 386.519,192.972 386.767,186.908 387.014,179.258 387.262,171.879 387.51,166.787 387.757,162.956 388.005,160.471 388.253,160.164 388.5,162.986 388.748,166.084 388.995,167.743 389.243,172.568 389.491,181.01 389.738,187.396 389.986,190.131 390.233,189.73 390.481,191.032 390.729,198.167 390.976,204.199 391.224,208.162 391.471,212.774 391.719,208.837 391.967,196.216 392.214,187.024 392.462,179.387 392.709,167.865 392.957,160.212 393.205,161.5 393.452,163.46 393.7,162.95 393.948,167.163 394.195,174.456 394.443,180.142 394.69,185.754 394.938,188.33 395.186,187.062 395.433,188.413 395.681,192.642 395.928,195.951 396.176,196.318 396.424,193.52 396.671,192.466 396.919,196.525 397.166,201.574 397.414,205.502 397.662,205.416 397.909,197.776 398.157,188.472 398.404,179.628 398.652,174.783 398.9,177.639 399.147,178.354 399.395,174.862 399.643,172.857 399.89,171.884 400.138,173.626 400.385,178.639 400.633,183.12 400.881,188.734 401.128,196.724 401.376,205.44 401.623,214.72 401.871,218.988 402.119,217.106 402.366,217.531 402.614,220.592 402.861,223.23 403.109,222.839 403.357,209.74 403.604,193.911 403.852,189.824 404.099,183.039 404.347,173.319 404.595,175.63 404.842,182.088 405.09,181.94 405.338,178.406 405.585,175.833 405.833,173.208 406.08,172.641 406.328,178.956 406.576,186.886 406.823,191.835 407.071,200.748 407.318,212.63 407.566,216.852 407.814,217.2 408.061,221.918 408.309,223.827 408.556,218.568 408.804,213.34 409.052,210.291 409.299,205.559 409.547,196.979 409.794,185.613 410.042,177.635 410.29,175.049 410.537,171.124 410.785,164.119 411.033,157.322 411.28,154.604 411.528,160.459 411.775,169.01 412.023,177.515 412.271,189.794 412.518,198.037 412.766,203.015 413.013,209.859 413.261,210.48 413.509,206.987 413.756,206.956 414.004,205.939 414.251,200.211 414.499,193.33 414.747,186.864 414.994,177.8 415.242,168.926 415.489,166.199 415.737,168.129 415.985,170.015 416.232,171.105 416.48,173.391 416.728,176.532 416.975,179.38 417.223,182.067 417.47,185.718 417.718,194.162 417.966,205.918 418.213,213.294 418.461,213.329 418.708,208.239 418.956,202.861 419.204,197.611 419.451,190.305 419.699,184.136 419.946,179.101 420.194,173.961 420.442,173.12 420.689,176.098 420.937,179.949 421.184,187.252 421.432,197.189 421.68,203.474 421.927,205.668 422.175,205.116 422.423,200.844 422.67,198.624 422.918,198.643 423.165,194.726 423.413,188.868 423.661,184.165 423.908,178.45 424.156,170.364 424.403,166.09 424.651,171.686 424.899,179.769 425.146,183.94 425.394,189.359 425.641,197.268 425.889,203.542 426.137,207.219 426.384,208.719 426.632,205.822 426.879,200.597 427.127,199.128 427.375,200.473 427.622,198.188 427.87,191.149 428.118,185.002 428.365,181.248 428.613,176.457 428.86,172.868 429.108,175.209 429.356,179.364 429.603,181.415 429.851,184.645 430.098,187.651 430.346,187.391 430.594,188.963 430.841,194.832 431.089,199.4 431.336,201.883 431.584,205.983 431.832,208.844 432.079,205.057 432.327,198.866 432.574,194.972 432.822,187.144 433.07,177.565 433.317,175.054 433.565,173.391 433.813,170.399 434.06,174.241 434.308,180.561 434.555,186.445 434.803,195.39 435.051,199.928 435.298,200.126 435.546,203.455 435.793,203.565 436.041,197.758 436.289,192.383 436.536,189.684 436.784,188.724 437.031,184.475 437.279,177.172 437.527,171.683 437.774,167.311 438.022,167.177 438.269,171.747 438.517,173.455 438.765,172.593 439.012,174.418 439.26,179.043 439.508,184.469 439.755,190.539 440.003,194.396 440.25,194.713 440.498,196.607 440.746,200.291 440.993,202.203 441.241,200.442 441.488,196.353 441.736,193.628 441.984,192.308 442.231,191.407 442.479,190.531 442.726,189.506 442.974,187.914 443.222,185.278 443.469,182.763 443.717,180.208 443.964,179.618 444.212,183.22 444.46,186.608 444.707,188.591 444.955,191.875 445.203,195.359 445.45,198.517 445.698,201.759 445.945,201.298 446.193,196.417 446.441,192.589 446.688,190.257 446.936,187.53 447.183,185.005 447.431,182.262 447.679,179.928 447.926,180.567 448.174,183.22 448.421,184.75 448.669,186.161 448.917,188.062 449.164,192.118 449.412,200.195 449.659,205.907 449.907,204.636 450.155,200.758 450.402,198.236 450.65,195.542 450.898,192.101 451.145,189.565 451.393,187.217 451.64,184.329 451.888,181.938 452.136,182.569 452.383,185.853 452.631,187.932 452.878,190.983 453.126,197.639 453.374,203.72 453.621,208.379 453.869,209.313 454.116,203.548 454.364,198.29 454.612,195.024 454.859,189.811 455.107,185.03 455.354,181.203 455.602,177.077 455.85,173.22 456.097,169.121 456.345,165.934 456.593,168.043 456.84,173.182 457.088,175.95 457.335,178.862 457.583,185.351 457.831,193.111 458.078,197.672 458.326,199.301 458.573,200.343 458.821,201.039 459.069,202.249 459.316,202.467 459.564,198.687 459.811,193.262 460.059,187.985 460.307,182.53 460.554,180.509 460.802,180.313 461.049,178.219 461.297,176.437 461.545,176.891 461.792,179.578 462.04,182.342 462.288,184.817 462.535,188.977 462.783,193.517 463.03,195.106 463.278,192.955 463.526,191.486 463.773,193.472 464.021,195.609 464.268,194.985 464.516,192.811 464.764,191.196 465.011,190.922 465.259,192.805 465.506,195.167 465.754,193.933 466.002,189.757 466.249,186.816 466.497,186.482 466.744,187.629 466.992,188.326 467.24,187.977 467.487,187.122 467.735,186.512 467.983,187.74 468.23,190.352 468.478,192.517 468.725,194.278 468.973,193.842 469.221,190.737 469.468,188.275 469.716,186.701 469.963,186.585 470.211,188.211 470.459,188.546 470.706,187.466 470.954,186.7 471.201,186.159 471.449,186.374 471.697,188.011 471.944,189.642 472.192,190.642 472.439,191.063 472.687,190.94 472.935,191.05 473.182,190.941 473.43,190.481 473.678,190.205 473.925,188.911 474.173,186.372 474.42,184.004 474.668,180.917 474.916,178.1 475.163,180.251 475.411,185.141 475.658,187.857 475.906,190.956 476.154,195.888 476.401,199.395 476.649,198.504 476.896,195.491 477.144,194.28 477.392,192.367 477.639,188.783 477.887,186.702 478.134,185.687 478.382,184.002 478.63,182.133 478.877,180.712 479.125,182.228 479.373,187.215 479.62,190.758 479.868,192.978 480.115,196.189 480.363,195.396 480.611,189.932 480.858,186.842 481.106,187.307 481.353,187.609 481.601,186.936 481.849,186.089 482.096,185.067 482.344,183.929 482.591,183.575 482.839,184.665 483.087,186.002 483.334,186.612 483.582,187.331 483.829,187.605 484.077,186.144 484.325,184.425 484.572,184.897 484.82,186.868 485.068,188.164 485.315,189.307 485.563,191.08 485.81,191.44 486.058,189.796 486.306,188.505 486.553,187.586 486.801,186.489 487.048,186.611 487.296,187.228 487.544,187.356 487.791,188.245 488.039,188.928 488.286,187.808 488.534,186.766 488.782,186.413 489.029,185.41 489.277,184.615 489.524,185.786 489.772,187.921 490.02,189.307 490.267,190.745 490.515,192.389 490.763,193.779 491.01,194.939 491.258,194.568 491.505,193.154 491.753,192.484 492.001,191.778 492.248,190.447 492.496,189.933 492.743,191.188 492.991,193.124 493.239,193.935 493.486,192.162 493.734,188.809 493.981,186.774 494.229,187.765 494.477,190.873 494.724,193.365 494.972,195.418 495.219,195.525 495.467,192.095 495.715,189.451 495.962,188.141 496.21,186.072 496.458,185.819 496.705,187.8 496.953,189.008 497.2,189.705 497.448,190.954 497.696,191.913 497.943,191.597 498.191,190.38 498.438,189.475 498.686,189.219 498.934,190.01 499.181,191.145 499.429,191.337 499.676,191.146 499.924,191.279 500.172,191.393 500.419,191.29 500.667,190.804 500.914,189.711 501.162,189.004 501.41,190.45 501.657,193.253 501.905,195.424 502.153,196.938 502.4,195.612 502.648,191.908 502.895,190.212 503.143,190.625 503.391,192.497 503.638,194.746 503.886,194.954 504.133,193.631 504.381,192.777 504.629,193.415 504.876,195.228 505.124,196.041 505.371,195.577 505.619,195.633 505.867,194.559 506.114,191.647 506.362,189.278 506.609,186.986 506.857,184.106 507.105,183.518 507.352,185.465 507.6,186.63 507.847,187.592 508.095,189.927 508.343,192.153 508.59,193.786 508.838,195.557 509.086,197.272 509.333,197.533 509.581,196.453 509.828,195.989 510.076,195.434 510.324,192.558 510.571,188.65 510.819,185.24 511.066,179.425 511.314,172.576 511.562,170.292 511.809,172.627 512.057,176.387 512.304,179.3 512.552,183.45 512.8,190.507 513.047,195.885 513.295,198.353 513.542,200.816 513.79,202.268 514.038,202.975 514.285,202.56 514.533,198.32 514.781,193.588 515.028,190.286 515.276,185.898 515.523,180.963 515.771,175.932 516.019,175.124 516.266,182.048 516.514,188.547 516.761,192.719 517.009,198.398 517.257,202.978 517.504,205.92 517.752,205.354 517.999,201.12 518.247,198.363 518.495,196.201 518.742,191.525 518.99,185.208 519.237,180.627 519.485,178.226 519.733,174.285 519.98,173.568 520.228,180.496 520.476,186.595 520.723,188.915 520.971,192.3 521.218,196.667 521.466,200.614 521.714,204.287 521.961,204.366 522.209,199.659 522.456,195.744 522.704,193.122 522.952,189.154 523.199,184.863 523.447,181.639 523.694,182 523.942,184.584 524.19,185.569 524.437,186.676 524.685,189.07 524.932,190.092 525.18,188.354 525.428,186.013 525.675,184.622 525.923,182.646 526.171,180.421 526.418,180.709 526.666,183 526.913,184.48 527.161,185.525 527.409,186.871 527.656,187.906 527.904,189.42 528.151,191.958 528.399,194.675 528.647,195.673 528.894,194.075 529.142,192.439 529.389,191.686 529.637,190.265 529.885,188.433 530.132,186.592 530.38,184.68 530.627,182.69 530.875,180.714 531.123,181.046 531.37,184.082 531.618,186.479 531.866,188.143 532.113,190.099 532.361,191.654 532.608,193.231 532.856,195.079 533.104,195.635 533.351,194.201 533.599,192.951 533.846,192.324 534.094,190.949 534.342,189.229 534.589,187.724 534.837,186.21 535.084,184.613 535.332,182.872 535.58,181.663 535.827,182.404 536.075,183.999 536.322,184.846 536.57,185.863 536.818,186.285 537.065,185.269 537.313,185.972 537.561,189.062 537.808,191.409 538.056,193.251 538.303,196.128 538.551,198.688 538.799,197.938 539.046,194.482 539.294,192 539.541,189.986 539.789,188.212 540.037,187.874 540.284,187.316 540.532,186.389 540.779,185.921 541.027,185.29 541.275,184.591 541.522,185.434 541.77,187.899 542.017,189.923 542.265,191.859 542.513,194.982 542.76,196.8 543.008,194.819 543.256,191.84 543.503,190.556 543.751,189.916 543.998,189.209 544.246,188.437 544.494,187.599 544.741,186.661 544.989,185.61 545.236,184.597 545.484,184.6 545.732,186.058 545.979,187.309 546.227,188.143 546.474,189.327 546.722,190.411 546.97,191.491 547.217,191.885 547.465,190.838 547.712,189.861 547.96,189.239 548.208,188.617 548.455,189.183 548.703,190.409 548.951,190.63 549.198,189.624 549.446,188.424 549.693,187.593 549.941,186.372 550.189,185.714 550.436,187.466 550.684,189.893 550.931,191.507 551.179,193.44 551.427,193.881 551.674,191.697 551.922,190.574 552.169,191.884 552.417,193.301 552.665,193.605 552.912,193.307 553.16,193.149 553.407,193.304 553.655,192.282 553.903,189.124 554.15,186.136 554.398,184.039 554.646,181.7 554.893,181.683 555.141,184.394 555.388,186.173 555.636,187.533 555.884,189.824 556.131,191.875 556.379,193.725 556.626,195.759 556.874,197.967 557.122,200.064 557.369,198.924 557.617,194.013 557.864,189.797 558.112,187.854 558.36,187.701 558.607,187.77 558.855,186.13 559.102,183.655 559.35,182.061 559.598,182.768 559.845,184.867 560.093,186.181 560.341,187.348 560.588,188.759 560.836,189.774 561.083,190.859 561.331,192.011 561.579,193.193 561.826,194.122 562.074,192.991 562.321,190.315 562.569,188.321 562.817,186.857 563.064,186.502 563.312,187.145 563.559,187.05 563.807,187.354 564.055,189.472 564.302,191.994 564.55,194.158 564.797,195.703 565.045,194.411 565.293,191.576 565.54,190.015 565.788,188.063 566.036,185.547 566.283,185.361 566.531,186.989 566.778,187.817 567.026,188.539 567.274,189.509 567.521,189.272 567.769,188.711 568.016,188.643 568.264,188.307 568.512,187.947 568.759,188.05 569.007,188.171 569.254,188.134 569.502,188.196 569.75,188.492 569.997,189.041 570.245,189.386 570.492,188.836 570.74,187.864 570.988,187.232 571.235,186.406 571.483,186.324 571.731,188.067 571.978,189.695 572.226,190.72 572.473,192.341 572.721,194.022 572.969,194.283 573.216,193.204 573.464,192.478 573.711,191.992 573.959,190.86 574.207,190.514 574.454,192.308 574.702,194.198 574.949,193.367 575.197,191.055 575.445,189.638 575.692,188.186 575.94,187.394 576.187,188.77 576.435,190.021 576.683,189.525 576.93,188.076 577.178,186.754 577.426,186.802 577.673,188.511 577.921,190.041 578.168,191.065 578.416,192.428 578.664,192.376 578.911,190.724 579.159,189.643 579.406,188.766 579.654,187.201 579.902,186.289 580.149,187.064 580.397,188.213 580.644,188.877 580.892,189.61 581.14,189.282 581.387,187.797 581.635,186.707 581.882,186.358 582.13,187.468 582.378,189.299 582.625,190.559 582.873,191.872 583.121,192.305 583.368,191.576 583.616,191.334 583.863,191.308 584.111,190.507 584.359,188.513 584.606,186.052 584.854,184.414 585.101,183.022 585.349,181.043 585.597,179.236 585.844,180.448 586.092,184.85 586.339,188.617 586.587,191.792 586.835,193.504 587.082,192.002 587.33,190.887 587.577,191.256 587.825,191.714 588.073,191.556 588.32,190.181 588.568,188.772 588.816,187.883 589.063,188.573 589.311,191.416 589.558,194.083 589.806,195.552 590.054,195.146 590.301,193.582 590.549,192.804 590.796,191.389 591.044,189.002 591.292,187.014 591.539,185.012 591.787,184.432 592.034,186.326 592.282,187.902 592.53,188.687 592.777,190.027 593.025,191.39 593.272,192.693 593.52,193.877 593.768,193.633 594.015,192.309 594.263,191.549 594.511,190.86 594.758,189.718 595.006,188.638 595.253,187.528 595.501,186.323 595.749,185.014 595.996,183.942 596.244,184.554 596.491,186.412 596.739,188.127 596.987,190.21 597.234,190.9 597.482,189.406 597.729,189.304 597.977,191.103 598.225,192.92 598.472,194.598 598.72,194.199 598.967,191.454 599.215,189.781 599.463,189.22 599.71,189.405 599.958,190.833 600.206,191.75 600.453,192.446 600.701,192.599 600.948,190.725 601.196,188.918 601.444,187.974 601.691,185.957 601.939,183.89 602.186,184.077 602.434,184.976 602.682,184.605 602.929,183.919 603.177,183.469 603.424,184.157 603.672,186.855 603.92,189.495 604.167,191.198 604.415,192.727 604.662,193.6 604.91,194.016 605.158,194.236 605.405,193.505 605.653,192.209 605.901,190.833 606.148,190.087 606.396,190.796 606.643,191.473 606.891,190.775 607.139,189.394 607.386,188.597 607.634,188.042 607.881,187.666 608.129,188.634 608.377,189.949 608.624,190.32 608.872,189.828 609.119,189.272 609.367,189.364 609.615,189.854 609.862,190.818 610.11,192.31 610.357,192.821 610.605,191.151 610.853,189.101 611.1,187.646 611.348,185.447 611.596,184.492 611.843,186.418 612.091,188.184 612.338,188.211 612.586,187.426 612.834,186.877 613.081,187.749 613.329,189.693 613.576,191.221 613.824,192.458 614.072,194.157 614.319,195.809 614.567,195.637 614.814,193.599 615.062,192.236 615.31,191.834 615.557,192.242 615.805,193.53 616.052,193.59 616.3,192.651 616.548,191.991 616.795,190.587 617.043,188.33 617.291,186.351 617.538,185.215 617.786,184.697 618.033,184.905 618.281,185.707 618.529,186.422 618.776,187.487 619.024,189.17 619.271,190.947 619.519,192.628 619.767,194.823 620.014,196.211 620.262,194.647 620.509,191.618 620.757,190.33 621.005,190.921 621.252,189.434 621.5,186.046 621.747,184.664 621.995,185.489 622.243,187.141 622.49,188.007 622.738,186.871 622.986,184.827 623.233,183.976 623.481,185.012 623.728,186.489 623.976,187.044 624.224,187.563 624.471,188.474 624.719,188.98 624.966,189.735 625.214,191.516 625.462,192.777 625.709,191.869 625.957,190.348 626.204,189.616 626.452,188.354 626.7,186.906 626.947,187.467 627.195,189.1 627.442,189.821 627.69,189.997 627.938,189.182 628.185,187.657 628.433,186.83 628.681,186.382 628.928,186.486 629.176,186.855 629.423,186.36 629.671,185.627 629.919,185.447 630.166,186.176 630.414,187.621 630.661,188.674 630.909,189.244 631.157,189.808 631.404,190.383 631.652,190.938 631.899,191.479 632.147,191.809 632.395,191.886 632.642,192.167 632.89,192.847 633.137,193.44 633.385,193.675 633.633,193.248 633.88,191.74 634.128,189.909 634.376,188.172 634.623,186.982 634.871,186.884 635.118,186.766 635.366,186.605 635.614,186.877 635.861,187.076 636.109,187.545 636.356,188.086 636.604,187.877 636.852,187.559 637.099,187.764 637.347,187.756 637.594,187.227 637.842,186.609 638.09,186.905 638.337,188.976 638.585,191.651 638.832,194.094 639.08,194.827 639.328,192.677 639.575,190.852 639.823,190.136 640.071,188.86 640.318,188.005 640.566,187.541 640.813,187.572 641.061,188.897 641.309,190.358 641.556,191.342 641.804,191.201 642.051,189.876 642.299,189.224 642.547,189.067 642.794,188.554 643.042,188.403 643.289,188.48 643.537,188.013 643.785,187.202 644.032,187.045 644.28,188.139 644.527,189.542 644.775,190.625 645.023,191.029 645.27,190.081 645.518,189.036 645.766,188.287 646.013,188.055 646.261,189.478 646.508,190.831 646.756,191.249 647.004,192.061 647.251,193.14 647.499,194.287 647.746,193.733 647.994,189.953 648.242,186.527 648.489,184.774 648.737,182.067 648.984,180.313 649.232,182.293 649.48,184.827 649.727,186.153 649.975,188.5 650.222,191.448 650.47,193.585 650.718,195.21 650.965,196.912 651.213,196.98 651.461,194.398 651.708,192.119 651.956,190.642 652.203,188.488 652.451,186.344 652.699,184.241 652.946,182.251 653.194,182.915 653.441,186.013 653.689,188.14 653.937,190.437 654.184,194.136 654.432,196.279 654.679,196.595 654.927,196.577 655.175,196.029 655.422,195.399 655.67,194.846 655.917,194.056 656.165,192.644 656.413,190.016 656.66,187.541 656.908,187.147 657.156,188.029 657.403,188.122 657.651,187.765 657.898,187.771 658.146,188.303 658.394,190.199 658.641,192.689 658.889,194.145 659.136,194.404 659.384,193.844 659.632,193.059 659.879,192.422 660.127,191.679 660.374,190.829 660.622,189.263 660.87,186.957 661.117,187.128 661.365,190.097 661.612,192.182 661.86,192.812 662.108,191.694 662.355,189.147 662.603,188.041 662.851,188.329 663.098,188.338 663.346,187.614 663.593,186.068 663.841,184.359 664.089,182.734 664.336,182.387 664.584,184.554 664.831,186.645 665.079,187.904 665.327,189.56 665.574,190.468 665.822,190.91 666.069,192.17 666.317,193.791 666.565,194.954 666.812,195.787 667.06,195.784 667.307,193.526 667.555,190.505 667.803,188.8 668.05,187.091 668.298,184.712 668.546,183.532 668.793,183.831 669.041,183.804 669.288,183.289 669.536,183.549 669.784,185.586 670.031,188.361 670.279,190.151 670.526,192.124 670.774,193.502 671.022,192.481 671.269,191.415 671.517,191.861 671.764,193.038 672.012,193.156 672.26,191.354 672.507,189.732 672.755,188.581 673.002,187.371 673.25,188.035 673.498,189.656 673.745,189.377 673.993,188.293 674.241,187.93 674.488,188.227 674.736,189.563 674.983,190.644 675.231,190.48 675.479,189.904 675.726,189.127 675.974,187.713 676.221,185.391 676.469,184.5 676.717,186.303 676.964,187.692 677.212,188.148 677.459,188.789 677.707,188.691 677.955,188.615 678.202,189.527 678.45,190.407 678.697,191.12 678.945,191.727 679.193,190.648 679.44,188.392 679.688,187.418 679.936,187.743 680.183,187.97 680.431,187.649 680.678,187.173 680.926,186.781 681.174,186.748 681.421,187.184 681.669,187.326 681.916,187.101 682.164,187.294 682.412,188.015 682.659,188.709 682.907,189.344 683.154,189.715 683.402,189.003 683.65,187.839 683.897,187.143 684.145,187.126 684.392,187.842 684.64,188.642 684.888,189.545 685.135,190.254 685.383,190.188 685.631,190.209 685.878,190.479 686.126,190.523 686.373,190.569 686.621,190.828 686.869,191.305 687.116,191.214 687.364,190.109 687.611,189.118 687.859,188.449 688.107,187.519 688.354,186.543 688.602,185.61 688.849,185.6 689.097,186.965 689.345,188.236 689.592,189.387 689.84,191.133 690.087,193.112 690.335,194.773 690.583,194.777 690.83,193.518 691.078,192.815 691.325,192.731 691.573,193.281 691.821,193.89 692.068,193.26 692.316,191.826 692.564,190.199 692.811,188.648 693.059,189.01 693.306,190.989 693.554,191.44 693.802,190.639 694.049,190.598 694.297,190.662 694.544,190.511 694.792,191.144 695.04,192.113 695.287,192.733 695.535,192.724 695.782,191.83 696.03,191.02 696.278,190.551 696.525,189.729 696.773,188.537 697.02,187.206 697.268,185.947 697.516,184.515 697.763,184.295 698.011,186.717 698.259,189.364 698.506,192.008 698.754,196.032 699.001,198.799 699.249,198.307 699.497,196.064 699.744,194.072 699.992,192.138 700.239,191.051 700.487,191.922 700.735,191.803 700.982,189.089 701.23,186.551 701.477,185.486 701.725,185.188 701.973,185.651 702.22,186.359 702.468,187.373 702.715,188.741 702.963,189.646 703.211,190.549 703.458,191.26 703.706,190.788 703.954,190.102 704.201,189.994 704.449,189.71 704.696,189.294 704.944,189.364 705.192,189.332 705.439,188.058 705.687,186.285 705.934,185.099 706.182,184.503 706.43,185.337 706.677,186.879 706.925,187.682 707.172,188.701 707.42,189.554 707.668,189.151 707.915,188.85 708.163,188.815 708.41,187.653 708.658,185.913 708.906,185.049 709.153,185.091 709.401,184.962 709.649,185.094 709.896,186.929 710.144,189.266 710.391,190.744 710.639,192.244 710.887,194.013 711.134,194.704 711.382,193.455 711.629,191.781 711.877,190.429 712.125,188.975 712.372,188.447 712.62,188.44 712.867,187.968 713.115,187.759 713.363,187.992 713.61,188.625 713.858,189.695 714.105,190.306 714.353,190.087 714.601,189.775 714.848,189.781 715.096,189.818 715.344,189.773 715.591,189.751 715.839,189.76 716.086,189.771 716.334,189.773 716.582,189.782 716.829,189.716 717.077,189.805 717.324,190.804 717.572,192.416 717.82,192.847 718.067,191.968 718.315,191.376 718.562,190.612 718.81,189.215 719.058,188.885 719.305,189.476 719.553,189.602 719.8,189.949 720.048,190.918 720.296,191.597 720.543,191.33 720.791,190.405 721.039,189.749 721.286,189.164 721.534,188.532 721.781,188.501 722.029,188.301 722.277,187.368 722.524,186.529 722.772,186.485 723.019,187.408 723.267,188.415 723.515,188.992 723.762,189.63 724.01,190.452 724.257,191.605 724.505,192.529 724.753,192.093 725,191.145 725.248,190.747 725.495,190.138 725.743,189.183 725.991,188.284 726.238,187.18 726.486,186.307 726.734,186.833 726.981,188.113 727.229,188.668 727.476,189.088 727.724,189.984 727.972,190.958 728.219,191.776 728.467,192.364 728.714,192.709 728.962,191.742 729.21,189.361 729.457,187.219 729.705,185.326 729.952,184.869 730.2,186.746 730.448,187.794 730.695,187.522 730.943,187.953 731.19,188.593 731.438,189.171 731.686,190.217 731.933,191.325 732.181,192.277 732.429,192.179 732.676,190.784 732.924,189.535 733.171,187.536 733.419,184.983 733.667,184.637 733.914,185.174 734.162,184.663 734.409,184.447 734.657,184.601 734.905,184.946 735.152,186.21 735.4,187.702 735.647,189.565 735.895,191.751 736.143,192.755 736.39,192.511 736.638,191.641 736.885,190.813 737.133,190.044 737.381,188.284 737.628,186.056 737.876,184.876 738.124,184.351 738.371,184.688 738.619,186.39 738.866,188.268 739.114,190.527 739.362,192.515 739.609,192.739 739.857,191.609 740.104,190.399 740.352,190.11 740.6,189.955 740.847,190.131 741.095,191.118 741.342,190.945 741.59,189.704 741.838,189.012 742.085,188.498 742.333,188.475 742.58,189.27 742.828,189.613 743.076,189.453 743.323,189.521 743.571,189.696 743.819,189.624 744.066,188.865 744.314,187.628 744.561,186.476 744.809,185.976 745.057,187.161 745.304,188.964 745.552,189.604 745.799,189.938 746.047,190.774 746.295,191.666 746.542,192.466 746.79,192.753 747.037,192.432 747.285,192.387 747.533,191.746 747.78,189.46 748.028,186.804 748.275,185.54 748.523,186.207 748.771,186.627 749.018,185.981 749.266,185.97 749.514,186.149 749.761,186.354 750.009,187.867 750.256,189.977 750.504,191.529 750.752,192.397 750.999,192.605 751.247,192.171 751.494,191.159 751.742,190.251 751.99,189.5 752.237,188.428 752.485,187.918 752.732,188.625 752.98,189.36 753.228,189.744 753.475,190.131 753.723,190.001 753.97,189.652 754.218,189.62 754.466,189.996 754.713,190.75 754.961,190.992 755.209,190.422 755.456,190.297 755.704,190.754 755.951,190.731 756.199,190.525 756.447,190.6 756.694,190.62 756.942,191.104 757.189,192.416 757.437,193.356 757.685,193.632 757.932,193.956 758.18,193.857 758.427,193.157 758.675,192.378 758.923,190.995 759.17,188.108 759.418,185.783 759.665,185.946 759.913,186.204 760.161,186.055 760.408,187.149 760.656,189.53 760.904,192.19 761.151,193.537 761.399,194.551 761.646,196.076 761.894,195.188 762.142,192.061 762.389,190.164 762.637,189.023 762.884,187.982 763.132,187.836 763.38,187.573 763.627,187.241 763.875,187.347 764.122,187.489 764.37,188.045 764.618,188.947 764.865,189.667 765.113,190.358 765.36,190.548 765.608,190.072 765.856,189.802 766.103,189.632 766.351,189.273 766.599,189.078 766.846,188.956 767.094,188.749 767.341,188.572 767.589,188.413 767.837,188.227 768.084,188.04 768.332,187.835 768.579,187.691 768.827,187.673 769.075,187.791 769.322,188.083 769.57,188.065 769.817,187.553 770.065,187.229 770.313,187.23 770.56,187.194 770.808,188.114 771.055,190.464 771.303,192.482 771.551,192.756 771.798,191.598 772.046,190.328 772.294,188.359 772.541,186.323 772.789,186.754 773.036,187.75 773.284,187.437 773.532,186.953 773.779,186.487 774.027,186.31 774.274,187.109 774.522,188.138 774.77,188.849 775.017,190.023 775.265,191.747 775.512,192.587 775.76,191.497 776.008,189.914 776.255,189.066 776.503,188.342 776.75,187.686 776.998,187.105 777.246,186.484 777.493,185.967 777.741,185.473 777.989,185.322 778.236,185.546 778.484,185.902 778.731,186.712 778.979,187.679 779.227,188.395 779.474,189.162 779.722,190.12 779.969,190.984 780.217,191.02 780.465,190.385 780.712,190.136 780.96,190.605 781.207,191.506 781.455,191.675 781.703,190.874 781.95,189.761 782.198,187.905 782.445,186.845 782.693,187.163 782.941,186.776 783.188,186.342 783.436,186.562 783.684,186.392 783.931,186.845 784.179,189.12 784.426,191.636 784.674,193.552 784.922,196.032 785.169,197.153 785.417,195.246 785.664,193.678 785.912,193.385 786.16,192.387 786.407,190.701 786.655,188.554 786.902,186.476 787.15,185.025 787.398,183.483 787.645,182.692 787.893,183.965 788.14,185.71 788.388,187.596 788.636,188.992 788.883,188.236 789.131,187.56 789.379,188.461 789.626,189.812 789.874,191.07 790.121,191.367 790.369,190.12 790.617,189.02 790.864,188.796 791.112,188.902 791.359,189.619 791.607,189.713 791.855,188.716 792.102,188.401 792.35,188.754 792.597,188.899 792.845,189.266 793.093,189.889 793.34,190.175 793.588,189.737 793.835,188.978 794.083,188.56 794.331,188.252 794.578,187.799 794.826,187.422 795.074,187.285 795.321,187.228 795.569,187.106 795.816,187.066 796.064,187.091 796.312,187.036 796.559,187.05 796.807,187.761 797.054,189.096 797.302,190.026 797.55,190.643 797.797,191.569 798.045,192.639 798.292,193.385 798.54,193.419 798.788,193.358 799.035,193.13 799.283,191.437 799.53,189.296 799.778,187.898 800.026,186.97 800.273,187.197 800.521,187.93 800.769,188.119 801.016,188.692 801.264,189.801 801.511,190.753 801.759,191.392 802.007,191.6 802.254,191.188 802.502,190.317 802.749,189.448 802.997,189.177 803.245,189.767 803.492,190.283 803.74,189.66 803.987,188.31 804.235,187.183 804.483,186.54 804.73,186.51 804.978,186.642 805.225,186.463 805.473,186.437 805.721,186.518 805.968,186.451 806.216,186.309 806.464,185.838 806.711,185.239 806.959,185.409 807.206,186.17 807.454,186.654 807.702,186.673 807.949,186.303 808.197,185.998 808.444,186.081 808.692,186.068 808.94,185.593 809.187,185.067 809.435,184.72 809.682,184.118 809.93,183.669 810.178,185.844 810.425,189.962 810.673,191.286 810.92,190.466 811.168,190.509 811.416,190.028 811.663,189.165 811.911,189.63 812.159,190.529 812.406,191.526 812.654,192.921 812.901,194.133 813.149,195.317 813.397,196.278 813.644,196.486 813.892,196.046 814.139,195.119 814.387,194.219 814.635,193.428 814.882,192.467 815.13,191.518 815.377,190.625 815.625,189.573 815.873,188.782 816.12,189.444 816.368,190.936 816.615,191.876 816.863,192.503 817.111,192.296 817.358,191.248 817.606,191.182 817.854,192.418 818.101,192.985 818.349,192.454 818.596,192.138 818.844,191.515 819.092,190.438 819.339,189.632 819.587,188.702 819.834,187.878 820.082,187.69 820.33,187.514 820.577,187.637 820.825,188.817 821.072,189.999 821.32,190.833 821.568,191.915 821.815,193.087 822.063,193.916 822.31,193.118 822.558,191.272 822.806,190.603 823.053,190.145 823.301,188.924 823.549,188.74 823.796,189.847 824.044,190.621 824.291,191.156 824.539,192.119 824.787,193.116 825.034,193.579 825.282,193.338 825.529,192.987 825.777,192.711 826.025,192.205 826.272,191.378 826.52,190.386 826.767,189.371 827.015,188.204 827.263,187.486 827.51,187.718 827.758,188.196 828.005,189.032 828.253,190.353 828.501,190.826 828.748,190.746 828.996,191.209 829.244,191.547 829.491,191.285 829.739,190.909 829.986,190.691 830.234,190.462 830.482,190.193 830.729,190.035 830.977,189.312 831.224,187.919 831.472,187.534 831.72,188.057 831.967,188.513 832.215,188.981 832.462,188.928 832.71,188.762 832.958,189.022 833.205,189.298 833.453,189.557 833.7,189.821 833.948,190.169 834.196,190.383 834.443,189.616 834.691,188.61 834.939,188.693 835.186,189.26 835.434,189.795 835.681,189.839 835.929,189.229 836.177,188.893 836.424,188.409 836.672,187.412 836.919,187.615 837.167,188.655 837.415,188.53 837.662,188.321 837.91,189.234 838.157,190.413 838.405,191.416 838.653,192.669 838.9,194.014 839.148,193.863 839.395,192.21 839.643,190.906 839.891,189.747 840.138,188.1 840.386,186.464 840.634,185.012 840.881,183.958 841.129,183.865 841.376,184.566 841.624,185.384 841.872,186.766 842.119,188.677 842.367,190.367 842.614,191.728 842.862,191.937 843.11,191.261 843.357,190.954 843.605,190.512 843.852,189.631 844.1,188.783 844.348,187.741 844.595,186.703 844.843,187.11 845.09,188.485 845.338,189.16 845.586,189.689 845.833,190.192 846.081,190.347 846.329,190.668 846.576,190.576 846.824,189.78 847.071,189.307 847.319,189.143 847.567,188.763 847.814,188.624 848.062,188.751 848.309,188.583 848.557,188.082 848.805,188.179 849.052,189.546 849.3,190.896 849.547,190.8 849.795,189.881 850.043,189.491 850.29,189.812 850.538,190.258 850.785,190.781 851.033,191.658 851.281,192.12 851.528,191.642 851.776,191.275 852.024,190.837 852.271,189.276 852.519,188.004 852.766,188.006 853.014,188.464 853.262,189.219 853.509,189.276 853.757,188.071 854.004,187.598 854.252,188.932 854.5,190.356 854.747,190.971 854.995,191.702 855.242,191.805 855.49,190.481 855.738,189.345 855.985,188.911 856.233,188.258 856.48,187.474 856.728,187.023 856.976,187.413 857.223,188.614 857.471,189.434 857.719,189.171 857.966,188.586 858.214,188.266 858.461,188.538 858.709,189.988 858.957,191.318 859.204,190.816 859.452,189.576 859.699,189.147 859.947,188.809 860.195,187.995 860.442,187.432 860.69,187.338 860.937,187.412 861.185,187.622 861.433,188.019 861.68,188.406 861.928,188.828 862.175,189.352 862.423,190.258 862.671,190.996 862.918,190.507 863.166,189.686 863.414,188.996 863.661,188.195 863.909,187.736 864.156,187.291 864.404,186.66 864.652,186.291 864.899,186.225 865.147,186.113 865.394,186.17 865.642,186.736 865.89,187.292 866.137,187.697 866.385,188.351 866.632,189.206 866.88,190.017 867.128,190.001 867.375,189.038 867.623,188.279 867.87,187.83 868.118,187.192 868.366,186.978 868.613,187.118 868.861,187.35 869.108,188.088 869.356,189.128 869.604,189.962 869.851,190.194 870.099,189.852 870.347,189.477 870.594,188.76 870.842,188.484 871.089,189.972 871.337,191.385 871.585,191.052 871.832,190.25 872.08,189.712 872.327,188.837 872.575,187.999 872.823,187.59 873.07,187.601 873.318,188.785 873.565,189.606 873.813,188.645 874.061,188.255 874.308,188.514 874.556,188.116 874.803,188.065 875.051,188.396 875.299,188.444 875.546,188.623 875.794,189.239 876.042,189.735 876.289,189.567 876.537,189.123 876.784,188.986 877.032,189.269 877.28,189.911 877.527,190.009 877.775,189.131 878.022,188.304 878.27,187.722 878.518,187.985 878.765,189.758 879.013,191.249 879.26,192.074 879.508,192.376 879.756,191.28 880.003,190.211 880.251,189.914 880.498,190.031 880.746,190.47 880.994,189.977 881.241,188.931 881.489,188.32 881.737,187.687 881.984,187.852 882.232,188.829 882.479,189.735 882.727,190.992 882.975,191.642 883.222,190.922 883.47,189.879 883.717,188.857 883.965,188.379 884.213,189.17 884.46,189.667 884.708,188.945 884.955,188.521 885.203,188.947 885.451,189.549 885.698,190.018 885.946,190.797 886.193,191.72 886.441,191.64 886.689,191.04 886.936,190.809 887.184,190.209 887.432,189.345 887.679,189.122 887.927,189.179 888.174,189.175 888.422,189.776 888.67,190.761 888.917,191.445 889.165,191.555 889.412,190.966 889.66,190.288 889.908,189.47 890.155,188.617 890.403,188.606 890.65,189.165 890.898,189.79 891.146,190.332 891.393,190.399 891.641,190.05 891.888,189.86 892.136,189.573 892.384,189.562 892.631,190.49 892.879,190.235 893.127,189.088 893.374,190.207 893.622,191.935 893.869,192.07 894.117,191.657 894.365,190.851 894.612,189.705 894.86,188.839 895.107,188.752 895.355,189.374 895.603,189.766 895.85,190.027 896.098,190.574 896.345,191.069 896.593,191.489 896.841,192.036 897.088,192.289 897.336,191.482 897.583,190.317 897.831,189.725 898.079,189.036 898.326,188 898.574,187.763 898.822,188.649 899.069,189.381 899.317,189.792 899.564,190.463 899.812,191.002 900.06,191.444 900.307,191.853 900.555,191.511 900.802,190.722 901.05,190.267 901.298,189.873 901.545,189.497 901.793,189.264 902.04,188.974 902.288,188.694 902.536,188.449 902.783,188.207 903.031,188.228 903.278,188.501 903.526,188.674 903.774,188.808 904.021,189.031 904.269,189.232 904.517,189.429 904.764,189.647 905.012,189.85 905.259,190.046 905.507,190.242 905.755,190.448 906.002,190.722 906.25,190.64 906.497,189.839 906.745,189.027 906.993,188.449 907.24,187.73 907.488,187.295 907.735,187.583 907.983,188.239 908.231,188.779 908.478,189.303 908.726,189.964 908.973,190.076 909.221,189.411 909.469,188.885 909.716,188.553 909.964,188.307 910.212,188.515 910.459,188.728 910.707,188.773 910.954,188.955 911.202,189.148 911.45,189.288 911.697,189.512 911.945,189.357 912.192,188.367 912.44,187.479 912.688,187.653 912.935,188.197 913.183,188.337 913.43,188.618 913.678,189.426 913.926,190.331 914.173,190.714 914.421,190.334 914.668,189.89 914.916,189.747 915.164,189.472 915.411,189.098 915.659,188.828 915.907,188.564 916.154,188.284 916.402,188 916.649,187.868 916.897,188.076 917.145,188.436 917.392,188.798 917.64,189.198 917.887,189.569 918.135,189.851 918.383,190.097 918.63,190.4 918.878,190.599 919.125,190.337 919.373,189.82 919.621,189.295 919.868,188.551 920.116,187.947 920.363,187.791 920.611,187.926 920.859,188.29 921.106,188.625 921.354,188.894 921.602,189.258 921.849,189.631 922.097,190.021 922.344,190.55 922.592,190.988 922.84,191.031 923.087,190.926 923.335,190.764 923.582,190.37 923.83,189.997 924.078,189.667 924.325,189.5 924.573,189.839 924.82,189.986 925.068,189.609 925.316,189.437 925.563,189.432 925.811,189.277 926.058,189.149 926.306,189.235 926.554,189.578 926.801,189.966 927.049,190.052 927.297,189.782 927.544,189.55 927.792,189.533 928.039,189.514 928.287,189.43 928.535,189.399 928.782,189.45 929.03,189.506 929.277,189.548 929.525,189.538 929.773,189.364 930.02,189.147 930.268,188.951 930.515,188.841 930.763,189.032 931.011,189.258 931.258,189.342 931.506,189.428 931.753,189.405 932.001,189.286 932.249,189.198 932.496,189.182 932.744,189.211 932.992,189.208 933.239,189.203 933.487,189.221 933.734,189.231 933.982,189.23 934.23,189.213 934.477,189.193 934.725,189.184 934.972,189.188 935.22,189.207 935.468,189.226 935.715,189.238 935.963,189.253 936.21,189.274 936.458,189.306 936.706,189.34 936.953,189.372 937.201,189.402 937.448,189.433 937.696,189.49 937.944,189.565 938.191,189.629 938.439,189.615 938.687,189.491 938.934,189.388 939.182,189.337 939.429,189.262 939.677,189.198 939.925,189.196 940.172,189.218 940.42,189.237 940.667,189.296 940.915,189.386 941.163,189.435 941.41,189.459 941.658,189.469 941.905,189.455 942.153,189.453 942.401,189.46 942.648,189.458 942.896,189.446 943.143,189.406 943.391,189.375 943.639,189.386 943.886,189.393 944.134,189.385 944.382,189.389 944.629,189.401 944.877,189.41 945.124,189.403 945.372,189.389 945.62,189.383 945.867,189.379 946.115,189.384 946.362,189.394 946.61,189.399 946.858,189.402 947.105,189.406 947.353,189.408 947.6,189.415 947.848,189.422 948.096,189.415 948.343,189.404 948.591,189.399 948.838,189.393 949.086,189.386 949.334,189.38 949.581,189.376 949.829,189.372 950.077,189.368 950.324,189.364 950.572,189.362 950.819,189.362 951.067,189.361 951.315,189.36 951.562,189.359 951.81,189.357 952.057,189.355 952.305,189.352 952.553,189.348 952.8,189.345 953.048,189.341 953.295,189.338 953.543,189.334 953.791,189.33 954.038,189.327 954.286,189.324 954.533,189.321 954.781,189.318 955.029,189.315 955.276,189.311 955.524,189.308 955.772,189.304 956.019,189.301 956.267,189.297 956.514,189.293 956.762,189.289 957.01,189.285 957.257,189.281 957.505,189.277 957.752,189.273 958,189.269 " />
</g>

<g fill="none" stroke="#000000" stroke-opacity="1" stroke-width="1" stroke-linecap="square" stroke-linejoin="bevel" transform="matrix(1,0,0,1,0,0)"
font-family="MS Shell Dlg 2" font-size="7.8" font-weight="400" font-style="normal" 
>
</g>

<g fill="none" stroke="#000000" stroke-opacity="1" stroke-width="1" stroke-linecap="square" stroke-linejoin="bevel" transform="matrix(1,0,0,1,0,0)"
font-family="MS Shell Dlg 2" font-size="7.8" font-weight="400" font-style="normal" 
>
</g>

<g fill="none" stroke="#000000" stroke-opacity="1" stroke-width="1" stroke-linecap="square" stroke-linejoin="bevel" transform="matrix(1,0,0,1,0,0)"
font-family="MS Shell Dlg 2" font-size="7.8" font-weight="400" font-style="normal" 
>
<polyline fill="none" vector-effect="non-scaling-stroke" points="52,353 958,353 " />
<polyline fill="none" vector-effect="non-scaling-stroke" points="52,353 52,348 " />
<polyline fill="none" vector-effect="non-scaling-stroke" points="175.804,353 175.804,348 " />
<polyline fill="none" vector-effect="non-scaling-stroke" points="299.609,353 299.609,348 " />
<polyline fill="none" vector-effect="non-scaling-stroke" points="423.413,353 423.413,348 " />
<polyline fill="none" vector-effect="non-scaling-stroke" points="547.217,353 547.217,348 " />
<polyline fill="none" vector-effect="non-scaling-stroke" points="671.022,353 671.022,348 " />
<polyline fill="none" vector-effect="non-scaling-stroke" points="794.826,353 794.826,348 " />
<polyline fill="none" vector-effect="non-scaling-stroke" points="918.63,353 918.63,348 " />
<polyline fill="none" vector-effect="non-scaling-stroke" points="76.7609,353 76.7609,351 " />
<polyline fill="none" vector-effect="non-scaling-stroke" points="101.522,353 101.522,351 " />
<polyline fill="none" vector-effect="non-scaling-stroke" points="126.283,353 126.283,351 " />
<polyline fill="none" vector-effect="non-scaling-stroke" points="151.043,353 151.043,351 " />
<polyline fill="none" vector-effect="non-scaling-stroke" points="200.565,353 200.565,351 " />
<polyline fill="none" vector-effect="non-scaling-stroke" points="225.326,353 225.326,351 " />
<polyline fill="none" vector-effect="non-scaling-stroke" points="250.087,353 250.087,351 " />
<polyline fill="none" vector-effect="non-scaling-stroke" points="274.848,353 274.848,351 " />
<polyline fill="none" vector-effect="non-scaling-stroke" points="324.369,353 324.369,351 " />
<polyline fill="none" vector-effect="non-scaling-stroke" points="349.13,353 349.13,351 " />
<polyline fill="none" vector-effect="non-scaling-stroke" points="373.891,353 373.891,351 " />
<polyline fill="none" vector-effect="non-scaling-stroke" points="398.652,353 398.652,351 " />
<polyline fill="none" vector-effect="non-scaling-stroke" points="448.174,353 448.174,351 " />
<polyline fill="none" vector-effect="non-scaling-stroke" points="472.935,353 472.935,351 " />
<polyline fill="none" vector-effect="non-scaling-stroke" points="497.696,353 497.696,351 " />
<polyline fill="none" vector-effect="non-scaling-stroke" points="522.456,353 522.456,351 " />
<polyline fill="none" vector-effect="non-scaling-stroke" points="571.978,353 571.978,351 " />
<polyline fill="none" vector-effect="non-scaling-stroke" points="596.739,353 596.739,351 " />
<polyline fill="none" vector-effect="non-scaling-stroke" points="621.5,353 621.5,351 " />
<polyline fill="none" vector-effect="non-scaling-stroke" points="646.261,353 646.261,351 " />
<polyline fill="none" vector-effect="non-scaling-stroke" points="695.782,353 695.782,351 " />
<polyline fill="none" vector-effect="non-scaling-stroke" points="720.543,353 720.543,351 " />
<polyline fill="none" vector-effect="non-scaling-stroke" points="745.304,353 745.304,351 " />
<polyline fill="none" vector-effect="non-scaling-stroke" points="770.065,353 770.065,351 " />
<polyline fill="none" vector-effect="non-scaling-stroke" points="819.587,353 819.587,351 " />
<polyline fill="none" vector-effect="non-scaling-stroke" points="844.348,353 844.348,351 " />
<polyline fill="none" vector-effect="non-scaling-stroke" points="869.108,353 869.108,351 " />
<polyline fill="none" vector-effect="non-scaling-stroke" points="893.869,353 893.869,351 " />
<polyline fill="none" vector-effect="non-scaling-stroke" points="943.391,353 943.391,351 " />
</g>

<g fill="#000000" fill-opacity="1" stroke="#000000" stroke-opacity="1" stroke-width="1" stroke-linecap="square" stroke-linejoin="bevel" transform="matrix(1,0,0,1,49,356)"
font-family="MS Shell Dlg 2" font-size="7.85" font-weight="400" font-style="normal" 
>
<text fill="#000000" fill-opacity="1" stroke="none" xml:space="preserve" x="0.8125" y="8" font-family="MS Shell Dlg 2" font-size="7.85" font-weight="400" font-style="normal" 
 >0</text>
</g>

<g fill="#000000" fill-opacity="1" stroke="#000000" stroke-opacity="1" stroke-width="1" stroke-linecap="square" stroke-linejoin="bevel" transform="matrix(1,0,0,1,172.804,356)"
font-family="MS Shell Dlg 2" font-size="7.85" font-weight="400" font-style="normal" 
>
<text fill="#000000" fill-opacity="1" stroke="none" xml:space="preserve" x="0.8125" y="8" font-family="MS Shell Dlg 2" font-size="7.85" font-weight="400" font-style="normal" 
 >5</text>
</g>

<g fill="#000000" fill-opacity="1" stroke="#000000" stroke-opacity="1" stroke-width="1" stroke-linecap="square" stroke-linejoin="bevel" transform="matrix(1,0,0,1,294.609,356)"
font-family="MS Shell Dlg 2" font-size="7.85" font-weight="400" font-style="normal" 
>
<text fill="#000000" fill-opacity="1" stroke="none" xml:space="preserve" x="0.640625" y="8" font-family="MS Shell Dlg 2" font-size="7.85" font-weight="400" font-style="normal" 
 >10</text>
</g>

<g fill="#000000" fill-opacity="1" stroke="#000000" stroke-opacity="1" stroke-width="1" stroke-linecap="square" stroke-linejoin="bevel" transform="matrix(1,0,0,1,418.413,356)"
font-family="MS Shell Dlg 2" font-size="7.85" font-weight="400" font-style="normal" 
>
<text fill="#000000" fill-opacity="1" stroke="none" xml:space="preserve" x="0.640625" y="8" font-family="MS Shell Dlg 2" font-size="7.85" font-weight="400" font-style="normal" 
 >15</text>
</g>

<g fill="#000000" fill-opacity="1" stroke="#000000" stroke-opacity="1" stroke-width="1" stroke-linecap="square" stroke-linejoin="bevel" transform="matrix(1,0,0,1,542.217,356)"
font-family="MS Shell Dlg 2" font-size="7.85" font-weight="400" font-style="normal" 
>
<text fill="#000000" fill-opacity="1" stroke="none" xml:space="preserve" x="0.640625" y="8" font-family="MS Shell Dlg 2" font-size="7.85" font-weight="400" font-style="normal" 
 >20</text>
</g>

<g fill="#000000" fill-opacity="1" stroke="#000000" stroke-opacity="1" stroke-width="1" stroke-linecap="square" stroke-linejoin="bevel" transform="matrix(1,0,0,1,666.022,356)"
font-family="MS Shell Dlg 2" font-size="7.85" font-weight="400" font-style="normal" 
>
<text fill="#000000" fill-opacity="1" stroke="none" xml:space="preserve" x="0.640625" y="8" font-family="MS Shell Dlg 2" font-size="7.85" font-weight="400" font-style="normal" 
 >25</text>
</g>

<g fill="#000000" fill-opacity="1" stroke="#000000" stroke-opacity="1" stroke-width="1" stroke-linecap="square" stroke-linejoin="bevel" transform="matrix(1,0,0,1,789.826,356)"
font-family="MS Shell Dlg 2" font-size="7.85" font-weight="400" font-style="normal" 
>
<text fill="#000000" fill-opacity="1" stroke="none" xml:space="preserve" x="0.640625" y="8" font-family="MS Shell Dlg 2" font-size="7.85" font-weight="400" font-style="normal" 
 >30</text>
</g>

<g fill="#000000" fill-opacity="1" stroke="#000000" stroke-opacity="1" stroke-width="1" stroke-linecap="square" stroke-linejoin="bevel" transform="matrix(1,0,0,1,913.63,356)"
font-family="MS Shell Dlg 2" font-size="7.85" font-weight="400" font-style="normal" 
>
<text fill="#000000" fill-opacity="1" stroke="none" xml:space="preserve" x="0.640625" y="8" font-family="MS Shell Dlg 2" font-size="7.85" font-weight="400" font-style="normal" 
 >35</text>
</g>

<g fill="#000000" fill-opacity="1" stroke="#000000" stroke-opacity="1" stroke-width="1" stroke-linecap="square" stroke-linejoin="bevel" transform="matrix(1,0,0,1,0,0)"
font-family="MS Shell Dlg 2" font-size="7.8" font-weight="400" font-style="normal" 
>
<text fill="#000000" fill-opacity="1" stroke="none" xml:space="preserve" x="490.188" y="377.172" font-family="MS Shell Dlg 2" font-size="7.8" font-weight="400" font-style="normal" 
 >Time (s)</text>
</g>

<g fill="none" stroke="#000000" stroke-opacity="1" stroke-width="1" stroke-linecap="square" stroke-linejoin="bevel" transform="matrix(1,0,0,1,0,0)"
font-family="MS Shell Dlg 2" font-size="7.8" font-weight="400" font-style="normal" 
>
</g>

<g fill="none" stroke="#000000" stroke-opacity="1" stroke-width="1" stroke-linecap="square" stroke-linejoin="bevel" transform="matrix(1,0,0,1,0,0)"
font-family="MS Shell Dlg 2" font-size="7.8" font-weight="400" font-style="normal" 
>
</g>

<g fill="none" stroke="#000000" stroke-opacity="1" stroke-width="1" stroke-linecap="square" stroke-linejoin="bevel" transform="matrix(1,0,0,1,0,0)"
font-family="MS Shell Dlg 2" font-size="7.8" font-weight="400" font-style="normal" 
>
<polyline fill="none" vector-effect="non-scaling-stroke" points="52,353 52,20 " />
<polyline fill="none" vector-effect="non-scaling-stroke" points="52,309.208 57,309.208 " />
<polyline fill="none" vector-effect="non-scaling-stroke" points="52,249.301 57,249.301 " />
<polyline fill="none" vector-effect="non-scaling-stroke" points="52,189.394 57,189.394 " />
<polyline fill="none" vector-effect="non-scaling-stroke" points="52,129.487 57,129.487 " />
<polyline fill="none" vector-effect="non-scaling-stroke" points="52,69.5793 57,69.5793 " />
<polyline fill="none" vector-effect="non-scaling-stroke" points="52,345.153 54,345.153 " />
<polyline fill="none" vector-effect="non-scaling-stroke" points="52,333.171 54,333.171 " />
<polyline fill="none" vector-effect="non-scaling-stroke" points="52,321.19 54,321.19 " />
<polyline fill="none" vector-effect="non-scaling-stroke" points="52,297.227 54,297.227 " />
<polyline fill="none" vector-effect="non-scaling-stroke" points="52,285.245 54,285.245 " />
<polyline fill="none" vector-effect="non-scaling-stroke" points="52,273.264 54,273.264 " />
<polyline fill="none" vector-effect="non-scaling-stroke" points="52,261.283 54,261.283 " />
<polyline fill="none" vector-effect="non-scaling-stroke" points="52,237.32 54,237.32 " />
<polyline fill="none" vector-effect="non-scaling-stroke" points="52,225.338 54,225.338 " />
<polyline fill="none" vector-effect="non-scaling-stroke" points="52,213.357 54,213.357 " />
<polyline fill="none" vector-effect="non-scaling-stroke" points="52,201.375 54,201.375 " />
<polyline fill="none" vector-effect="non-scaling-stroke" points="52,177.412 54,177.412 " />
<polyline fill="none" vector-effect="non-scaling-stroke" points="52,165.431 54,165.431 " />
<polyline fill="none" vector-effect="non-scaling-stroke" points="52,153.449 54,153.449 " />
<polyline fill="none" vector-effect="non-scaling-stroke" points="52,141.468 54,141.468 " />
<polyline fill="none" vector-effect="non-scaling-stroke" points="52,117.505 54,117.505 " />
<polyline fill="none" vector-effect="non-scaling-stroke" points="52,105.524 54,105.524 " />
<polyline fill="none" vector-effect="non-scaling-stroke" points="52,93.5422 54,93.5422 " />
<polyline fill="none" vector-effect="non-scaling-stroke" points="52,81.5607 54,81.5607 " />
<polyline fill="none" vector-effect="non-scaling-stroke" points="52,57.5978 54,57.5978 " />
<polyline fill="none" vector-effect="non-scaling-stroke" points="52,45.6164 54,45.6164 " />
<polyline fill="none" vector-effect="non-scaling-stroke" points="52,33.6349 54,33.6349 " />
<polyline fill="none" vector-effect="non-scaling-stroke" points="52,21.6534 54,21.6534 " />
</g>

<g fill="#000000" fill-opacity="1" stroke="#000000" stroke-opacity="1" stroke-width="1" stroke-linecap="square" stroke-linejoin="bevel" transform="matrix(1,0,0,1,31,304.208)"
font-family="MS Shell Dlg 2" font-size="7.85" font-weight="400" font-style="normal" 
>
<text fill="#000000" fill-opacity="1" stroke="none" xml:space="preserve" x="0.96875" y="8" font-family="MS Shell Dlg 2" font-size="7.85" font-weight="400" font-style="normal" 
 >-0.2</text>
</g>

<g fill="#000000" fill-opacity="1" stroke="#000000" stroke-opacity="1" stroke-width="1" stroke-linecap="square" stroke-linejoin="bevel" transform="matrix(1,0,0,1,31,244.301)"
font-family="MS Shell Dlg 2" font-size="7.85" font-weight="400" font-style="normal" 
>
<text fill="#000000" fill-opacity="1" stroke="none" xml:space="preserve" x="0.96875" y="8" font-family="MS Shell Dlg 2" font-size="7.85" font-weight="400" font-style="normal" 
 >-0.1</text>
</g>

<g fill="#000000" fill-opacity="1" stroke="#000000" stroke-opacity="1" stroke-width="1" stroke-linecap="square" stroke-linejoin="bevel" transform="matrix(1,0,0,1,41,184.394)"
font-family="MS Shell Dlg 2" font-size="7.85" font-weight="400" font-style="normal" 
>
<text fill="#000000" fill-opacity="1" stroke="none" xml:space="preserve" x="0.8125" y="8" font-family="MS Shell Dlg 2" font-size="7.85" font-weight="400" font-style="normal" 
 >0</text>
</g>

<g fill="#000000" fill-opacity="1" stroke="#000000" stroke-opacity="1" stroke-width="1" stroke-linecap="square" stroke-linejoin="bevel" transform="matrix(1,0,0,1,35,124.487)"
font-family="MS Shell Dlg 2" font-size="7.85" font-weight="400" font-style="normal" 
>
<text fill="#000000" fill-opacity="1" stroke="none" xml:space="preserve" x="0.421875" y="8" font-family="MS Shell Dlg 2" font-size="7.85" font-weight="400" font-style="normal" 
 >0.1</text>
</g>

<g fill="#000000" fill-opacity="1" stroke="#000000" stroke-opacity="1" stroke-width="1" stroke-linecap="square" stroke-linejoin="bevel" transform="matrix(1,0,0,1,35,64.5793)"
font-family="MS Shell Dlg 2" font-size="7.85" font-weight="400" font-style="normal" 
>
<text fill="#000000" fill-opacity="1" stroke="none" xml:space="preserve" x="0.421875" y="8" font-family="MS Shell Dlg 2" font-size="7.85" font-weight="400" font-style="normal" 
 >0.2</text>
</g>

<g fill="#000000" fill-opacity="1" stroke="#000000" stroke-opacity="1" stroke-width="1" stroke-linecap="square" stroke-linejoin="bevel" transform="matrix(0,-1,1,0,11,353)"
font-family="MS Shell Dlg 2" font-size="7.8" font-weight="400" font-style="normal" 
>
<text fill="#000000" fill-opacity="1" stroke="none" xml:space="preserve" x="138.594" y="8.17188" font-family="MS Shell Dlg 2" font-size="7.8" font-weight="400" font-style="normal" 
 >Acceleration (g)</text>
</g>

<g fill="none" stroke="#000000" stroke-opacity="1" stroke-width="1" stroke-linecap="square" stroke-linejoin="bevel" transform="matrix(1,0,0,1,0,0)"
font-family="MS Shell Dlg 2" font-size="7.8" font-weight="400" font-style="normal" 
>
</g>

<g fill="none" stroke="#000000" stroke-opacity="1" stroke-width="1" stroke-linecap="square" stroke-linejoin="bevel" transform="matrix(1,0,0,1,0,0)"
font-family="MS Shell Dlg 2" font-size="7.8" font-weight="400" font-style="normal" 
>
</g>

<g fill="none" stroke="#000000" stroke-opacity="1" stroke-width="1" stroke-linecap="square" stroke-linejoin="bevel" transform="matrix(1,0,0,1,0,0)"
font-family="MS Shell Dlg 2" font-size="7.8" font-weight="400" font-style="normal" 
>
<polyline fill="none" vector-effect="non-scaling-stroke" points="52,20 958,20 " />
<polyline fill="none" vector-effect="non-scaling-stroke" points="52,20 52,25 " />
<polyline fill="none" vector-effect="non-scaling-stroke" points="175.804,20 175.804,25 " />
<polyline fill="none" vector-effect="non-scaling-stroke" points="299.609,20 299.609,25 " />
<polyline fill="none" vector-effect="non-scaling-stroke" points="423.413,20 423.413,25 " />
<polyline fill="none" vector-effect="non-scaling-stroke" points="547.217,20 547.217,25 " />
<polyline fill="none" vector-effect="non-scaling-stroke" points="671.022,20 671.022,25 " />
<polyline fill="none" vector-effect="non-scaling-stroke" points="794.826,20 794.826,25 " />
<polyline fill="none" vector-effect="non-scaling-stroke" points="918.63,20 918.63,25 " />
<polyline fill="none" vector-effect="non-scaling-stroke" points="76.7609,20 76.7609,22 " />
<polyline fill="none" vector-effect="non-scaling-stroke" points="101.522,20 101.522,22 " />
<polyline fill="none" vector-effect="non-scaling-stroke" points="126.283,20 126.283,22 " />
<polyline fill="none" vector-effect="non-scaling-stroke" points="151.043,20 151.043,22 " />
<polyline fill="none" vector-effect="non-scaling-stroke" points="200.565,20 200.565,22 " />
<polyline fill="none" vector-effect="non-scaling-stroke" points="225.326,20 225.326,22 " />
<polyline fill="none" vector-effect="non-scaling-stroke" points="250.087,20 250.087,22 " />
<polyline fill="none" vector-effect="non-scaling-stroke" points="274.848,20 274.848,22 " />
<polyline fill="none" vector-effect="non-scaling-stroke" points="324.369,20 324.369,22 " />
<polyline fill="none" vector-effect="non-scaling-stroke" points="349.13,20 349.13,22 " />
<polyline fill="none" vector-effect="non-scaling-stroke" points="373.891,20 373.891,22 " />
<polyline fill="none" vector-effect="non-scaling-stroke" points="398.652,20 398.652,22 " />
<polyline fill="none" vector-effect="non-scaling-stroke" points="448.174,20 448.174,22 " />
<polyline fill="none" vector-effect="non-scaling-stroke" points="472.935,20 472.935,22 " />
<polyline fill="none" vector-effect="non-scaling-stroke" points="497.696,20 497.696,22 " />
<polyline fill="none" vector-effect="non-scaling-stroke" points="522.456,20 522.456,22 " />
<polyline fill="none" vector-effect="non-scaling-stroke" points="571.978,20 571.978,22 " />
<polyline fill="none" vector-effect="non-scaling-stroke" points="596.739,20 596.739,22 " />
<polyline fill="none" vector-effect="non-scaling-stroke" points="621.5,20 621.5,22 " />
<polyline fill="none" vector-effect="non-scaling-stroke" points="646.261,20 646.261,22 " />
<polyline fill="none" vector-effect="non-scaling-stroke" points="695.782,20 695.782,22 " />
<polyline fill="none" vector-effect="non-scaling-stroke" points="720.543,20 720.543,22 " />
<polyline fill="none" vector-effect="non-scaling-stroke" points="745.304,20 745.304,22 " />
<polyline fill="none" vector-effect="non-scaling-stroke" points="770.065,20 770.065,22 " />
<polyline fill="none" vector-effect="non-scaling-stroke" points="819.587,20 819.587,22 " />
<polyline fill="none" vector-effect="non-scaling-stroke" points="844.348,20 844.348,22 " />
<polyline fill="none" vector-effect="non-scaling-stroke" points="869.108,20 869.108,22 " />
<polyline fill="none" vector-effect="non-scaling-stroke" points="893.869,20 893.869,22 " />
<polyline fill="none" vector-effect="non-scaling-stroke" points="943.391,20 943.391,22 " />
</g>

<g fill="#000000" fill-opacity="1" stroke="#000000" stroke-opacity="1" stroke-width="1" stroke-linecap="square" stroke-linejoin="bevel" transform="matrix(1,0,0,1,49,8)"
font-family="MS Shell Dlg 2" font-size="7.85" font-weight="400" font-style="normal" 
>
<text fill="#000000" fill-opacity="1" stroke="none" xml:space="preserve" x="0.8125" y="8" font-family="MS Shell Dlg 2" font-size="7.85" font-weight="400" font-style="normal" 
 >0</text>
</g>

<g fill="#000000" fill-opacity="1" stroke="#000000" stroke-opacity="1" stroke-width="1" stroke-linecap="square" stroke-linejoin="bevel" transform="matrix(1,0,0,1,172.804,8)"
font-family="MS Shell Dlg 2" font-size="7.85" font-weight="400" font-style="normal" 
>
<text fill="#000000" fill-opacity="1" stroke="none" xml:space="preserve" x="0.8125" y="8" font-family="MS Shell Dlg 2" font-size="7.85" font-weight="400" font-style="normal" 
 >5</text>
</g>

<g fill="#000000" fill-opacity="1" stroke="#000000" stroke-opacity="1" stroke-width="1" stroke-linecap="square" stroke-linejoin="bevel" transform="matrix(1,0,0,1,294.609,8)"
font-family="MS Shell Dlg 2" font-size="7.85" font-weight="400" font-style="normal" 
>
<text fill="#000000" fill-opacity="1" stroke="none" xml:space="preserve" x="0.640625" y="8" font-family="MS Shell Dlg 2" font-size="7.85" font-weight="400" font-style="normal" 
 >10</text>
</g>

<g fill="#000000" fill-opacity="1" stroke="#000000" stroke-opacity="1" stroke-width="1" stroke-linecap="square" stroke-linejoin="bevel" transform="matrix(1,0,0,1,418.413,8)"
font-family="MS Shell Dlg 2" font-size="7.85" font-weight="400" font-style="normal" 
>
<text fill="#000000" fill-opacity="1" stroke="none" xml:space="preserve" x="0.640625" y="8" font-family="MS Shell Dlg 2" font-size="7.85" font-weight="400" font-style="normal" 
 >15</text>
</g>

<g fill="#000000" fill-opacity="1" stroke="#000000" stroke-opacity="1" stroke-width="1" stroke-linecap="square" stroke-linejoin="bevel" transform="matrix(1,0,0,1,542.217,8)"
font-family="MS Shell Dlg 2" font-size="7.85" font-weight="400" font-style="normal" 
>
<text fill="#000000" fill-opacity="1" stroke="none" xml:space="preserve" x="0.640625" y="8" font-family="MS Shell Dlg 2" font-size="7.85" font-weight="400" font-style="normal" 
 >20</text>
</g>

<g fill="#000000" fill-opacity="1" stroke="#000000" stroke-opacity="1" stroke-width="1" stroke-linecap="square" stroke-linejoin="bevel" transform="matrix(1,0,0,1,666.022,8)"
font-family="MS Shell Dlg 2" font-size="7.85" font-weight="400" font-style="normal" 
>
<text fill="#000000" fill-opacity="1" stroke="none" xml:space="preserve" x="0.640625" y="8" font-family="MS Shell Dlg 2" font-size="7.85" font-weight="400" font-style="normal" 
 >25</text>
</g>

<g fill="#000000" fill-opacity="1" stroke="#000000" stroke-opacity="1" stroke-width="1" stroke-linecap="square" stroke-linejoin="bevel" transform="matrix(1,0,0,1,789.826,8)"
font-family="MS Shell Dlg 2" font-size="7.85" font-weight="400" font-style="normal" 
>
<text fill="#000000" fill-opacity="1" stroke="none" xml:space="preserve" x="0.640625" y="8" font-family="MS Shell Dlg 2" font-size="7.85" font-weight="400" font-style="normal" 
 >30</text>
</g>

<g fill="#000000" fill-opacity="1" stroke="#000000" stroke-opacity="1" stroke-width="1" stroke-linecap="square" stroke-linejoin="bevel" transform="matrix(1,0,0,1,913.63,8)"
font-family="MS Shell Dlg 2" font-size="7.85" font-weight="400" font-style="normal" 
>
<text fill="#000000" fill-opacity="1" stroke="none" xml:space="preserve" x="0.640625" y="8" font-family="MS Shell Dlg 2" font-size="7.85" font-weight="400" font-style="normal" 
 >35</text>
</g>

<g fill="none" stroke="#000000" stroke-opacity="1" stroke-width="1" stroke-linecap="square" stroke-linejoin="bevel" transform="matrix(1,0,0,1,0,0)"
font-family="MS Shell Dlg 2" font-size="7.8" font-weight="400" font-style="normal" 
>
</g>

<g fill="none" stroke="#000000" stroke-opacity="1" stroke-width="1" stroke-linecap="square" stroke-linejoin="bevel" transform="matrix(1,0,0,1,0,0)"
font-family="MS Shell Dlg 2" font-size="7.8" font-weight="400" font-style="normal" 
>
</g>

<g fill="none" stroke="#000000" stroke-opacity="1" stroke-width="1" stroke-linecap="square" stroke-linejoin="bevel" transform="matrix(1,0,0,1,0,0)"
font-family="MS Shell Dlg 2" font-size="7.8" font-weight="400" font-style="normal" 
>
<polyline fill="none" vector-effect="non-scaling-stroke" points="958,353 958,20 " />
<polyline fill="none" vector-effect="non-scaling-stroke" points="958,309.208 953,309.208 " />
<polyline fill="none" vector-effect="non-scaling-stroke" points="958,249.301 953,249.301 " />
<polyline fill="none" vector-effect="non-scaling-stroke" points="958,189.394 953,189.394 " />
<polyline fill="none" vector-effect="non-scaling-stroke" points="958,129.487 953,129.487 " />
<polyline fill="none" vector-effect="non-scaling-stroke" points="958,69.5793 953,69.5793 " />
<polyline fill="none" vector-effect="non-scaling-stroke" points="958,345.153 956,345.153 " />
<polyline fill="none" vector-effect="non-scaling-stroke" points="958,333.171 956,333.171 " />
<polyline fill="none" vector-effect="non-scaling-stroke" points="958,321.19 956,321.19 " />
<polyline fill="none" vector-effect="non-scaling-stroke" points="958,297.227 956,297.227 " />
<polyline fill="none" vector-effect="non-scaling-stroke" points="958,285.245 956,285.245 " />
<polyline fill="none" vector-effect="non-scaling-stroke" points="958,273.264 956,273.264 " />
<polyline fill="none" vector-effect="non-scaling-stroke" points="958,261.283 956,261.283 " />
<polyline fill="none" vector-effect="non-scaling-stroke" points="958,237.32 956,237.32 " />
<polyline fill="none" vector-effect="non-scaling-stroke" points="958,225.338 956,225.338 " />
<polyline fill="none" vector-effect="non-scaling-stroke" points="958,213.357 956,213.357 " />
<polyline fill="none" vector-effect="non-scaling-stroke" points="958,201.375 956,201.375 " />
<polyline fill="none" vector-effect="non-scaling-stroke" points="958,177.412 956,177.412 " />
<polyline fill="none" vector-effect="non-scaling-stroke" points="958,165.431 956,165.431 " />
<polyline fill="none" vector-effect="non-scaling-stroke" points="958,153.449 956,153.449 " />
<polyline fill="none" vector-effect="non-scaling-stroke" points="958,141.468 956,141.468 " />
<polyline fill="none" vector-effect="non-scaling-stroke" points="958,117.505 956,117.505 " />
<polyline fill="none" vector-effect="non-scaling-stroke" points="958,105.524 956,105.524 " />
<polyline fill="none" vector-effect="non-scaling-stroke" points="958,93.5422 956,93.5422 " />
<polyline fill="none" vector-effect="non-scaling-stroke" points="958,81.5607 956,81.5607 " />
<polyline fill="none" vector-effect="non-scaling-stroke" points="958,57.5978 956,57.5978 " />
<polyline fill="none" vector-effect="non-scaling-stroke" points="958,45.6164 956,45.6164 " />
<polyline fill="none" vector-effect="non-scaling-stroke" points="958,33.6349 956,33.6349 " />
<polyline fill="none" vector-effect="non-scaling-stroke" points="958,21.6534 956,21.6534 " />
</g>

<g fill="#000000" fill-opacity="1" stroke="#000000" stroke-opacity="1" stroke-width="1" stroke-linecap="square" stroke-linejoin="bevel" transform="matrix(1,0,0,1,962,304.208)"
font-family="MS Shell Dlg 2" font-size="7.85" font-weight="400" font-style="normal" 
>
<text fill="#000000" fill-opacity="1" stroke="none" xml:space="preserve" x="0.96875" y="8" font-family="MS Shell Dlg 2" font-size="7.85" font-weight="400" font-style="normal" 
 >-0.2</text>
</g>

<g fill="#000000" fill-opacity="1" stroke="#000000" stroke-opacity="1" stroke-width="1" stroke-linecap="square" stroke-linejoin="bevel" transform="matrix(1,0,0,1,962,244.301)"
font-family="MS Shell Dlg 2" font-size="7.85" font-weight="400" font-style="normal" 
>
<text fill="#000000" fill-opacity="1" stroke="none" xml:space="preserve" x="0.96875" y="8" font-family="MS Shell Dlg 2" font-size="7.85" font-weight="400" font-style="normal" 
 >-0.1</text>
</g>

<g fill="#000000" fill-opacity="1" stroke="#000000" stroke-opacity="1" stroke-width="1" stroke-linecap="square" stroke-linejoin="bevel" transform="matrix(1,0,0,1,962,184.394)"
font-family="MS Shell Dlg 2" font-size="7.85" font-weight="400" font-style="normal" 
>
<text fill="#000000" fill-opacity="1" stroke="none" xml:space="preserve" x="0.8125" y="8" font-family="MS Shell Dlg 2" font-size="7.85" font-weight="400" font-style="normal" 
 >0</text>
</g>

<g fill="#000000" fill-opacity="1" stroke="#000000" stroke-opacity="1" stroke-width="1" stroke-linecap="square" stroke-linejoin="bevel" transform="matrix(1,0,0,1,962,124.487)"
font-family="MS Shell Dlg 2" font-size="7.85" font-weight="400" font-style="normal" 
>
<text fill="#000000" fill-opacity="1" stroke="none" xml:space="preserve" x="0.421875" y="8" font-family="MS Shell Dlg 2" font-size="7.85" font-weight="400" font-style="normal" 
 >0.1</text>
</g>

<g fill="#000000" fill-opacity="1" stroke="#000000" stroke-opacity="1" stroke-width="1" stroke-linecap="square" stroke-linejoin="bevel" transform="matrix(1,0,0,1,962,64.5793)"
font-family="MS Shell Dlg 2" font-size="7.85" font-weight="400" font-style="normal" 
>
<text fill="#000000" fill-opacity="1" stroke="none" xml:space="preserve" x="0.421875" y="8" font-family="MS Shell Dlg 2" font-size="7.85" font-weight="400" font-style="normal" 
 >0.2</text>
</g>

<g fill="none" stroke="#000000" stroke-opacity="1" stroke-width="1" stroke-linecap="square" stroke-linejoin="bevel" transform="matrix(1,0,0,1,0,0)"
font-family="MS Shell Dlg 2" font-size="7.8" font-weight="400" font-style="normal" 
>
</g>

<g fill="none" stroke="#000000" stroke-opacity="1" stroke-width="1" stroke-linecap="square" stroke-linejoin="bevel" transform="matrix(1,0,0,1,0,0)"
font-family="MS Shell Dlg 2" font-size="7.8" font-weight="400" font-style="normal" 
>
</g>

<g fill="none" stroke="#000000" stroke-opacity="1" stroke-width="1" stroke-linecap="square" stroke-linejoin="bevel" transform="matrix(1,0,0,1,0,0)"
font-family="MS Shell Dlg 2" font-size="7.8" font-weight="400" font-style="normal" 
>
</g>
</g>
</svg>
