<?xml version="1.0" encoding="UTF-8" standalone="no"?>
<svg width="347.839mm" height="138.289mm"
 viewBox="0 0 986 392"
 xmlns="http://www.w3.org/2000/svg" xmlns:xlink="http://www.w3.org/1999/xlink"  version="1.2" baseProfile="tiny">
<defs>
</defs>
<g fill="none" stroke="black" stroke-width="1" fill-rule="evenodd" stroke-linecap="square" stroke-linejoin="bevel" >

<g fill="#ffffff" fill-opacity="1" stroke="none" transform="matrix(1,0,0,1,0,0)"
font-family="MS Shell Dlg 2" font-size="7.8" font-weight="400" font-style="normal" 
>
<rect x="0" y="0" width="986" height="392"/>
</g>

<g fill="none" stroke="#000000" stroke-opacity="1" stroke-width="1" stroke-linecap="square" stroke-linejoin="bevel" transform="matrix(1,0,0,1,0,0)"
font-family="MS Shell Dlg 2" font-size="7.8" font-weight="400" font-style="normal" 
>
</g>

<g fill="none" stroke="#000000" stroke-opacity="1" stroke-width="1" stroke-linecap="square" stroke-linejoin="bevel" transform="matrix(1,0,0,1,0,0)"
font-family="MS Shell Dlg 2" font-size="7.8" font-weight="400" font-style="normal" 
>
</g>

<g fill="none" stroke="#000000" stroke-opacity="1" stroke-width="1" stroke-linecap="square" stroke-linejoin="bevel" transform="matrix(1,0,0,1,0,0)"
font-family="MS Shell Dlg 2" font-size="7.8" font-weight="400" font-style="normal" 
>
</g>

<g fill="none" stroke="#000000" stroke-opacity="1" stroke-width="1" stroke-linecap="square" stroke-linejoin="bevel" transform="matrix(1,0,0,1,0,0)"
font-family="MS Shell Dlg 2" font-size="7.8" font-weight="400" font-style="normal" 
>
</g>

<g fill="#ffffff" fill-opacity="1" stroke="none" transform="matrix(1,0,0,1,0,0)"
font-family="MS Shell Dlg 2" font-size="7.8" font-weight="400" font-style="normal" 
>
<rect x="46" y="21" width="910" height="333"/>
</g>

<g fill="none" stroke="#000000" stroke-opacity="1" stroke-width="1" stroke-linecap="square" stroke-linejoin="bevel" transform="matrix(1,0,0,1,0,0)"
font-family="MS Shell Dlg 2" font-size="7.8" font-weight="400" font-style="normal" 
>
</g>

<g fill="none" stroke="#000000" stroke-opacity="1" stroke-width="1" stroke-linecap="square" stroke-linejoin="bevel" transform="matrix(1,0,0,1,0,0)"
font-family="MS Shell Dlg 2" font-size="7.8" font-weight="400" font-style="normal" 
>
</g>

<g fill="none" stroke="#c8c8c8" stroke-opacity="1" stroke-dasharray="1,2" stroke-dashoffset="0" stroke-width="1" stroke-linecap="square" stroke-linejoin="bevel" transform="matrix(1,0,0,1,0,0)"
font-family="MS Shell Dlg 2" font-size="7.8" font-weight="400" font-style="normal" 
>
<polyline fill="none" vector-effect="non-scaling-stroke" points="46,353 46,21 " />
<polyline fill="none" vector-effect="non-scaling-stroke" points="255.436,353 255.436,21 " />
<polyline fill="none" vector-effect="non-scaling-stroke" points="464.872,353 464.872,21 " />
<polyline fill="none" vector-effect="non-scaling-stroke" points="674.308,353 674.308,21 " />
<polyline fill="none" vector-effect="non-scaling-stroke" points="883.745,353 883.745,21 " />
</g>

<g fill="none" stroke="#000000" stroke-opacity="1" stroke-width="1" stroke-linecap="square" stroke-linejoin="bevel" transform="matrix(1,0,0,1,0,0)"
font-family="MS Shell Dlg 2" font-size="7.8" font-weight="400" font-style="normal" 
>
</g>

<g fill="none" stroke="#000000" stroke-opacity="1" stroke-width="1" stroke-linecap="square" stroke-linejoin="bevel" transform="matrix(1,0,0,1,0,0)"
font-family="MS Shell Dlg 2" font-size="7.8" font-weight="400" font-style="normal" 
>
</g>

<g fill="none" stroke="#c8c8c8" stroke-opacity="1" stroke-dasharray="1,2" stroke-dashoffset="0" stroke-width="1" stroke-linecap="square" stroke-linejoin="bevel" transform="matrix(1,0,0,1,0,0)"
font-family="MS Shell Dlg 2" font-size="7.8" font-weight="400" font-style="normal" 
>
<polyline fill="none" vector-effect="non-scaling-stroke" points="46,347.851 955,347.851 " />
<polyline fill="none" vector-effect="non-scaling-stroke" points="46,281.699 955,281.699 " />
<polyline fill="none" vector-effect="non-scaling-stroke" points="46,215.546 955,215.546 " />
<polyline fill="none" vector-effect="non-scaling-stroke" points="46,149.394 955,149.394 " />
<polyline fill="none" vector-effect="non-scaling-stroke" points="46,83.241 955,83.241 " />
</g>

<g fill="none" stroke="#000000" stroke-opacity="1" stroke-width="1" stroke-linecap="square" stroke-linejoin="bevel" transform="matrix(1,0,0,1,0,0)"
font-family="MS Shell Dlg 2" font-size="7.8" font-weight="400" font-style="normal" 
>
</g>

<g fill="none" stroke="#000000" stroke-opacity="1" stroke-width="1" stroke-linecap="square" stroke-linejoin="bevel" transform="matrix(1,0,0,1,0,0)"
font-family="MS Shell Dlg 2" font-size="7.8" font-weight="400" font-style="normal" 
>
</g>

<g fill="none" stroke="#0000ff" stroke-opacity="1" stroke-width="1" stroke-linecap="square" stroke-linejoin="bevel" transform="matrix(1,0,0,1,0,0)"
font-family="MS Shell Dlg 2" font-size="7.8" font-weight="400" font-style="normal" 
>
<polyline fill="none" vector-effect="non-scaling-stroke" points="46,109.941 47.0472,126.037 48.0944,130.22 49.1415,135.025 50.1887,132.049 51.2359,165.271 52.2831,169.994 53.3303,162.484 54.3774,168.977 55.4246,171.454 56.4718,159.972 57.519,173.056 58.5662,188.077 59.6133,201.783 60.6605,207.546 61.7077,197.908 62.7549,201.884 63.8021,178.579 64.8493,211.992 65.8964,189.031 66.9436,182.096 67.9908,151.352 69.038,115.01 70.0852,149.07 71.1323,162.281 72.1795,108.992 73.2267,144.375 74.2739,153.655 75.3211,152.62 76.3682,195.784 77.4154,207.69 78.4626,199.934 79.5098,173.542 80.557,178.737 81.6041,177.853 82.6513,190.742 83.6985,232.876 84.7457,206.76 85.7929,209.142 86.84,236.79 87.8872,230.808 88.9344,207.056 89.9816,198.5 91.0288,154.153 92.0759,160.644 93.1231,130.985 94.1703,164.785 95.2175,146.909 96.2647,166.853 97.3119,198 98.359,155.987 99.4062,209.805 100.453,186.962 101.501,170.901 102.548,176.641 103.595,197.103 104.642,212.171 105.689,239.859 106.736,222.255 107.784,208.451 108.831,226.075 109.878,130.17 110.925,155.132 111.972,112.724 113.02,111.99 114.067,211.32 115.114,241.869 116.161,269.851 117.208,265.057 118.255,224.483 119.303,219.063 120.35,232.721 121.397,262.379 122.444,272.141 123.491,234.504 124.539,213.983 125.586,171.909 126.633,157.309 127.68,156.467 128.727,172.684 129.774,223.091 130.822,180.761 131.869,182.597 132.916,176.412 133.963,162.132 135.01,136.775 136.058,164.257 137.105,181.887 138.152,182.583 139.199,173.158 140.246,149.947 141.293,103.619 142.341,125.532 143.388,140.036 144.435,138.864 145.482,134.174 146.529,163.334 147.577,138.525 148.624,134.08 149.671,127.463 150.718,155.895 151.765,147.303 152.812,138.364 153.86,181.514 154.907,178.782 155.954,176.928 157.001,171.399 158.048,196.998 159.096,198.735 160.143,194.166 161.19,186.235 162.237,201.062 163.284,237.981 164.331,214.597 165.379,202.324 166.426,207.361 167.473,225.103 168.52,213.971 169.567,189.304 170.614,186.009 171.662,225.488 172.709,194.63 173.756,196.665 174.803,161.828 175.85,129.601 176.898,166.981 177.945,185.398 178.992,156.993 180.039,173.654 181.086,191.41 182.133,218.322 183.181,219.198 184.228,178.758 185.275,192.807 186.322,199.4 187.369,143.34 188.417,165.44 189.464,126.689 190.511,90.6034 191.558,78.9301 192.605,116.646 193.652,94.7041 194.7,66.1273 195.747,77.993 196.794,60.2002 197.841,73.4748 198.888,114.593 199.936,68.0246 200.983,40.5023 202.03,61.8111 203.077,102.861 204.124,95.824 205.171,97.1927 206.219,93.6109 207.266,86.747 208.313,117.042 209.36,93.4743 210.407,130.231 211.455,97.4244 212.502,97.8948 213.549,162.654 214.596,157.319 215.643,164.349 216.69,123.512 217.738,129.683 218.785,147.272 219.832,150.684 220.879,146.101 221.926,153.198 222.974,142.535 224.021,151.281 225.068,149.707 226.115,120.661 227.162,130.719 228.209,119.816 229.257,99.468 230.304,91.7064 231.351,114.812 232.398,125.27 233.445,101.278 234.493,93.0263 235.54,104.686 236.587,68.9164 237.634,90.0153 238.681,130.915 239.728,171.44 240.776,148.552 241.823,175.837 242.87,169.947 243.917,180.403 244.964,224.458 246.012,172.437 247.059,205.664 248.106,169.192 249.153,191.633 250.2,207.515 251.247,210.497 252.295,208.662 253.342,228.381 254.389,203.705 255.436,211.549 256.483,268.318 257.53,258.026 258.578,223.616 259.625,203.206 260.672,211.798 261.719,213.279 262.766,197.728 263.814,197.083 264.861,173.28 265.908,178.743 266.955,169.552 268.002,179.957 269.049,96.4437 270.097,33.6483 271.144,20 272.191,91.8278 273.238,44.124 274.285,40.1508 275.333,118.318 276.38,159.925 277.427,122.093 278.474,93.4084 279.521,97.1825 280.568,124.206 281.616,127.497 282.663,133.195 283.71,126.621 284.757,150.994 285.804,177.648 286.852,149.882 287.899,140.846 288.946,122.453 289.993,81.6723 291.04,112.943 292.087,120.329 293.135,138.993 294.182,140.278 295.229,167.38 296.276,157.412 297.323,139.551 298.371,135.487 299.418,145.429 300.465,124.328 301.512,100.595 302.559,108.347 303.606,163.727 304.654,192.028 305.701,201.023 306.748,187.466 307.795,202.86 308.842,227.585 309.89,257.959 310.937,259.278 311.984,265.402 313.031,249.445 314.078,217.45 315.125,249.53 316.173,265.36 317.22,251.628 318.267,253.245 319.314,239.977 320.361,224.838 321.409,227.907 322.456,210.388 323.503,219.211 324.55,198.435 325.597,230.277 326.644,250.565 327.692,247.776 328.739,233.534 329.786,268.135 330.833,273.637 331.88,308.783 332.928,318.905 333.975,276.702 335.022,262.835 336.069,263.333 337.116,288.336 338.163,270.612 339.211,253.196 340.258,246.994 341.305,235.304 342.352,222.09 343.399,222.12 344.446,233.264 345.494,238.034 346.541,235.314 347.588,237.08 348.635,211.708 349.682,219.242 350.73,267.299 351.777,266.239 352.824,278.951 353.871,297.456 354.918,280.419 355.965,266.764 357.013,280.78 358.06,277.444 359.107,292.018 360.154,303.091 361.201,301.184 362.249,304.856 363.296,317.601 364.343,351.943 365.39,343.269 366.437,339.911 367.484,324.864 368.532,302.397 369.579,261.568 370.626,250.528 371.673,266.269 372.72,250.057 373.768,254.728 374.815,212.493 375.862,247.542 376.909,269.243 377.956,291.602 379.003,275.525 380.051,254.664 381.098,239.077 382.145,204.898 383.192,176.668 384.239,184.242 385.287,153.194 386.334,173.918 387.381,154.383 388.428,165.983 389.475,184.394 390.522,220.85 391.57,251.856 392.617,222.078 393.664,200.024 394.711,190.303 395.758,189.023 396.806,219.189 397.853,173.295 398.9,149.466 399.947,141.293 400.994,158.662 402.041,155.022 403.089,185.406 404.136,199.55 405.183,175.358 406.23,162.974 407.277,165.328 408.325,149.599 409.372,134.25 410.419,106.552 411.466,146.954 412.513,132.393 413.56,131.579 414.608,135.63 415.655,166.794 416.702,168.411 417.749,155.011 418.796,157.704 419.843,167.763 420.891,149.55 421.938,182.323 422.985,194.208 424.032,197.763 425.079,210.711 426.127,203.682 427.174,190.89 428.221,189.383 429.268,179.921 430.315,200.398 431.362,161.125 432.41,129.303 433.457,134.587 434.504,151.984 435.551,163.15 436.598,95.679 437.646,150.542 438.693,148.939 439.74,185.59 440.787,204.43 441.834,208.472 442.881,199.18 443.929,153.373 444.976,181.227 446.023,182.989 447.07,210.622 448.117,228.686 449.165,196.377 450.212,188.582 451.259,245.052 452.306,220.038 453.353,192.639 454.4,197.683 455.448,133.244 456.495,155.084 457.542,131.904 458.589,155.031 459.636,148.507 460.684,194.664 461.731,183.375 462.778,175.983 463.825,208.133 464.872,194.572 465.919,157.951 466.967,200.085 468.014,193.461 469.061,214.651 470.108,235.824 471.155,227.029 472.203,197.841 473.25,217.628 474.297,115.464 475.344,152.865 476.391,109.685 477.438,156.279 478.486,230.926 479.533,252.68 480.58,272.077 481.627,220.157 482.674,217.038 483.722,217.14 484.769,240.486 485.816,240.629 486.863,273.072 487.91,217.262 488.957,214.719 490.005,146.458 491.052,162.497 492.099,148.112 493.146,200.381 494.193,195.847 495.241,170.159 496.288,185.375 497.335,186.321 498.382,159.348 499.429,137.117 500.476,167.792 501.524,186.033 502.571,178.404 503.618,170.47 504.665,142.566 505.712,88.6858 506.759,151.982 507.807,133.483 508.854,129.315 509.901,144.112 510.948,149.127 511.995,131.96 513.043,134.209 514.09,142.764 515.137,161.544 516.184,134.814 517.231,150.846 518.278,189.272 519.326,168.116 520.373,173.99 521.42,164.767 522.467,212.684 523.514,206.584 524.562,184.887 525.609,177.973 526.656,224.662 527.703,237.246 528.75,222.388 529.797,209.858 530.845,204.767 531.892,235.223 532.939,204.648 533.986,178.859 535.033,192.09 536.081,206.75 537.128,198.098 538.175,202.775 539.222,133.574 540.269,135.131 541.316,177.253 542.364,163.054 543.411,164.398 544.458,181.525 545.505,201.428 546.552,224.799 547.6,198.496 548.647,186.198 549.694,208.598 550.741,183 551.788,150.738 552.835,143.428 553.883,128.125 554.93,81.4039 555.977,79.2937 557.024,105.375 558.071,85.8753 559.119,64.0371 560.166,76.3983 561.213,72.3628 562.26,79.164 563.307,83.0497 564.354,67.7902 565.402,41.2812 566.449,74.7517 567.496,111.037 568.543,87.4089 569.59,101.681 570.638,101.557 571.685,88.2544 572.732,117.359 573.779,82.5928 574.826,140.524 575.873,87.5267 576.921,121.643 577.968,146.176 579.015,164.556 580.062,150.135 581.109,115.866 582.157,133.65 583.204,164.897 584.251,173.368 585.298,140.905 586.345,155.269 587.392,137.305 588.44,137.724 589.487,151.948 590.534,137.021 591.581,124.106 592.628,113.089 593.675,102.147 594.723,95.3217 595.77,117.963 596.817,114.636 597.864,92.7755 598.911,101.598 599.959,77.6457 601.006,90.4203 602.053,107.026 603.1,156.725 604.147,173.726 605.194,178.726 606.242,159.81 607.289,174.859 608.336,194.302 609.383,217.556 610.43,184.693 611.478,201.971 612.525,159.16 613.572,208.181 614.619,213.566 615.666,213.467 616.713,235.542 617.761,209.262 618.808,199.081 619.855,223.133 620.902,266.234 621.949,235.789 622.997,214.377 624.044,210.908 625.091,221.952 626.138,179.454 627.185,205.315 628.232,210.996 629.28,182.409 630.327,171.288 631.374,173.807 632.421,165.933 633.468,54.9822 634.516,21.5889 635.563,41.3781 636.61,56.6951 637.657,56.1895 638.704,56.9417 639.751,139.59 640.799,125.684 641.846,128.472 642.893,86.7851 643.94,117.324 644.987,137.238 646.035,113.334 647.082,128.358 648.129,112.227 649.176,165.039 650.223,176.527 651.27,135.165 652.318,149.939 653.365,110.443 654.412,91.2618 655.459,121.451 656.506,112.242 657.554,147.772 658.601,150.273 659.648,166.392 660.695,162.253 661.742,156.088 662.789,133.984 663.837,138.386 664.884,137.592 665.931,97.26 666.978,118.127 668.025,156.883 669.072,193.18 670.12,200.268 671.167,188.452 672.214,224.462 673.261,244.262 674.308,260.768 675.356,265.656 676.403,255.571 677.45,241.05 678.497,223.822 679.544,259.781 680.591,256.234 681.639,245.379 682.686,246.848 683.733,227.633 684.78,207.194 685.827,212.327 686.875,219.582 687.922,216.959 688.969,189.87 690.016,235.112 691.063,251.689 692.11,248.498 693.158,249.582 694.205,287.554 695.252,281.348 696.299,310.131 697.346,305.145 698.394,258.916 699.441,262.769 700.488,268.945 701.535,279.145 702.582,293.666 703.629,257.944 704.677,230.992 705.724,220.822 706.771,219.434 707.818,219.194 708.865,218.635 709.913,236.467 710.96,248.775 712.007,238.69 713.054,213.003 714.101,248.832 715.148,269.59 716.196,269.095 717.243,284.351 718.29,310.141 719.337,274.167 720.384,269.007 721.432,269.265 722.479,276.296 723.526,296.883 724.573,306.056 725.62,276.092 726.667,315.497 727.715,336.423 728.762,344.624 729.809,343.902 730.856,353 731.903,301.418 732.951,278.868 733.998,258.651 735.045,256.206 736.092,263.045 737.139,256.209 738.186,242.715 739.234,216.968 740.281,250.346 741.328,297.664 742.375,281.119 743.422,254.855 744.47,253.558 745.517,236.034 746.564,198.845 747.611,178.505 748.658,175.839 749.705,153.752 750.753,167.524 751.8,161.271 752.847,170.311 753.894,208.089 754.941,218.166 755.988,231.623 757.036,227.631 758.083,193.669 759.13,194.918 760.177,198.437 761.224,213.615 762.272,158.575 763.319,158.255 764.366,150.725 765.413,164.393 766.46,175.378 767.507,177.874 768.555,184.109 769.602,183.689 770.649,163.909 771.696,157.034 772.743,151.953 773.791,136.032 774.838,111.415 775.885,158.695 776.932,136.588 777.979,131.611 779.026,150.73 780.074,157.368 781.121,173.08 782.168,166.935 783.215,162.735 784.262,151.606 785.31,157.834 786.357,181.608 787.404,205.786 788.451,208.443 789.498,201.901 790.545,211.877 791.593,179.701 792.64,205.625 793.687,173.742 794.734,190.142 795.781,166.557 796.829,125.104 797.876,146.236 798.923,160.494 799.97,138.299 801.017,110.589 802.064,161.38 803.112,164.589 804.159,192.172 805.206,212.942 806.253,202.494 807.3,192.543 808.348,169.175 809.395,186.781 810.442,180.281 811.489,225.866 812.536,216.827 813.583,188.142 814.631,212.291 815.678,239.115 816.725,219.129 817.772,192.563 818.819,181.338 819.867,136.224 820.914,143.101 821.961,151.612 823.008,150.628 824.055,159.501 825.102,205.681 826.15,172.807 827.197,199.697 828.244,202.075 829.291,189.044 830.338,165.795 831.386,202.103 832.433,196.059 833.48,229.298 834.527,220.213 835.574,223.128 836.621,207.242 837.669,173.658 838.716,137.152 839.763,126.937 840.81,104.747 841.857,188.67 842.904,247.434 843.952,264.839 844.999,275.998 846.046,223.855 847.093,219.442 848.14,224.274 849.188,249.534 850.235,255.965 851.282,259.311 852.329,211.692 853.376,202.784 854.423,148.202 855.471,161.142 856.518,152.355 857.565,220.203 858.612,188.691 859.659,168.782 860.707,175.234 861.754,185.669 862.801,149.747 863.848,159.954 864.895,171.133 865.942,171.555 866.99,174.431 868.037,161.296 869.084,128.138 870.131,104.861 871.178,154.937 872.226,152.256 873.273,130.193 874.32,162.291 875.367,143.705 876.414,129.018 877.461,121.317 878.509,141.716 879.556,162.846 880.603,148.772 881.65,166.796 882.697,185.631 883.745,175.439 884.792,179.364 885.839,178.064 886.886,218.655 887.933,204.574 888.98,185.418 890.028,182.589 891.075,239.535 892.122,221.681 893.169,230.683 894.216,212.723 895.264,216.81 896.311,227.659 897.358,202.462 898.405,181.888 899.452,208.238 900.499,198.331 901.547,211.296 902.594,190.668 903.641,126.29 904.688,154.961 905.735,200.117 906.783,151.002 907.83,154.107 908.877,180.736 909.924,190.218 910.971,228.812 912.018,181.829 913.066,179.444 914.113,187.102 915.16,154.883 916.207,160.203 917.254,128.418 918.301,115.928 919.349,80.8488 920.396,93.5385 921.443,98.405 922.49,67.8633 923.537,70.4175 924.585,61.0973 925.632,74.9392 926.679,99.2905 927.726,70.7566 928.773,67.9421 929.82,48.6383 930.868,80.4831 931.915,102.695 932.962,68.141 934.009,92.299 935.056,93.4137 936.104,105.062 937.151,111.425 938.198,103.022 939.245,122.377 940.292,86.3871 941.339,149.503 942.387,147.398 943.434,164.4 944.481,136.449 945.528,121.142 946.575,135.858 947.623,171.471 948.67,162.39 949.717,141.105 950.764,151.267 951.811,145.883 952.858,138.454 953.906,127.036 954.953,138.023 956,121.684 " />
</g>

<g fill="none" stroke="#000000" stroke-opacity="1" stroke-width="1" stroke-linecap="square" stroke-linejoin="bevel" transform="matrix(1,0,0,1,0,0)"
font-family="MS Shell Dlg 2" font-size="7.8" font-weight="400" font-style="normal" 
>
</g>

<g fill="none" stroke="#000000" stroke-opacity="1" stroke-width="1" stroke-linecap="square" stroke-linejoin="bevel" transform="matrix(1,0,0,1,0,0)"
font-family="MS Shell Dlg 2" font-size="7.8" font-weight="400" font-style="normal" 
>
</g>

<g fill="none" stroke="#000000" stroke-opacity="1" stroke-width="1" stroke-linecap="square" stroke-linejoin="bevel" transform="matrix(1,0,0,1,0,0)"
font-family="MS Shell Dlg 2" font-size="7.8" font-weight="400" font-style="normal" 
>
<polyline fill="none" vector-effect="non-scaling-stroke" points="46,353 956,353 " />
<polyline fill="none" vector-effect="non-scaling-stroke" points="46,353 46,348 " />
<polyline fill="none" vector-effect="non-scaling-stroke" points="255.436,353 255.436,348 " />
<polyline fill="none" vector-effect="non-scaling-stroke" points="464.872,353 464.872,348 " />
<polyline fill="none" vector-effect="non-scaling-stroke" points="674.308,353 674.308,348 " />
<polyline fill="none" vector-effect="non-scaling-stroke" points="883.745,353 883.745,348 " />
<polyline fill="none" vector-effect="non-scaling-stroke" points="87.8872,353 87.8872,351 " />
<polyline fill="none" vector-effect="non-scaling-stroke" points="129.774,353 129.774,351 " />
<polyline fill="none" vector-effect="non-scaling-stroke" points="171.662,353 171.662,351 " />
<polyline fill="none" vector-effect="non-scaling-stroke" points="213.549,353 213.549,351 " />
<polyline fill="none" vector-effect="non-scaling-stroke" points="297.323,353 297.323,351 " />
<polyline fill="none" vector-effect="non-scaling-stroke" points="339.211,353 339.211,351 " />
<polyline fill="none" vector-effect="non-scaling-stroke" points="381.098,353 381.098,351 " />
<polyline fill="none" vector-effect="non-scaling-stroke" points="422.985,353 422.985,351 " />
<polyline fill="none" vector-effect="non-scaling-stroke" points="506.759,353 506.759,351 " />
<polyline fill="none" vector-effect="non-scaling-stroke" points="548.647,353 548.647,351 " />
<polyline fill="none" vector-effect="non-scaling-stroke" points="590.534,353 590.534,351 " />
<polyline fill="none" vector-effect="non-scaling-stroke" points="632.421,353 632.421,351 " />
<polyline fill="none" vector-effect="non-scaling-stroke" points="716.196,353 716.196,351 " />
<polyline fill="none" vector-effect="non-scaling-stroke" points="758.083,353 758.083,351 " />
<polyline fill="none" vector-effect="non-scaling-stroke" points="799.97,353 799.97,351 " />
<polyline fill="none" vector-effect="non-scaling-stroke" points="841.857,353 841.857,351 " />
<polyline fill="none" vector-effect="non-scaling-stroke" points="925.632,353 925.632,351 " />
</g>

<g fill="#000000" fill-opacity="1" stroke="#000000" stroke-opacity="1" stroke-width="1" stroke-linecap="square" stroke-linejoin="bevel" transform="matrix(1,0,0,1,43,356)"
font-family="MS Shell Dlg 2" font-size="7.85" font-weight="400" font-style="normal" 
>
<text fill="#000000" fill-opacity="1" stroke="none" xml:space="preserve" x="0.8125" y="8" font-family="MS Shell Dlg 2" font-size="7.85" font-weight="400" font-style="normal" 
 >0</text>
</g>

<g fill="#000000" fill-opacity="1" stroke="#000000" stroke-opacity="1" stroke-width="1" stroke-linecap="square" stroke-linejoin="bevel" transform="matrix(1,0,0,1,250.436,356)"
font-family="MS Shell Dlg 2" font-size="7.85" font-weight="400" font-style="normal" 
>
<text fill="#000000" fill-opacity="1" stroke="none" xml:space="preserve" x="0.640625" y="8" font-family="MS Shell Dlg 2" font-size="7.85" font-weight="400" font-style="normal" 
 >50</text>
</g>

<g fill="#000000" fill-opacity="1" stroke="#000000" stroke-opacity="1" stroke-width="1" stroke-linecap="square" stroke-linejoin="bevel" transform="matrix(1,0,0,1,457.872,356)"
font-family="MS Shell Dlg 2" font-size="7.85" font-weight="400" font-style="normal" 
>
<text fill="#000000" fill-opacity="1" stroke="none" xml:space="preserve" x="0.453125" y="8" font-family="MS Shell Dlg 2" font-size="7.85" font-weight="400" font-style="normal" 
 >100</text>
</g>

<g fill="#000000" fill-opacity="1" stroke="#000000" stroke-opacity="1" stroke-width="1" stroke-linecap="square" stroke-linejoin="bevel" transform="matrix(1,0,0,1,667.308,356)"
font-family="MS Shell Dlg 2" font-size="7.85" font-weight="400" font-style="normal" 
>
<text fill="#000000" fill-opacity="1" stroke="none" xml:space="preserve" x="0.453125" y="8" font-family="MS Shell Dlg 2" font-size="7.85" font-weight="400" font-style="normal" 
 >150</text>
</g>

<g fill="#000000" fill-opacity="1" stroke="#000000" stroke-opacity="1" stroke-width="1" stroke-linecap="square" stroke-linejoin="bevel" transform="matrix(1,0,0,1,876.745,356)"
font-family="MS Shell Dlg 2" font-size="7.85" font-weight="400" font-style="normal" 
>
<text fill="#000000" fill-opacity="1" stroke="none" xml:space="preserve" x="0.453125" y="8" font-family="MS Shell Dlg 2" font-size="7.85" font-weight="400" font-style="normal" 
 >200</text>
</g>

<g fill="#000000" fill-opacity="1" stroke="#000000" stroke-opacity="1" stroke-width="1" stroke-linecap="square" stroke-linejoin="bevel" transform="matrix(1,0,0,1,0,0)"
font-family="MS Shell Dlg 2" font-size="7.8" font-weight="400" font-style="normal" 
>
<text fill="#000000" fill-opacity="1" stroke="none" xml:space="preserve" x="485.594" y="377.172" font-family="MS Shell Dlg 2" font-size="7.8" font-weight="400" font-style="normal" 
 >Variable </text>
</g>

<g fill="none" stroke="#000000" stroke-opacity="1" stroke-width="1" stroke-linecap="square" stroke-linejoin="bevel" transform="matrix(1,0,0,1,0,0)"
font-family="MS Shell Dlg 2" font-size="7.8" font-weight="400" font-style="normal" 
>
</g>

<g fill="none" stroke="#000000" stroke-opacity="1" stroke-width="1" stroke-linecap="square" stroke-linejoin="bevel" transform="matrix(1,0,0,1,0,0)"
font-family="MS Shell Dlg 2" font-size="7.8" font-weight="400" font-style="normal" 
>
</g>

<g fill="none" stroke="#000000" stroke-opacity="1" stroke-width="1" stroke-linecap="square" stroke-linejoin="bevel" transform="matrix(1,0,0,1,0,0)"
font-family="MS Shell Dlg 2" font-size="7.8" font-weight="400" font-style="normal" 
>
<polyline fill="none" vector-effect="non-scaling-stroke" points="46,353 46,20 " />
<polyline fill="none" vector-effect="non-scaling-stroke" points="46,347.851 51,347.851 " />
<polyline fill="none" vector-effect="non-scaling-stroke" points="46,281.699 51,281.699 " />
<polyline fill="none" vector-effect="non-scaling-stroke" points="46,215.546 51,215.546 " />
<polyline fill="none" vector-effect="non-scaling-stroke" points="46,149.394 51,149.394 " />
<polyline fill="none" vector-effect="non-scaling-stroke" points="46,83.241 51,83.241 " />
<polyline fill="none" vector-effect="non-scaling-stroke" points="46,331.313 48,331.313 " />
<polyline fill="none" vector-effect="non-scaling-stroke" points="46,314.775 48,314.775 " />
<polyline fill="none" vector-effect="non-scaling-stroke" points="46,298.237 48,298.237 " />
<polyline fill="none" vector-effect="non-scaling-stroke" points="46,265.16 48,265.16 " />
<polyline fill="none" vector-effect="non-scaling-stroke" points="46,248.622 48,248.622 " />
<polyline fill="none" vector-effect="non-scaling-stroke" points="46,232.084 48,232.084 " />
<polyline fill="none" vector-effect="non-scaling-stroke" points="46,199.008 48,199.008 " />
<polyline fill="none" vector-effect="non-scaling-stroke" points="46,182.47 48,182.47 " />
<polyline fill="none" vector-effect="non-scaling-stroke" points="46,165.932 48,165.932 " />
<polyline fill="none" vector-effect="non-scaling-stroke" points="46,132.855 48,132.855 " />
<polyline fill="none" vector-effect="non-scaling-stroke" points="46,116.317 48,116.317 " />
<polyline fill="none" vector-effect="non-scaling-stroke" points="46,99.7791 48,99.7791 " />
<polyline fill="none" vector-effect="non-scaling-stroke" points="46,66.7028 48,66.7028 " />
<polyline fill="none" vector-effect="non-scaling-stroke" points="46,50.1647 48,50.1647 " />
<polyline fill="none" vector-effect="non-scaling-stroke" points="46,33.6266 48,33.6266 " />
</g>

<g fill="#000000" fill-opacity="1" stroke="#000000" stroke-opacity="1" stroke-width="1" stroke-linecap="square" stroke-linejoin="bevel" transform="matrix(1,0,0,1,35,342.851)"
font-family="MS Shell Dlg 2" font-size="7.85" font-weight="400" font-style="normal" 
>
<text fill="#000000" fill-opacity="1" stroke="none" xml:space="preserve" x="0.8125" y="8" font-family="MS Shell Dlg 2" font-size="7.85" font-weight="400" font-style="normal" 
 >8</text>
</g>

<g fill="#000000" fill-opacity="1" stroke="#000000" stroke-opacity="1" stroke-width="1" stroke-linecap="square" stroke-linejoin="bevel" transform="matrix(1,0,0,1,31,276.699)"
font-family="MS Shell Dlg 2" font-size="7.85" font-weight="400" font-style="normal" 
>
<text fill="#000000" fill-opacity="1" stroke="none" xml:space="preserve" x="0.640625" y="8" font-family="MS Shell Dlg 2" font-size="7.85" font-weight="400" font-style="normal" 
 >10</text>
</g>

<g fill="#000000" fill-opacity="1" stroke="#000000" stroke-opacity="1" stroke-width="1" stroke-linecap="square" stroke-linejoin="bevel" transform="matrix(1,0,0,1,31,210.546)"
font-family="MS Shell Dlg 2" font-size="7.85" font-weight="400" font-style="normal" 
>
<text fill="#000000" fill-opacity="1" stroke="none" xml:space="preserve" x="0.640625" y="8" font-family="MS Shell Dlg 2" font-size="7.85" font-weight="400" font-style="normal" 
 >12</text>
</g>

<g fill="#000000" fill-opacity="1" stroke="#000000" stroke-opacity="1" stroke-width="1" stroke-linecap="square" stroke-linejoin="bevel" transform="matrix(1,0,0,1,31,144.394)"
font-family="MS Shell Dlg 2" font-size="7.85" font-weight="400" font-style="normal" 
>
<text fill="#000000" fill-opacity="1" stroke="none" xml:space="preserve" x="0.640625" y="8" font-family="MS Shell Dlg 2" font-size="7.85" font-weight="400" font-style="normal" 
 >14</text>
</g>

<g fill="#000000" fill-opacity="1" stroke="#000000" stroke-opacity="1" stroke-width="1" stroke-linecap="square" stroke-linejoin="bevel" transform="matrix(1,0,0,1,31,78.241)"
font-family="MS Shell Dlg 2" font-size="7.85" font-weight="400" font-style="normal" 
>
<text fill="#000000" fill-opacity="1" stroke="none" xml:space="preserve" x="0.640625" y="8" font-family="MS Shell Dlg 2" font-size="7.85" font-weight="400" font-style="normal" 
 >16</text>
</g>

<g fill="#000000" fill-opacity="1" stroke="#000000" stroke-opacity="1" stroke-width="1" stroke-linecap="square" stroke-linejoin="bevel" transform="matrix(0,-1,1,0,11,353)"
font-family="MS Shell Dlg 2" font-size="7.8" font-weight="400" font-style="normal" 
>
<text fill="#000000" fill-opacity="1" stroke="none" xml:space="preserve" x="140.984" y="8.17188" font-family="MS Shell Dlg 2" font-size="7.8" font-weight="400" font-style="normal" 
 >Random Value</text>
</g>

<g fill="none" stroke="#000000" stroke-opacity="1" stroke-width="1" stroke-linecap="square" stroke-linejoin="bevel" transform="matrix(1,0,0,1,0,0)"
font-family="MS Shell Dlg 2" font-size="7.8" font-weight="400" font-style="normal" 
>
</g>

<g fill="none" stroke="#000000" stroke-opacity="1" stroke-width="1" stroke-linecap="square" stroke-linejoin="bevel" transform="matrix(1,0,0,1,0,0)"
font-family="MS Shell Dlg 2" font-size="7.8" font-weight="400" font-style="normal" 
>
</g>

<g fill="none" stroke="#000000" stroke-opacity="1" stroke-width="1" stroke-linecap="square" stroke-linejoin="bevel" transform="matrix(1,0,0,1,0,0)"
font-family="MS Shell Dlg 2" font-size="7.8" font-weight="400" font-style="normal" 
>
<polyline fill="none" vector-effect="non-scaling-stroke" points="46,20 956,20 " />
<polyline fill="none" vector-effect="non-scaling-stroke" points="46,20 46,25 " />
<polyline fill="none" vector-effect="non-scaling-stroke" points="255.436,20 255.436,25 " />
<polyline fill="none" vector-effect="non-scaling-stroke" points="464.872,20 464.872,25 " />
<polyline fill="none" vector-effect="non-scaling-stroke" points="674.308,20 674.308,25 " />
<polyline fill="none" vector-effect="non-scaling-stroke" points="883.745,20 883.745,25 " />
<polyline fill="none" vector-effect="non-scaling-stroke" points="87.8872,20 87.8872,22 " />
<polyline fill="none" vector-effect="non-scaling-stroke" points="129.774,20 129.774,22 " />
<polyline fill="none" vector-effect="non-scaling-stroke" points="171.662,20 171.662,22 " />
<polyline fill="none" vector-effect="non-scaling-stroke" points="213.549,20 213.549,22 " />
<polyline fill="none" vector-effect="non-scaling-stroke" points="297.323,20 297.323,22 " />
<polyline fill="none" vector-effect="non-scaling-stroke" points="339.211,20 339.211,22 " />
<polyline fill="none" vector-effect="non-scaling-stroke" points="381.098,20 381.098,22 " />
<polyline fill="none" vector-effect="non-scaling-stroke" points="422.985,20 422.985,22 " />
<polyline fill="none" vector-effect="non-scaling-stroke" points="506.759,20 506.759,22 " />
<polyline fill="none" vector-effect="non-scaling-stroke" points="548.647,20 548.647,22 " />
<polyline fill="none" vector-effect="non-scaling-stroke" points="590.534,20 590.534,22 " />
<polyline fill="none" vector-effect="non-scaling-stroke" points="632.421,20 632.421,22 " />
<polyline fill="none" vector-effect="non-scaling-stroke" points="716.196,20 716.196,22 " />
<polyline fill="none" vector-effect="non-scaling-stroke" points="758.083,20 758.083,22 " />
<polyline fill="none" vector-effect="non-scaling-stroke" points="799.97,20 799.97,22 " />
<polyline fill="none" vector-effect="non-scaling-stroke" points="841.857,20 841.857,22 " />
<polyline fill="none" vector-effect="non-scaling-stroke" points="925.632,20 925.632,22 " />
</g>

<g fill="#000000" fill-opacity="1" stroke="#000000" stroke-opacity="1" stroke-width="1" stroke-linecap="square" stroke-linejoin="bevel" transform="matrix(1,0,0,1,43,8)"
font-family="MS Shell Dlg 2" font-size="7.85" font-weight="400" font-style="normal" 
>
<text fill="#000000" fill-opacity="1" stroke="none" xml:space="preserve" x="0.8125" y="8" font-family="MS Shell Dlg 2" font-size="7.85" font-weight="400" font-style="normal" 
 >0</text>
</g>

<g fill="#000000" fill-opacity="1" stroke="#000000" stroke-opacity="1" stroke-width="1" stroke-linecap="square" stroke-linejoin="bevel" transform="matrix(1,0,0,1,250.436,8)"
font-family="MS Shell Dlg 2" font-size="7.85" font-weight="400" font-style="normal" 
>
<text fill="#000000" fill-opacity="1" stroke="none" xml:space="preserve" x="0.640625" y="8" font-family="MS Shell Dlg 2" font-size="7.85" font-weight="400" font-style="normal" 
 >50</text>
</g>

<g fill="#000000" fill-opacity="1" stroke="#000000" stroke-opacity="1" stroke-width="1" stroke-linecap="square" stroke-linejoin="bevel" transform="matrix(1,0,0,1,457.872,8)"
font-family="MS Shell Dlg 2" font-size="7.85" font-weight="400" font-style="normal" 
>
<text fill="#000000" fill-opacity="1" stroke="none" xml:space="preserve" x="0.453125" y="8" font-family="MS Shell Dlg 2" font-size="7.85" font-weight="400" font-style="normal" 
 >100</text>
</g>

<g fill="#000000" fill-opacity="1" stroke="#000000" stroke-opacity="1" stroke-width="1" stroke-linecap="square" stroke-linejoin="bevel" transform="matrix(1,0,0,1,667.308,8)"
font-family="MS Shell Dlg 2" font-size="7.85" font-weight="400" font-style="normal" 
>
<text fill="#000000" fill-opacity="1" stroke="none" xml:space="preserve" x="0.453125" y="8" font-family="MS Shell Dlg 2" font-size="7.85" font-weight="400" font-style="normal" 
 >150</text>
</g>

<g fill="#000000" fill-opacity="1" stroke="#000000" stroke-opacity="1" stroke-width="1" stroke-linecap="square" stroke-linejoin="bevel" transform="matrix(1,0,0,1,876.745,8)"
font-family="MS Shell Dlg 2" font-size="7.85" font-weight="400" font-style="normal" 
>
<text fill="#000000" fill-opacity="1" stroke="none" xml:space="preserve" x="0.453125" y="8" font-family="MS Shell Dlg 2" font-size="7.85" font-weight="400" font-style="normal" 
 >200</text>
</g>

<g fill="none" stroke="#000000" stroke-opacity="1" stroke-width="1" stroke-linecap="square" stroke-linejoin="bevel" transform="matrix(1,0,0,1,0,0)"
font-family="MS Shell Dlg 2" font-size="7.8" font-weight="400" font-style="normal" 
>
</g>

<g fill="none" stroke="#000000" stroke-opacity="1" stroke-width="1" stroke-linecap="square" stroke-linejoin="bevel" transform="matrix(1,0,0,1,0,0)"
font-family="MS Shell Dlg 2" font-size="7.8" font-weight="400" font-style="normal" 
>
</g>

<g fill="none" stroke="#000000" stroke-opacity="1" stroke-width="1" stroke-linecap="square" stroke-linejoin="bevel" transform="matrix(1,0,0,1,0,0)"
font-family="MS Shell Dlg 2" font-size="7.8" font-weight="400" font-style="normal" 
>
<polyline fill="none" vector-effect="non-scaling-stroke" points="956,353 956,20 " />
<polyline fill="none" vector-effect="non-scaling-stroke" points="956,353 951,353 " />
<polyline fill="none" vector-effect="non-scaling-stroke" points="956,288.525 951,288.525 " />
<polyline fill="none" vector-effect="non-scaling-stroke" points="956,224.05 951,224.05 " />
<polyline fill="none" vector-effect="non-scaling-stroke" points="956,159.575 951,159.575 " />
<polyline fill="none" vector-effect="non-scaling-stroke" points="956,95.0999 951,95.0999 " />
<polyline fill="none" vector-effect="non-scaling-stroke" points="956,30.6248 951,30.6248 " />
<polyline fill="none" vector-effect="non-scaling-stroke" points="956,340.105 954,340.105 " />
<polyline fill="none" vector-effect="non-scaling-stroke" points="956,327.21 954,327.21 " />
<polyline fill="none" vector-effect="non-scaling-stroke" points="956,314.315 954,314.315 " />
<polyline fill="none" vector-effect="non-scaling-stroke" points="956,301.42 954,301.42 " />
<polyline fill="none" vector-effect="non-scaling-stroke" points="956,275.63 954,275.63 " />
<polyline fill="none" vector-effect="non-scaling-stroke" points="956,262.735 954,262.735 " />
<polyline fill="none" vector-effect="non-scaling-stroke" points="956,249.84 954,249.84 " />
<polyline fill="none" vector-effect="non-scaling-stroke" points="956,236.945 954,236.945 " />
<polyline fill="none" vector-effect="non-scaling-stroke" points="956,211.155 954,211.155 " />
<polyline fill="none" vector-effect="non-scaling-stroke" points="956,198.26 954,198.26 " />
<polyline fill="none" vector-effect="non-scaling-stroke" points="956,185.365 954,185.365 " />
<polyline fill="none" vector-effect="non-scaling-stroke" points="956,172.47 954,172.47 " />
<polyline fill="none" vector-effect="non-scaling-stroke" points="956,146.68 954,146.68 " />
<polyline fill="none" vector-effect="non-scaling-stroke" points="956,133.785 954,133.785 " />
<polyline fill="none" vector-effect="non-scaling-stroke" points="956,120.89 954,120.89 " />
<polyline fill="none" vector-effect="non-scaling-stroke" points="956,107.995 954,107.995 " />
<polyline fill="none" vector-effect="non-scaling-stroke" points="956,82.2048 954,82.2048 " />
<polyline fill="none" vector-effect="non-scaling-stroke" points="956,69.3098 954,69.3098 " />
<polyline fill="none" vector-effect="non-scaling-stroke" points="956,56.4148 954,56.4148 " />
<polyline fill="none" vector-effect="non-scaling-stroke" points="956,43.5198 954,43.5198 " />
</g>

<g fill="#000000" fill-opacity="1" stroke="#000000" stroke-opacity="1" stroke-width="1" stroke-linecap="square" stroke-linejoin="bevel" transform="matrix(1,0,0,1,960,348)"
font-family="MS Shell Dlg 2" font-size="7.85" font-weight="400" font-style="normal" 
>
<text fill="#000000" fill-opacity="1" stroke="none" xml:space="preserve" x="0.8125" y="8" font-family="MS Shell Dlg 2" font-size="7.85" font-weight="400" font-style="normal" 
 >5</text>
</g>

<g fill="#000000" fill-opacity="1" stroke="#000000" stroke-opacity="1" stroke-width="1" stroke-linecap="square" stroke-linejoin="bevel" transform="matrix(1,0,0,1,960,283.525)"
font-family="MS Shell Dlg 2" font-size="7.85" font-weight="400" font-style="normal" 
>
<text fill="#000000" fill-opacity="1" stroke="none" xml:space="preserve" x="0.421875" y="8" font-family="MS Shell Dlg 2" font-size="7.85" font-weight="400" font-style="normal" 
 >7.5</text>
</g>

<g fill="#000000" fill-opacity="1" stroke="#000000" stroke-opacity="1" stroke-width="1" stroke-linecap="square" stroke-linejoin="bevel" transform="matrix(1,0,0,1,960,219.05)"
font-family="MS Shell Dlg 2" font-size="7.85" font-weight="400" font-style="normal" 
>
<text fill="#000000" fill-opacity="1" stroke="none" xml:space="preserve" x="0.640625" y="8" font-family="MS Shell Dlg 2" font-size="7.85" font-weight="400" font-style="normal" 
 >10</text>
</g>

<g fill="#000000" fill-opacity="1" stroke="#000000" stroke-opacity="1" stroke-width="1" stroke-linecap="square" stroke-linejoin="bevel" transform="matrix(1,0,0,1,960,154.575)"
font-family="MS Shell Dlg 2" font-size="7.85" font-weight="400" font-style="normal" 
>
<text fill="#000000" fill-opacity="1" stroke="none" xml:space="preserve" x="0.25" y="8" font-family="MS Shell Dlg 2" font-size="7.85" font-weight="400" font-style="normal" 
 >12.5</text>
</g>

<g fill="#000000" fill-opacity="1" stroke="#000000" stroke-opacity="1" stroke-width="1" stroke-linecap="square" stroke-linejoin="bevel" transform="matrix(1,0,0,1,960,90.0999)"
font-family="MS Shell Dlg 2" font-size="7.85" font-weight="400" font-style="normal" 
>
<text fill="#000000" fill-opacity="1" stroke="none" xml:space="preserve" x="0.640625" y="8" font-family="MS Shell Dlg 2" font-size="7.85" font-weight="400" font-style="normal" 
 >15</text>
</g>

<g fill="#000000" fill-opacity="1" stroke="#000000" stroke-opacity="1" stroke-width="1" stroke-linecap="square" stroke-linejoin="bevel" transform="matrix(1,0,0,1,960,25.6248)"
font-family="MS Shell Dlg 2" font-size="7.85" font-weight="400" font-style="normal" 
>
<text fill="#000000" fill-opacity="1" stroke="none" xml:space="preserve" x="0.25" y="8" font-family="MS Shell Dlg 2" font-size="7.85" font-weight="400" font-style="normal" 
 >17.5</text>
</g>

<g fill="none" stroke="#000000" stroke-opacity="1" stroke-width="1" stroke-linecap="square" stroke-linejoin="bevel" transform="matrix(1,0,0,1,0,0)"
font-family="MS Shell Dlg 2" font-size="7.8" font-weight="400" font-style="normal" 
>
</g>

<g fill="none" stroke="#000000" stroke-opacity="1" stroke-width="1" stroke-linecap="square" stroke-linejoin="bevel" transform="matrix(1,0,0,1,0,0)"
font-family="MS Shell Dlg 2" font-size="7.8" font-weight="400" font-style="normal" 
>
</g>

<g fill="none" stroke="#000000" stroke-opacity="1" stroke-width="1" stroke-linecap="square" stroke-linejoin="bevel" transform="matrix(1,0,0,1,0,0)"
font-family="MS Shell Dlg 2" font-size="7.8" font-weight="400" font-style="normal" 
>
</g>
</g>
</svg>
